{
.appVersion = "911";
copyright = "Copyright (c) 2011, The Oswald Project Authors (vern@newtypography.co.uk)";
customParameters = (
{
name = license;
value = "This Font Software is licensed under the SIL Open Font License, Version 1.1. This license is available with a FAQ at: http://scripts.sil.org/OFL";
},
{
name = licenseURL;
value = "http://scripts.sil.org/OFL";
},
{
name = vendorID;
value = newt;
},
{
name = fsType;
value = 0;
},
{
name = "Use Typo Metrics";
value = 1;
}
);
date = "2016-08-02 10:21:29 +0000";
designer = "Vernon Adams";
designerURL = "http://www.newtypography.co.uk";
familyName = Oswald;
featurePrefixes = (
{
automatic = 1;
code = "languagesystem DFLT dflt;\012languagesystem latn dflt;\012languagesystem latn ROM;\012languagesystem latn MOL;\012languagesystem latn CAT;\012";
name = Languagesystems;
}
);
features = (
{
automatic = 1;
code = "feature ccmp;\012feature locl;\012feature sups;\012feature frac;\012feature ordn;\012";
name = aalt;
},
{
automatic = 1;
code = "lookup ccmp_latn_1 {\012	script latn;\012	@CombiningTopAccents = [acutecomb brevecomb breveinvertedcomb caroncomb circumflexcomb dblgravecomb dieresiscomb dotaccentcomb gravecomb macroncomb ringcomb tildecomb];\012	sub [i j]' @CombiningTopAccents by [idotless jdotless];\012} ccmp_latn_1;\012";
name = ccmp;
},
{
automatic = 1;
code = "script latn;\012language ROM;\012sub Scedilla by Scommaaccent;\012sub scedilla by scommaaccent;\012sub Tcedilla by Tcommaaccent;\012sub tcedilla by tcommaaccent;\012language MOL;\012sub Scedilla by Scommaaccent;\012sub scedilla by scommaaccent;\012sub Tcedilla by Tcommaaccent;\012sub tcedilla by tcommaaccent;\012language CAT;\012sub  l' periodcentered' l by ldot;\012sub  L' periodcentered' L by Ldot;\012";
name = locl;
},
{
automatic = 1;
code = "sub one by onesuperior;\012sub two by twosuperior;\012sub three by threesuperior;\012sub four by foursuperior;\012";
name = sups;
},
{
automatic = 1;

glyphs = (
{
glyphname = A;
lastChange = "2016-08-02 10:36:59 +0000";
layers = (
{
layerId = "6D1B020D-7C4E-4885-9208-B35BA480FE8F";
paths = (
{
closed = 1;
nodes = (
"65 0 LINE",
"132 224 LINE",
"342 224 LINE",
"360 0 LINE",
"415 0 LINE",
"329 810 LINE",
"267 810 LINE",
"11 0 LINE"
);
},
{
closed = 1;
nodes = (
"291 744 LINE",
"339 264 LINE",
"145 264 LINE"
);
}
);
width = 468;
},
{
layerId = "BF03A18F-065F-4249-8E16-486B9CB494A0";
paths = (
{
closed = 1;
nodes = (
"182 0 LINE",
"224 164 LINE",
"331 164 LINE",
"340 0 LINE",
"519 0 LINE",
"457 810 LINE",
"231 810 LINE",
"-2 0 LINE"
);
},
{
closed = 1;
nodes = (
"321 581 LINE",
"326 276 LINE",
"251 276 LINE"
);
}
);
width = 565;
},
{
layerId = "43161617-4660-4075-B14A-1D8E25AEE542";
paths = (
{
closed = 1;
nodes = (
"100 0 LINE",
"160 206 LINE",
"327 206 LINE",
"343 0 LINE",
"447 0 LINE",
"359 810 LINE",
"253 810 LINE",
"-4 0 LINE"
);
},
{
closed = 1;
nodes = (
"291 656 LINE",
"321 284 LINE",
"182 284 LINE"
);
}
);
width = 490;
}
);
unicode = 0041;
},
{
glyphname = AE;
lastChange = "2016-08-02 10:36:59 +0000";
layers = (
{
layerId = "6D1B020D-7C4E-4885-9208-B35BA480FE8F";
paths = (
{
closed = 1;
nodes = (
"17 0 LINE",
"129 224 LINE",
"318 224 LINE",
"294 0 LINE",
"575 0 LINE",
"580 44 LINE",
"351 44 LINE",
"388 401 LINE",
"553 401 LINE",
"558 441 LINE",
"393 441 LINE",
"426 766 LINE",
"655 766 LINE",
"660 810 LINE",
"363 810 LINE",
"-36 0 LINE"
);
},
{
closed = 1;
nodes = (
"370 734 LINE",
"322 268 LINE",
"149 268 LINE"
);
}
);
width = 629;
},
{
associatedMasterId = "6D1B020D-7C4E-4885-9208-B35BA480FE8F";
layerId = "B45D9027-F677-408B-8511-9BA9D5CA972C";
name = b;
width = 627;
},
{
layerId = "BF03A18F-065F-4249-8E16-486B9CB494A0";
paths = (
{
closed = 1;
nodes = (
"168 0 LINE",
"250 160 LINE",
"375 160 LINE",
"358 0 LINE",
"685 0 LINE",
"698 130 LINE",
"537 130 LINE",
"560 350 LINE",
"674 350 LINE",
"688 486 LINE",
"574 486 LINE",
"593 664 LINE",
"754 664 LINE",
"768 795 LINE",
"410 795 LINE",
"-29 0 LINE"
);
},
{
closed = 1;
nodes = (
"413 516 LINE",
"388 280 LINE",
"300 280 LINE"
);
}
);
width = 725;
},
{
layerId = "43161617-4660-4075-B14A-1D8E25AEE542";
paths = (
{
closed = 1;
nodes = (
"31 0 LINE",
"139 206 LINE",
"292 206 LINE",
"270 0 LINE",
"581 0 LINE",
"589 79 LINE",
"382 79 LINE",
"414 380 LINE",
"563 380 LINE",
"571 458 LINE",
"422 458 LINE",
"451 731 LINE",
"658 731 LINE",
"666 810 LINE",
"352 810 LINE",
"-73 0 LINE"
);
},
{
closed = 1;
nodes = (
"334 614 LINE",
"300 285 LINE",
"177 285 LINE"
);
}
);
width = 634;
}
);
unicode = 00C6;
userData = {
com.typemytype.robofont.layerData = {
b = {
anchors = (
);
components = (
);
contours = (
);
lib = {
};
name = AE;
unicodes = (
);
width = 1284;
};
};
};
},
{
glyphname = B;
lastChange = "2016-08-02 10:36:59 +0000";
layers = (
{
layerId = "6D1B020D-7C4E-4885-9208-B35BA480FE8F";
paths = (
{
closed = 1;
nodes = (
"246 0 LINE SMOOTH",
"401 0 OFFCURVE",
"438 114 OFFCURVE",
"451 236 CURVE SMOOTH",
"458 308 OFFCURVE",
"451 409 OFFCURVE",
"359 437 CURVE",
"439 456 OFFCURVE",
"465 543 OFFCURVE",
"472 608 CURVE SMOOTH",
"484 720 OFFCURVE",
"455 810 OFFCURVE",
"306 810 CURVE SMOOTH",
"139 810 LINE",
"54 0 LINE"
);
},
{
closed = 1;
nodes = (
"152 412 LINE",
"289 412 LINE SMOOTH",
"386 412 OFFCURVE",
"407 332 OFFCURVE",
"397 235 CURVE SMOOTH",
"384 104 OFFCURVE",
"350 43 OFFCURVE",
"243 43 CURVE SMOOTH",
"113 43 LINE"
);
},
{
closed = 1;
nodes = (
"189 766 LINE",
"289 766 LINE SMOOTH",
"416 766 OFFCURVE",
"431 698 OFFCURVE",
"422 608 CURVE SMOOTH",
"413 524 OFFCURVE",
"382 455 OFFCURVE",
"292 455 CURVE SMOOTH",
"156 455 LINE"
);
}
);
width = 488;
},
{
layerId = "BF03A18F-065F-4249-8E16-486B9CB494A0";
paths = (
{
closed = 1;
nodes = (
"292 0 LINE SMOOTH",
"450 0 OFFCURVE",
"555 68 OFFCURVE",
"571 243 CURVE SMOOTH",
"582 357 OFFCURVE",
"538 426 OFFCURVE",
"447 435 CURVE",
"520 449 OFFCURVE",
"569 498 OFFCURVE",
"582 595 CURVE SMOOTH",
"606 786 OFFCURVE",
"474 810 OFFCURVE",
"337 810 CURVE SMOOTH",
"119 810 LINE",
"34 0 LINE"
);
},
{
closed = 1;
nodes = (
"268 364 LINE",
"297 364 LINE SMOOTH",
"371 364 OFFCURVE",
"393 334 OFFCURVE",
"383 246 CURVE SMOOTH",
"375 174 OFFCURVE",
"347 136 OFFCURVE",
"272 136 CURVE SMOOTH",
"244 136 LINE"
);
},
{
closed = 1;
nodes = (
"301 681 LINE",
"333 681 LINE SMOOTH",
"389 681 OFFCURVE",
"417 643 OFFCURVE",
"412 590 CURVE SMOOTH",
"405 529 OFFCURVE",
"386 489 OFFCURVE",
"309 489 CURVE SMOOTH",
"281 489 LINE"
);
}
);
width = 604;
},
{
layerId = "43161617-4660-4075-B14A-1D8E25AEE542";
paths = (
{
closed = 1;
nodes = (
"254 0 LINE SMOOTH",
"400 0 OFFCURVE",
"470 93 OFFCURVE",
"485 232 CURVE SMOOTH",
"497 343 OFFCURVE",
"464 412 OFFCURVE",
"371 436 CURVE",
"450 447 OFFCURVE",
"493 510 OFFCURVE",
"503 607 CURVE SMOOTH",
"517 744 OFFCURVE",
"456 810 OFFCURVE",
"309 810 CURVE SMOOTH",
"125 810 LINE",
"40 0 LINE"
);
},
{
closed = 1;
nodes = (
"190 387 LINE",
"261 387 LINE SMOOTH",
"360 387 OFFCURVE",
"391 332 OFFCURVE",
"381 232 CURVE SMOOTH",
"370 125 OFFCURVE",
"338 79 OFFCURVE",
"238 79 CURVE SMOOTH",
"158 79 LINE"
);
},
{
closed = 1;
nodes = (
"226 729 LINE",
"257 729 LINE SMOOTH",
"373 729 OFFCURVE",
"419 717 OFFCURVE",
"408 607 CURVE SMOOTH",
"397 512 OFFCURVE",
"365 470 OFFCURVE",
"270 470 CURVE SMOOTH",
"199 470 LINE"
);
}
);
width = 521;
}
);
unicode = 0042;
userData = {
com.fontlab.hintData = {
hhints = (
{
position = 0;
width = 56;
},
{
position = 864;
width = 53;
},
{
position = 1602;
width = 56;
}
);
};
};
},
{
glyphname = C;
lastChange = "2016-08-02 10:36:59 +0000";
layers = (
{
layerId = "6D1B020D-7C4E-4885-9208-B35BA480FE8F";
paths = (
{
closed = 1;
nodes = (
"379 -11 OFFCURVE",
"429 88 OFFCURVE",
"443 227 CURVE",
"447 267 LINE",
"395 267 LINE",
"390 218 LINE SMOOTH",
"378 107 OFFCURVE",
"346 34 OFFCURVE",
"238 34 CURVE SMOOTH",
"125 34 OFFCURVE",
"103 105 OFFCURVE",
"116 225 CURVE SMOOTH",
"153 583 LINE SMOOTH",
"166 697 OFFCURVE",
"198 774 OFFCURVE",
"316 774 CURVE SMOOTH",
"422 774 OFFCURVE",
"441 706 OFFCURVE",
"430 591 CURVE SMOOTH",
"425 550 LINE",
"477 550 LINE",
"481 591 LINE SMOOTH",
"496 729 OFFCURVE",
"461 819 OFFCURVE",
"320 819 CURVE SMOOTH",
"165 819 OFFCURVE",
"112 716 OFFCURVE",
"98 577 CURVE SMOOTH",
"62 233 LINE SMOOTH",
"47 98 OFFCURVE",
"73 -11 OFFCURVE",
"233 -11 CURVE SMOOTH"
);
}
);
width = 489;
},
{
layerId = "BF03A18F-065F-4249-8E16-486B9CB494A0";
paths = (
{
closed = 1;
nodes = (
"459 -12 OFFCURVE",
"524 91 OFFCURVE",
"538 227 CURVE",
"545 298 LINE",
"354 298 LINE",
"344 208 LINE SMOOTH",
"340 170 OFFCURVE",
"334 123 OFFCURVE",
"287 123 CURVE SMOOTH",
"240 123 OFFCURVE",
"240 168 OFFCURVE",
"245 208 CURVE SMOOTH",
"286 602 LINE SMOOTH",
"290 640 OFFCURVE",
"298 687 OFFCURVE",
"346 687 CURVE SMOOTH",
"394 687 OFFCURVE",
"390 640 OFFCURVE",
"386 604 CURVE SMOOTH",
"376 516 LINE",
"568 516 LINE",
"576 588 LINE SMOOTH",
"590 723 OFFCURVE",
"546 822 OFFCURVE",
"360 822 CURVE SMOOTH",
"172 822 OFFCURVE",
"100 720 OFFCURVE",
"83 550 CURVE SMOOTH",
"52 259 LINE SMOOTH",
"34 91 OFFCURVE",
"84 -12 OFFCURVE",
"272 -12 CURVE SMOOTH"
);
}
);
width = 574;
},
{
layerId = "43161617-4660-4075-B14A-1D8E25AEE542";
paths = (
{
closed = 1;
nodes = (
"399 -9 OFFCURVE",
"454 92 OFFCURVE",
"469 240 CURVE",
"476 299 LINE",
"372 299 LINE",
"366 240 LINE SMOOTH",
"355 143 OFFCURVE",
"343 77 OFFCURVE",
"250 77 CURVE SMOOTH",
"170 77 OFFCURVE",
"148 119 OFFCURVE",
"161 241 CURVE SMOOTH",
"194 563 LINE SMOOTH",
"206 665 OFFCURVE",
"223 732 OFFCURVE",
"319 732 CURVE SMOOTH",
"415 732 OFFCURVE",
"411 669 OFFCURVE",
"401 578 CURVE SMOOTH",
"396 522 LINE",
"499 522 LINE",
"506 585 LINE SMOOTH",
"521 730 OFFCURVE",
"479 818 OFFCURVE",
"327 818 CURVE SMOOTH",
"157 818 OFFCURVE",
"100 711 OFFCURVE",
"83 548 CURVE SMOOTH",
"52 258 LINE SMOOTH",
"37 108 OFFCURVE",
"69 -9 OFFCURVE",
"240 -9 CURVE SMOOTH"
);
}
);
width = 513;
}
);
unicode = 0043;
userData = {
com.fontlab.hintData = {
hhints = (
{
position = -24;
width = 56;
},
{
position = 1623;
width = 55;
}
);
};
};
},
{
glyphname = D;
lastChange = "2016-08-02 10:36:59 +0000";
layers = (
{
layerId = "6D1B020D-7C4E-4885-9208-B35BA480FE8F";
paths = (
{
closed = 1;
nodes = (
"236 0 LINE SMOOTH",
"393 0 OFFCURVE",
"449 102 OFFCURVE",
"464 241 CURVE SMOOTH",
"499 577 LINE SMOOTH",
"513 707 OFFCURVE",
"478 810 OFFCURVE",
"316 810 CURVE SMOOTH",
"139 810 LINE",
"54 0 LINE"
);
},
{
closed = 1;
nodes = (
"189 766 LINE",
"312 766 LINE SMOOTH",
"436 766 OFFCURVE",
"456 691 OFFCURVE",
"444 573 CURVE SMOOTH",
"410 247 LINE SMOOTH",
"398 137 OFFCURVE",
"369 43 OFFCURVE",
"238 43 CURVE SMOOTH",
"113 43 LINE"
);
}
);
width = 517;
},
{
layerId = "BF03A18F-065F-4249-8E16-486B9CB494A0";
paths = (
{
closed = 1;
nodes = (
"247 0 LINE SMOOTH",
"465 0 OFFCURVE",
"534 74 OFFCURVE",
"554 260 CURVE SMOOTH",
"584 552 LINE SMOOTH",
"604 736 OFFCURVE",
"551 810 OFFCURVE",
"331 810 CURVE SMOOTH",
"119 810 LINE",
"34 0 LINE"
);
},
{
closed = 1;
nodes = (
"300 675 LINE",
"320 675 LINE SMOOTH",
"390 675 OFFCURVE",
"395 652 OFFCURVE",
"389 594 CURVE SMOOTH",
"349 219 LINE SMOOTH",
"342 160 OFFCURVE",
"334 135 OFFCURVE",
"264 135 CURVE SMOOTH",
"244 135 LINE"
);
}
);
width = 599;
},
{
layerId = "43161617-4660-4075-B14A-1D8E25AEE542";
paths = (
{
closed = 1;
nodes = (
"225 0 LINE SMOOTH",
"394 0 OFFCURVE",
"463 93 OFFCURVE",
"481 263 CURVE SMOOTH",
"513 563 LINE SMOOTH",
"530 726 OFFCURVE",
"480 810 OFFCURVE",
"301 810 CURVE SMOOTH",
"125 810 LINE",
"40 0 LINE"
);
},
{
closed = 1;
nodes = (
"226 729 LINE",
"291 729 LINE SMOOTH",
"408 729 OFFCURVE",
"414 675 OFFCURVE",
"401 551 CURVE SMOOTH",
"373 284 LINE SMOOTH",
"359 154 OFFCURVE",
"349 79 OFFCURVE",
"225 79 CURVE SMOOTH",
"158 79 LINE"
);
}
);
width = 526;
}
);
unicode = 0044;
userData = {
com.fontlab.hintData = {
hhints = (
{
position = 0;
width = 56;
},
{
position = 1602;
width = 56;
}
);
};
};
},
{
glyphname = Eth;
lastChange = "2016-08-02 10:36:59 +0000";
layers = (
{
layerId = "6D1B020D-7C4E-4885-9208-B35BA480FE8F";
paths = (
{
closed = 1;
nodes = (
"236 0 LINE SMOOTH",
"393 0 OFFCURVE",
"449 102 OFFCURVE",
"464 241 CURVE SMOOTH",
"499 577 LINE SMOOTH",
"513 707 OFFCURVE",
"478 810 OFFCURVE",
"316 810 CURVE SMOOTH",
"139 810 LINE",
"101 445 LINE",
"35 445 LINE",
"31 408 LINE",
"97 408 LINE",
"54 0 LINE"
);
},
{
closed = 1;
nodes = (
"152 408 LINE",
"245 408 LINE",
"249 445 LINE",
"155 445 LINE",
"189 766 LINE",
"312 766 LINE SMOOTH",
"436 766 OFFCURVE",
"456 691 OFFCURVE",
"444 573 CURVE SMOOTH",
"410 247 LINE SMOOTH",
"398 137 OFFCURVE",
"369 43 OFFCURVE",
"238 43 CURVE SMOOTH",
"113 43 LINE"
);
}
);
width = 561;
},
{
layerId = "BF03A18F-065F-4249-8E16-486B9CB494A0";
paths = (
{
closed = 1;
nodes = (
"237 0 LINE SMOOTH",
"456 0 OFFCURVE",
"524 74 OFFCURVE",
"544 260 CURVE SMOOTH",
"575 552 LINE SMOOTH",
"594 736 OFFCURVE",
"541 810 OFFCURVE",
"321 810 CURVE SMOOTH",
"109 810 LINE",
"73 461 LINE",
"30 461 LINE",
"20 366 LINE",
"63 366 LINE",
"24 0 LINE"
);
},
{
closed = 1;
nodes = (
"258 366 LINE",
"294 366 LINE",
"304 461 LINE",
"268 461 LINE",
"290 675 LINE",
"310 675 LINE SMOOTH",
"380 675 OFFCURVE",
"385 652 OFFCURVE",
"378 594 CURVE SMOOTH",
"339 219 LINE SMOOTH",
"333 160 OFFCURVE",
"324 135 OFFCURVE",
"253 135 CURVE SMOOTH",
"233 135 LINE"
);
}
);
width = 573;
},
{
layerId = "43161617-4660-4075-B14A-1D8E25AEE542";
paths = (
{
closed = 1;
nodes = (
"225 0 LINE SMOOTH",
"394 0 OFFCURVE",
"463 93 OFFCURVE",
"481 263 CURVE SMOOTH",
"513 563 LINE SMOOTH",
"530 726 OFFCURVE",
"480 810 OFFCURVE",
"301 810 CURVE SMOOTH",
"125 810 LINE",
"88 452 LINE",
"38 452 LINE",
"31 389 LINE",
"81 389 LINE",
"40 0 LINE"
);
},
{
closed = 1;
nodes = (
"190 389 LINE",
"253 389 LINE",
"260 452 LINE",
"197 452 LINE",
"226 729 LINE",
"291 729 LINE SMOOTH",
"408 729 OFFCURVE",
"414 675 OFFCURVE",
"401 551 CURVE SMOOTH",
"373 284 LINE SMOOTH",
"359 154 OFFCURVE",
"349 79 OFFCURVE",
"225 79 CURVE SMOOTH",
"158 79 LINE"
);
}
);
width = 521;
}
);
unicode = 00D0;
userData = {
com.fontlab.hintData = {
hhints = (
{
position = 0;
width = 56;
},
{
position = 1602;
width = 56;
}
);
};
};
},
{
glyphname = Dcroat;
lastChange = "2016-08-02 10:36:59 +0000";
layers = (
{
layerId = "6D1B020D-7C4E-4885-9208-B35BA480FE8F";
paths = (
{
closed = 1;
nodes = (
"237 0 LINE SMOOTH",
"393 0 OFFCURVE",
"450 102 OFFCURVE",
"465 241 CURVE SMOOTH",
"500 577 LINE SMOOTH",
"513 707 OFFCURVE",
"478 810 OFFCURVE",
"317 810 CURVE SMOOTH",
"139 810 LINE",
"101 445 LINE",
"36 445 LINE",
"32 408 LINE",
"98 408 LINE",
"54 0 LINE"
);
},
{
closed = 1;
nodes = (
"152 408 LINE",
"246 408 LINE",
"250 445 LINE",
"156 445 LINE",
"189 766 LINE",
"312 766 LINE SMOOTH",
"437 766 OFFCURVE",
"457 691 OFFCURVE",
"444 573 CURVE SMOOTH",
"410 247 LINE SMOOTH",
"398 137 OFFCURVE",
"370 43 OFFCURVE",
"239 43 CURVE SMOOTH",
"114 43 LINE"
);
}
);
width = 518;
},
{
layerId = "BF03A18F-065F-4249-8E16-486B9CB494A0";
paths = (
{
closed = 1;
nodes = (
"252 0 LINE SMOOTH",
"471 0 OFFCURVE",
"540 74 OFFCURVE",
"559 260 CURVE SMOOTH",
"589 552 LINE SMOOTH",
"609 736 OFFCURVE",
"556 810 OFFCURVE",
"336 810 CURVE SMOOTH",
"125 810 LINE",
"87 457 LINE",
"35 457 LINE",
"26 371 LINE",
"78 371 LINE",
"40 0 LINE"
);
},
{
closed = 1;
nodes = (
"268 371 LINE",
"314 371 LINE",
"323 457 LINE",
"277 457 LINE",
"300 675 LINE",
"330 675 LINE SMOOTH",
"399 675 OFFCURVE",
"404 652 OFFCURVE",
"398 594 CURVE SMOOTH",
"359 219 LINE SMOOTH",
"352 160 OFFCURVE",
"344 135 OFFCURVE",
"273 135 CURVE SMOOTH",
"243 135 LINE"
);
}
);
width = 604;
},
{
layerId = "43161617-4660-4075-B14A-1D8E25AEE542";
paths = (
{
closed = 1;
nodes = (
"227 0 LINE SMOOTH",
"396 0 OFFCURVE",
"466 93 OFFCURVE",
"483 263 CURVE SMOOTH",
"515 563 LINE SMOOTH",
"532 726 OFFCURVE",
"482 810 OFFCURVE",
"304 810 CURVE SMOOTH",
"127 810 LINE",
"90 452 LINE",
"40 452 LINE",
"33 389 LINE",
"83 389 LINE",
"42 0 LINE"
);
},
{
closed = 1;
nodes = (
"193 389 LINE",
"255 389 LINE",
"262 452 LINE",
"199 452 LINE",
"229 729 LINE",
"293 729 LINE SMOOTH",
"410 729 OFFCURVE",
"416 675 OFFCURVE",
"403 551 CURVE SMOOTH",
"375 284 LINE SMOOTH",
"362 154 OFFCURVE",
"351 79 OFFCURVE",
"227 79 CURVE SMOOTH",
"160 79 LINE"
);
}
);
width = 528;
}
);
unicode = 0110;
userData = {
com.fontlab.hintData = {
hhints = (
{
position = 0;
width = 56;
},
{
position = 1602;
width = 56;
}
);
};
};
},
{
glyphname = E;
lastChange = "2016-08-02 10:36:59 +0000";
layers = (
{
layerId = "6D1B020D-7C4E-4885-9208-B35BA480FE8F";
paths = (
{
closed = 1;
nodes = (
"336 0 LINE",
"341 43 LINE",
"113 43 LINE",
"150 399 LINE",
"335 399 LINE",
"339 441 LINE",
"154 441 LINE",
"188 766 LINE",
"414 766 LINE",
"418 810 LINE",
"138 810 LINE",
"53 0 LINE"
);
}
);
width = 393;
},
{
layerId = "BF03A18F-065F-4249-8E16-486B9CB494A0";
paths = (
{
closed = 1;
nodes = (
"413 0 LINE",
"427 130 LINE",
"243 130 LINE",
"267 359 LINE",
"403 359 LINE",
"417 495 LINE",
"281 495 LINE",
"300 678 LINE",
"482 678 LINE",
"496 810 LINE",
"119 810 LINE",
"34 0 LINE"
);
}
);
width = 458;
},
{
layerId = "43161617-4660-4075-B14A-1D8E25AEE542";
paths = (
{
closed = 1;
nodes = (
"354 0 LINE",
"363 79 LINE",
"158 79 LINE",
"189 379 LINE",
"354 379 LINE",
"362 458 LINE",
"197 458 LINE",
"226 729 LINE",
"428 729 LINE",
"437 810 LINE",
"125 810 LINE",
"40 0 LINE"
);
}
);
width = 406;
}
);
unicode = 0045;
},
{
glyphname = F;
lastChange = "2016-08-02 10:36:59 +0000";
layers = (
{
layerId = "6D1B020D-7C4E-4885-9208-B35BA480FE8F";
paths = (
{
closed = 1;
nodes = (
"108 0 LINE",
"151 399 LINE",
"344 399 LINE",
"349 441 LINE",
"155 441 LINE",
"189 767 LINE",
"414 767 LINE",
"418 810 LINE",
"139 810 LINE",
"54 0 LINE"
);
}
);
width = 383;
},
{
layerId = "BF03A18F-065F-4249-8E16-486B9CB494A0";
paths = (
{
closed = 1;
nodes = (
"229 0 LINE",
"267 355 LINE",
"414 355 LINE",
"428 490 LINE",
"281 490 LINE",
"300 679 LINE",
"466 679 LINE",
"479 810 LINE",
"119 810 LINE",
"34 0 LINE"
);
}
);
width = 445;
},
{
layerId = "43161617-4660-4075-B14A-1D8E25AEE542";
paths = (
{
closed = 1;
nodes = (
"149 0 LINE",
"189 380 LINE",
"347 380 LINE",
"355 458 LINE",
"198 458 LINE",
"227 731 LINE",
"428 731 LINE",
"436 810 LINE",
"125 810 LINE",
"40 0 LINE"
);
}
);
width = 390;
}
);
unicode = 0046;
},
{
glyphname = G;
lastChange = "2016-08-02 10:36:59 +0000";
layers = (
{
layerId = "6D1B020D-7C4E-4885-9208-B35BA480FE8F";
paths = (
{
closed = 1;
nodes = (
"315 -11 OFFCURVE",
"362 28 OFFCURVE",
"389 91 CURVE",
"387 0 LINE",
"423 0 LINE",
"463 386 LINE",
"283 386 LINE",
"279 344 LINE",
"407 344 LINE",
"395 225 LINE SMOOTH",
"382 106 OFFCURVE",
"346 34 OFFCURVE",
"239 34 CURVE SMOOTH",
"123 34 OFFCURVE",
"103 110 OFFCURVE",
"116 228 CURVE SMOOTH",
"153 581 LINE SMOOTH",
"165 694 OFFCURVE",
"197 774 OFFCURVE",
"316 774 CURVE SMOOTH",
"421 774 OFFCURVE",
"444 710 OFFCURVE",
"432 591 CURVE SMOOTH",
"428 560 LINE",
"479 560 LINE",
"482 588 LINE SMOOTH",
"498 730 OFFCURVE",
"461 819 OFFCURVE",
"320 819 CURVE SMOOTH",
"165 819 OFFCURVE",
"113 721 OFFCURVE",
"98 579 CURVE SMOOTH",
"62 235 LINE SMOOTH",
"46 92 OFFCURVE",
"76 -11 OFFCURVE",
"230 -11 CURVE SMOOTH"
);
}
);
width = 510;
},
{
layerId = "BF03A18F-065F-4249-8E16-486B9CB494A0";
paths = (
{
closed = 1;
nodes = (
"317 -13 OFFCURVE",
"358 19 OFFCURVE",
"382 61 CURVE",
"386 0 LINE",
"516 0 LINE",
"561 425 LINE",
"319 425 LINE",
"307 313 LINE",
"373 313 LINE",
"362 210 LINE SMOOTH",
"358 170 OFFCURVE",
"340 124 OFFCURVE",
"293 124 CURVE SMOOTH",
"246 124 OFFCURVE",
"241 170 OFFCURVE",
"245 209 CURVE SMOOTH",
"286 602 LINE SMOOTH",
"290 639 OFFCURVE",
"299 687 OFFCURVE",
"347 687 CURVE SMOOTH",
"395 687 OFFCURVE",
"391 641 OFFCURVE",
"387 604 CURVE SMOOTH",
"379 528 LINE",
"571 528 LINE",
"577 584 LINE SMOOTH",
"591 721 OFFCURVE",
"545 822 OFFCURVE",
"359 822 CURVE SMOOTH",
"171 822 OFFCURVE",
"98 711 OFFCURVE",
"80 541 CURVE SMOOTH",
"51 269 LINE SMOOTH",
"34 104 OFFCURVE",
"76 -13 OFFCURVE",
"248 -13 CURVE SMOOTH"
);
}
);
width = 590;
},
{
layerId = "43161617-4660-4075-B14A-1D8E25AEE542";
paths = (
{
closed = 1;
nodes = (
"312 -10 OFFCURVE",
"358 33 OFFCURVE",
"386 93 CURVE",
"387 0 LINE",
"456 0 LINE",
"498 400 LINE",
"295 400 LINE",
"286 323 LINE",
"391 323 LINE",
"384 262 LINE SMOOTH",
"372 140 OFFCURVE",
"343 77 OFFCURVE",
"253 77 CURVE SMOOTH",
"163 77 OFFCURVE",
"148 135 OFFCURVE",
"161 252 CURVE SMOOTH",
"193 555 LINE SMOOTH",
"204 657 OFFCURVE",
"219 732 OFFCURVE",
"319 732 CURVE SMOOTH",
"412 732 OFFCURVE",
"419 682 OFFCURVE",
"408 577 CURVE SMOOTH",
"406 551 LINE",
"508 551 LINE",
"511 581 LINE SMOOTH",
"528 741 OFFCURVE",
"478 818 OFFCURVE",
"327 818 CURVE SMOOTH",
"156 818 OFFCURVE",
"101 715 OFFCURVE",
"82 539 CURVE SMOOTH",
"53 264 LINE SMOOTH",
"35 91 OFFCURVE",
"79 -10 OFFCURVE",
"231 -10 CURVE SMOOTH"
);
}
);
width = 534;
}
);
unicode = 0047;
userData = {
com.fontlab.hintData = {
hhints = (
{
position = -24;
width = 56;
},
{
position = 1623;
width = 55;
}
);
vhints = (
{
position = 794;
width = 42;
}
);
};
};
},
{
glyphname = H;
lastChange = "2016-08-02 10:36:59 +0000";
layers = (
{
layerId = "6D1B020D-7C4E-4885-9208-B35BA480FE8F";
paths = (
{
closed = 1;
nodes = (
"108 0 LINE",
"151 403 LINE",
"434 403 LINE",
"392 0 LINE",
"446 0 LINE",
"531 810 LINE",
"477 810 LINE",
"438 445 LINE",
"155 445 LINE",
"193 810 LINE",
"138 810 LINE",
"53 0 LINE"
);
}
);
width = 542;
},
{
associatedMasterId = "6D1B020D-7C4E-4885-9208-B35BA480FE8F";
layerId = "484FBAF3-A96A-426E-95D2-5396C8C22022";
name = b;
width = 534;
},
{
layerId = "BF03A18F-065F-4249-8E16-486B9CB494A0";
paths = (
{
closed = 1;
nodes = (
"229 0 LINE",
"266 349 LINE",
"373 349 LINE",
"336 0 LINE",
"531 0 LINE",
"616 810 LINE",
"421 810 LINE",
"387 488 LINE",
"281 488 LINE",
"314 810 LINE",
"119 810 LINE",
"34 0 LINE"
);
}
);
width = 614;
},
{
layerId = "43161617-4660-4075-B14A-1D8E25AEE542";
paths = (
{
closed = 1;
nodes = (
"149 0 LINE",
"189 381 LINE",
"402 381 LINE",
"362 0 LINE",
"472 0 LINE",
"557 810 LINE",
"447 810 LINE",
"411 459 LINE",
"198 459 LINE",
"234 810 LINE",
"125 810 LINE",
"40 0 LINE"
);
}
);
width = 559;
}
);
unicode = 0048;
userData = {
com.typemytype.robofont.layerData = {
b = {
anchors = (
);
components = (
);
contours = (
);
lib = {
};
name = H;
unicodes = (
);
width = 1093;
};
};
};
},
{
glyphname = Hbar;
lastChange = "2016-08-02 10:36:59 +0000";
layers = (
{
layerId = "6D1B020D-7C4E-4885-9208-B35BA480FE8F";
paths = (
{
closed = 1;
nodes = (
"108 0 LINE",
"151 403 LINE",
"434 403 LINE",
"392 0 LINE",
"446 0 LINE",
"514 640 LINE",
"551 640 LINE",
"555 672 LINE",
"517 672 LINE",
"531 810 LINE",
"477 810 LINE",
"462 672 LINE",
"179 672 LINE",
"193 810 LINE",
"138 810 LINE",
"124 672 LINE",
"87 672 LINE",
"83 640 LINE",
"121 640 LINE",
"53 0 LINE"
);
},
{
closed = 1;
nodes = (
"176 640 LINE",
"459 640 LINE",
"438 445 LINE",
"155 445 LINE"
);
}
);
width = 542;
},
{
layerId = "BF03A18F-065F-4249-8E16-486B9CB494A0";
paths = (
{
closed = 1;
nodes = (
"202 0 LINE",
"239 349 LINE",
"335 349 LINE",
"298 0 LINE",
"493 0 LINE",
"558 614 LINE",
"595 614 LINE",
"601 669 LINE",
"563 669 LINE",
"578 810 LINE",
"383 810 LINE",
"369 669 LINE",
"272 669 LINE",
"287 810 LINE",
"92 810 LINE",
"78 669 LINE",
"26 669 LINE",
"21 614 LINE",
"72 614 LINE",
"7 0 LINE"
);
},
{
closed = 1;
nodes = (
"267 614 LINE",
"363 614 LINE",
"350 488 LINE",
"254 488 LINE"
);
}
);
width = 536;
},
{
layerId = "43161617-4660-4075-B14A-1D8E25AEE542";
paths = (
{
closed = 1;
nodes = (
"149 0 LINE",
"189 381 LINE",
"402 381 LINE",
"362 0 LINE",
"472 0 LINE",
"537 620 LINE",
"583 620 LINE",
"589 677 LINE",
"543 677 LINE",
"557 810 LINE",
"447 810 LINE",
"434 677 LINE",
"221 677 LINE",
"234 810 LINE",
"125 810 LINE",
"111 677 LINE",
"65 677 LINE",
"59 620 LINE",
"105 620 LINE",
"40 0 LINE"
);
},
{
closed = 1;
nodes = (
"214 620 LINE",
"427 620 LINE",
"411 459 LINE",
"198 459 LINE"
);
}
);
width = 559;
}
);
unicode = 0126;
},
{
glyphname = I;
lastChange = "2016-08-02 10:36:59 +0000";
layers = (
{
layerId = "6D1B020D-7C4E-4885-9208-B35BA480FE8F";
paths = (
{
closed = 1;
nodes = (
"109 0 LINE",
"194 810 LINE",
"140 810 LINE",
"55 0 LINE"
);
}
);
width = 206;
},
{
layerId = "BF03A18F-065F-4249-8E16-486B9CB494A0";
paths = (
{
closed = 1;
nodes = (
"229 0 LINE",
"314 810 LINE",
"120 810 LINE",
"35 0 LINE"
);
}
);
width = 313;
},
{
layerId = "43161617-4660-4075-B14A-1D8E25AEE542";
paths = (
{
closed = 1;
nodes = (
"153 0 LINE",
"238 810 LINE",
"131 810 LINE",
"46 0 LINE"
);
}
);
width = 245;
}
);
unicode = 0049;
userData = {
com.fontlab.hintData = {
vhints = (
{
position = 48;
width = 412;
}
);
};
};
},
{
glyphname = J;
lastChange = "2016-08-02 10:36:59 +0000";
layers = (
{
layerId = "6D1B020D-7C4E-4885-9208-B35BA480FE8F";
paths = (
{
closed = 1;
nodes = (
"11 -45 LINE SMOOTH",
"147 -45 OFFCURVE",
"171 14 OFFCURVE",
"185 144 CURVE",
"254 810 LINE",
"200 810 LINE",
"130 150 LINE SMOOTH",
"117 21 OFFCURVE",
"106 -2 OFFCURVE",
"-13 -2 CURVE",
"-18 -45 LINE"
);
}
);
width = 265;
},
{
layerId = "BF03A18F-065F-4249-8E16-486B9CB494A0";
paths = (
{
closed = 1;
nodes = (
"82 -21 LINE SMOOTH",
"231 -21 OFFCURVE",
"278 46 OFFCURVE",
"295 178 CURVE",
"362 810 LINE",
"167 810 LINE",
"102 187 LINE SMOOTH",
"95 125 OFFCURVE",
"68 113 OFFCURVE",
"1 114 CURVE",
"-13 -21 LINE"
);
}
);
width = 360;
},
{
layerId = "43161617-4660-4075-B14A-1D8E25AEE542";
paths = (
{
closed = 1;
nodes = (
"33 -21 LINE SMOOTH",
"173 -21 OFFCURVE",
"215 42 OFFCURVE",
"230 180 CURVE",
"295 810 LINE",
"186 810 LINE",
"121 183 LINE SMOOTH",
"110 79 OFFCURVE",
"88 58 OFFCURVE",
"-11 58 CURVE",
"-19 -21 LINE"
);
}
);
width = 299;
}
);
unicode = 004A;
userData = {
com.fontlab.hintData = {
hhints = (
{
position = -114;
width = 56;
}
);
};
};
},
{
glyphname = K;
lastChange = "2016-08-02 10:36:59 +0000";
layers = (
{
layerId = "6D1B020D-7C4E-4885-9208-B35BA480FE8F";
paths = (
{
closed = 1;
nodes = (
"108 0 LINE",
"139 290 LINE",
"232 434 LINE",
"384 0 LINE",
"438 0 LINE",
"275 467 LINE",
"482 810 LINE",
"428 810 LINE",
"146 355 LINE",
"193 810 LINE",
"138 810 LINE",
"53 0 LINE"
);
}
);
width = 460;
},
{
layerId = "BF03A18F-065F-4249-8E16-486B9CB494A0";
paths = (
{
closed = 1;
nodes = (
"229 0 LINE",
"265 337 LINE",
"278 353 LINE",
"348 0 LINE",
"549 0 LINE",
"445 442 LINE",
"631 810 LINE",
"439 810 LINE",
"281 492 LINE",
"314 810 LINE",
"119 810 LINE",
"34 0 LINE"
);
}
);
width = 583;
},
{
layerId = "43161617-4660-4075-B14A-1D8E25AEE542";
paths = (
{
closed = 1;
nodes = (
"149 0 LINE",
"183 317 LINE",
"238 403 LINE",
"360 0 LINE",
"467 0 LINE",
"327 454 LINE",
"525 810 LINE",
"423 810 LINE",
"194 424 LINE",
"234 810 LINE",
"125 810 LINE",
"40 0 LINE"
);
}
);
width = 493;
}
);
unicode = 004B;
},
{
glyphname = L;
lastChange = "2016-08-02 10:36:59 +0000";
layers = (
{
layerId = "6D1B020D-7C4E-4885-9208-B35BA480FE8F";
paths = (
{
closed = 1;
nodes = (
"353 0 LINE",
"357 43 LINE",
"113 43 LINE",
"193 810 LINE",
"139 810 LINE",
"54 0 LINE"
);
}
);
width = 373;
},
{
layerId = "BF03A18F-065F-4249-8E16-486B9CB494A0";
paths = (
{
closed = 1;
nodes = (
"410 0 LINE",
"424 130 LINE",
"243 130 LINE",
"314 810 LINE",
"119 810 LINE",
"34 0 LINE"
);
}
);
width = 449;
},
{
layerId = "43161617-4660-4075-B14A-1D8E25AEE542";
paths = (
{
closed = 1;
nodes = (
"358 0 LINE",
"367 79 LINE",
"158 79 LINE",
"234 810 LINE",
"125 810 LINE",
"40 0 LINE"
);
}
);
width = 396;
}
);
unicode = 004C;
},
{
glyphname = Lslash;
lastChange = "2016-08-02 10:36:59 +0000";
layers = (
{
layerId = "6D1B020D-7C4E-4885-9208-B35BA480FE8F";
paths = (
{
closed = 1;
nodes = (
"353 0 LINE",
"357 43 LINE",
"113 43 LINE",
"155 437 LINE",
"283 500 LINE",
"288 544 LINE",
"159 481 LINE",
"193 810 LINE",
"139 810 LINE",
"101 452 LINE",
"26 415 LINE",
"21 371 LINE",
"96 408 LINE",
"54 0 LINE"
);
}
);
width = 373;
},
{
layerId = "BF03A18F-065F-4249-8E16-486B9CB494A0";
paths = (
{
closed = 1;
nodes = (
"420 0 LINE",
"434 130 LINE",
"253 130 LINE",
"286 443 LINE",
"388 488 LINE",
"398 588 LINE",
"296 543 LINE",
"324 810 LINE",
"129 810 LINE",
"92 455 LINE",
"32 428 LINE",
"21 327 LINE",
"82 354 LINE",
"44 0 LINE"
);
}
);
width = 463;
},
{
layerId = "43161617-4660-4075-B14A-1D8E25AEE542";
paths = (
{
closed = 1;
nodes = (
"358 0 LINE",
"367 79 LINE",
"158 79 LINE",
"196 440 LINE",
"308 498 LINE",
"317 582 LINE",
"205 524 LINE",
"234 810 LINE",
"125 810 LINE",
"89 463 LINE",
"16 425 LINE",
"7 341 LINE",
"80 379 LINE",
"40 0 LINE"
);
}
);
width = 396;
}
);
unicode = 0141;
},
{
glyphname = M;
lastChange = "2016-08-02 10:36:59 +0000";
layers = (
{
layerId = "6D1B020D-7C4E-4885-9208-B35BA480FE8F";
paths = (
{
closed = 1;
nodes = (
"91 0 LINE",
"183 678 LINE",
"274 0 LINE",
"314 0 LINE",
"551 679 LINE",
"499 0 LINE",
"546 0 LINE",
"608 810 LINE",
"552 810 LINE",
"302 79 LINE",
"207 810 LINE",
"153 810 LINE",
"44 0 LINE"
);
}
);
width = 632;
},
{
layerId = "BF03A18F-065F-4249-8E16-486B9CB494A0";
paths = (
{
closed = 1;
nodes = (
"168 0 LINE",
"238 532 LINE",
"272 0 LINE",
"396 0 LINE",
"537 527 LINE",
"496 0 LINE",
"633 0 LINE",
"704 810 LINE",
"501 810 LINE",
"372 383 LINE",
"340 810 LINE",
"128 810 LINE",
"30 0 LINE"
);
}
);
width = 711;
},
{
layerId = "43161617-4660-4075-B14A-1D8E25AEE542";
paths = (
{
closed = 1;
nodes = (
"127 0 LINE",
"199 594 LINE",
"274 0 LINE",
"336 0 LINE",
"538 594 LINE",
"485 0 LINE",
"573 0 LINE",
"643 810 LINE",
"536 810 LINE",
"320 148 LINE",
"245 810 LINE",
"138 810 LINE",
"38 0 LINE"
);
}
);
width = 658;
}
);
unicode = 004D;
userData = {
com.fontlab.hintData = {
vhints = (
{
position = 36;
width = 290;
},
{
position = 63;
width = 291;
},
{
position = 962;
width = 291;
},
{
position = 994;
width = 286;
}
);
};
};
},
{
glyphname = N;
lastChange = "2016-08-02 10:36:59 +0000";
layers = (
{
layerId = "6D1B020D-7C4E-4885-9208-B35BA480FE8F";
paths = (
{
closed = 1;
nodes = (
"102 0 LINE",
"174 685 LINE",
"377 0 LINE",
"420 0 LINE",
"505 810 LINE",
"457 810 LINE",
"385 126 LINE",
"183 810 LINE",
"139 810 LINE",
"54 0 LINE"
);
}
);
width = 515;
},
{
layerId = "BF03A18F-065F-4249-8E16-486B9CB494A0";
paths = (
{
closed = 1;
nodes = (
"202 0 LINE",
"243 387 LINE",
"352 0 LINE",
"485 0 LINE",
"570 810 LINE",
"408 810 LINE",
"371 456 LINE",
"257 810 LINE",
"119 810 LINE",
"34 0 LINE"
);
}
);
width = 568;
},
{
layerId = "43161617-4660-4075-B14A-1D8E25AEE542";
paths = (
{
closed = 1;
nodes = (
"132 0 LINE",
"192 562 LINE",
"369 0 LINE",
"439 0 LINE",
"524 810 LINE",
"433 810 LINE",
"375 263 LINE",
"200 810 LINE",
"125 810 LINE",
"40 0 LINE"
);
}
);
width = 527;
}
);
unicode = 004E;
},
{
glyphname = Eng;
lastChange = "2016-08-02 10:36:59 +0000";
layers = (
{
layerId = "6D1B020D-7C4E-4885-9208-B35BA480FE8F";
paths = (
{
closed = 1;
nodes = (
"281 -141 LINE SMOOTH",
"381 -141 OFFCURVE",
"411 -92 OFFCURVE",
"420 0 CURVE SMOOTH",
"505 810 LINE",
"458 810 LINE",
"387 126 LINE",
"183 810 LINE",
"139 810 LINE",
"54 0 LINE",
"101 0 LINE",
"172 685 LINE",
"374 12 LINE",
"371 -14 LINE SMOOTH",
"364 -81 OFFCURVE",
"343 -104 OFFCURVE",
"254 -103 CURVE",
"250 -141 LINE"
);
}
);
width = 538;
},
{
layerId = "BF03A18F-065F-4249-8E16-486B9CB494A0";
paths = (
{
closed = 1;
nodes = (
"275 -215 LINE SMOOTH",
"430 -215 OFFCURVE",
"474 -141 OFFCURVE",
"489 0 CURVE SMOOTH",
"574 810 LINE",
"414 810 LINE",
"376 456 LINE",
"262 810 LINE",
"124 810 LINE",
"39 0 LINE",
"206 0 LINE",
"247 387 LINE",
"347 84 LINE",
"335 -21 LINE SMOOTH",
"329 -81 OFFCURVE",
"292 -103 OFFCURVE",
"205 -102 CURVE",
"193 -215 LINE"
);
}
);
width = 577;
},
{
layerId = "43161617-4660-4075-B14A-1D8E25AEE542";
paths = (
{
closed = 1;
nodes = (
"263 -181 LINE SMOOTH",
"390 -181 OFFCURVE",
"427 -118 OFFCURVE",
"439 0 CURVE SMOOTH",
"524 810 LINE",
"438 810 LINE",
"381 263 LINE",
"200 810 LINE",
"125 810 LINE",
"40 0 LINE",
"127 0 LINE",
"186 562 LINE",
"356 41 LINE",
"353 8 LINE SMOOTH",
"344 -78 OFFCURVE",
"333 -106 OFFCURVE",
"233 -106 CURVE",
"225 -181 LINE"
);
}
);
width = 531;
}
);
unicode = 014A;
userData = {
com.fontlab.hintData = {
hhints = (
{
position = -252;
width = 45;
}
);
};
};
},
{
glyphname = O;
lastChange = "2016-08-02 10:36:59 +0000";
layers = (
{
layerId = "6D1B020D-7C4E-4885-9208-B35BA480FE8F";
paths = (
{
closed = 1;
nodes = (
"393 -11 OFFCURVE",
"446 91 OFFCURVE",
"461 229 CURVE SMOOTH",
"499 584 LINE SMOOTH",
"513 721 OFFCURVE",
"476 819 OFFCURVE",
"323 819 CURVE SMOOTH",
"169 819 OFFCURVE",
"113 722 OFFCURVE",
"99 584 CURVE SMOOTH",
"61 230 LINE SMOOTH",
"47 92 OFFCURVE",
"77 -11 OFFCURVE",
"236 -11 CURVE SMOOTH"
);
},
{
closed = 1;
nodes = (
"124 34 OFFCURVE",
"104 108 OFFCURVE",
"115 218 CURVE SMOOTH",
"154 592 LINE SMOOTH",
"166 702 OFFCURVE",
"202 774 OFFCURVE",
"318 774 CURVE SMOOTH",
"435 774 OFFCURVE",
"456 702 OFFCURVE",
"444 592 CURVE SMOOTH",
"405 218 LINE SMOOTH",
"394 108 OFFCURVE",
"356 34 OFFCURVE",
"240 34 CURVE SMOOTH"
);
}
);
width = 516;
},
{
layerId = "BF03A18F-065F-4249-8E16-486B9CB494A0";
paths = (
{
closed = 1;
nodes = (
"458 -12 OFFCURVE",
"533 86 OFFCURVE",
"551 255 CURVE SMOOTH",
"582 554 LINE SMOOTH",
"600 723 OFFCURVE",
"546 822 OFFCURVE",
"359 822 CURVE SMOOTH",
"172 822 OFFCURVE",
"101 724 OFFCURVE",
"83 554 CURVE SMOOTH",
"51 255 LINE SMOOTH",
"33 86 OFFCURVE",
"84 -12 OFFCURVE",
"271 -12 CURVE SMOOTH"
);
},
{
closed = 1;
nodes = (
"239 123 OFFCURVE",
"242 169 OFFCURVE",
"246 206 CURVE SMOOTH",
"288 604 LINE SMOOTH",
"292 641 OFFCURVE",
"298 687 OFFCURVE",
"345 687 CURVE SMOOTH",
"393 687 OFFCURVE",
"391 641 OFFCURVE",
"387 604 CURVE SMOOTH",
"345 206 LINE SMOOTH",
"341 169 OFFCURVE",
"333 123 OFFCURVE",
"286 123 CURVE SMOOTH"
);
}
);
width = 597;
},
{
layerId = "43161617-4660-4075-B14A-1D8E25AEE542";
paths = (
{
closed = 1;
nodes = (
"407 -9 OFFCURVE",
"475 94 OFFCURVE",
"491 252 CURVE SMOOTH",
"524 562 LINE SMOOTH",
"541 720 OFFCURVE",
"494 818 OFFCURVE",
"331 818 CURVE SMOOTH",
"168 818 OFFCURVE",
"101 721 OFFCURVE",
"84 562 CURVE SMOOTH",
"52 252 LINE SMOOTH",
"35 93 OFFCURVE",
"80 -9 OFFCURVE",
"244 -9 CURVE SMOOTH"
);
},
{
closed = 1;
nodes = (
"161 77 OFFCURVE",
"150 137 OFFCURVE",
"160 229 CURVE SMOOTH",
"197 584 LINE SMOOTH",
"207 676 OFFCURVE",
"230 732 OFFCURVE",
"322 732 CURVE SMOOTH",
"415 732 OFFCURVE",
"426 675 OFFCURVE",
"416 584 CURVE SMOOTH",
"379 229 LINE SMOOTH",
"369 137 OFFCURVE",
"346 77 OFFCURVE",
"253 77 CURVE SMOOTH"
);
}
);
width = 538;
}
);
unicode = 004F;
userData = {
com.fontlab.hintData = {
hhints = (
{
position = -24;
width = 56;
},
{
position = 1623;
width = 55;
}
);
};
};
},
{
glyphname = Oslash;
lastChange = "2016-08-02 10:36:59 +0000";
layers = (
{
components = (
{
name = O;
}
);
layerId = "6D1B020D-7C4E-4885-9208-B35BA480FE8F";
paths = (
{
closed = 1;
nodes = (
"479 889 LINE",
"455 896 LINE",
"68 -87 LINE",
"92 -95 LINE"
);
}
);
width = 523;
},
{
components = (
{
name = O;
transform = "{1, 0, 0, 1, 70, 0}";
}
);
layerId = "BF03A18F-065F-4249-8E16-486B9CB494A0";
paths = (
{
closed = 1;
nodes = (
"560 869 LINE",
"523 885 LINE",
"37 -77 LINE",
"74 -94 LINE"
);
}
);
width = 579;
},
{
components = (
{
name = O;
}
);
layerId = "43161617-4660-4075-B14A-1D8E25AEE542";
paths = (
{
closed = 1;
nodes = (
"459 872 LINE",
"422 881 LINE",
"69 -63 LINE",
"105 -75 LINE"
);
}
);
width = 539;
}
);
unicode = 00D8;
userData = {
com.fontlab.hintData = {
hhints = (
{
position = -24;
width = 56;
},
{
position = 1623;
width = 55;
}
);
};
};
},
{
glyphname = OE;
lastChange = "2016-08-02 10:36:59 +0000";
layers = (
{
layerId = "6D1B020D-7C4E-4885-9208-B35BA480FE8F";
paths = (
{
closed = 1;
nodes = (
"569 0 LINE",
"574 45 LINE",
"376 45 LINE",
"414 402 LINE",
"579 402 LINE",
"583 445 LINE",
"418 445 LINE",
"452 765 LINE",
"649 765 LINE",
"654 810 LINE",
"328 810 LINE",
"173 810 OFFCURVE",
"112 714 OFFCURVE",
"98 577 CURVE SMOOTH",
"61 229 LINE SMOOTH",
"47 98 OFFCURVE",
"83 0 OFFCURVE",
"246 0 CURVE SMOOTH"
);
},
{
closed = 1;
nodes = (
"128 46 OFFCURVE",
"104 117 OFFCURVE",
"116 229 CURVE SMOOTH",
"152 574 LINE SMOOTH",
"165 690 OFFCURVE",
"201 765 OFFCURVE",
"326 765 CURVE SMOOTH",
"398 765 LINE",
"322 46 LINE",
"251 46 LINE"
);
}
);
width = 620;
},
{
layerId = "BF03A18F-065F-4249-8E16-486B9CB494A0";
paths = (
{
closed = 1;
nodes = (
"676 0 LINE",
"690 130 LINE",
"528 130 LINE",
"552 350 LINE",
"667 350 LINE",
"681 486 LINE",
"566 486 LINE",
"586 675 LINE",
"747 675 LINE",
"761 806 LINE",
"356 806 LINE",
"168 806 OFFCURVE",
"95 676 OFFCURVE",
"78 513 CURVE SMOOTH",
"54 286 LINE SMOOTH",
"36 115 OFFCURVE",
"87 0 OFFCURVE",
"272 0 CURVE SMOOTH"
);
},
{
closed = 1;
nodes = (
"236 132 OFFCURVE",
"240 197 OFFCURVE",
"244 240 CURVE SMOOTH",
"278 558 LINE SMOOTH",
"282 601 OFFCURVE",
"292 668 OFFCURVE",
"343 668 CURVE SMOOTH",
"391 668 LINE",
"334 133 LINE",
"287 133 LINE"
);
}
);
width = 726;
},
{
layerId = "43161617-4660-4075-B14A-1D8E25AEE542";
paths = (
{
closed = 1;
nodes = (
"628 0 LINE",
"636 79 LINE",
"438 79 LINE",
"469 380 LINE",
"630 380 LINE",
"638 458 LINE",
"477 458 LINE",
"505 728 LINE",
"703 728 LINE",
"711 810 LINE",
"340 810 LINE",
"171 810 OFFCURVE",
"101 717 OFFCURVE",
"83 548 CURVE SMOOTH",
"51 246 LINE SMOOTH",
"34 83 OFFCURVE",
"83 0 OFFCURVE",
"263 0 CURVE SMOOTH"
);
},
{
closed = 1;
nodes = (
"157 82 OFFCURVE",
"149 135 OFFCURVE",
"163 257 CURVE SMOOTH",
"191 528 LINE SMOOTH",
"205 659 OFFCURVE",
"217 731 OFFCURVE",
"340 731 CURVE SMOOTH",
"397 731 LINE",
"328 82 LINE",
"273 82 LINE"
);
}
);
width = 679;
}
);
unicode = 0152;
userData = {
com.fontlab.hintData = {
hhints = (
{
position = 0;
width = 62;
},
{
position = 1598;
width = 60;
}
);
};
};
},
{
glyphname = P;
lastChange = "2016-08-02 10:36:59 +0000";
layers = (
{
layerId = "6D1B020D-7C4E-4885-9208-B35BA480FE8F";
paths = (
{
closed = 1;
nodes = (
"108 0 LINE",
"149 387 LINE",
"286 387 LINE SMOOTH",
"430 387 OFFCURVE",
"484 493 OFFCURVE",
"496 601 CURVE SMOOTH",
"508 721 OFFCURVE",
"475 810 OFFCURVE",
"329 810 CURVE SMOOTH",
"139 810 LINE",
"54 0 LINE"
);
},
{
closed = 1;
nodes = (
"189 768 LINE",
"315 768 LINE SMOOTH",
"419 768 OFFCURVE",
"454 731 OFFCURVE",
"440 601 CURVE SMOOTH",
"427 475 OFFCURVE",
"376 429 OFFCURVE",
"278 429 CURVE SMOOTH",
"154 429 LINE"
);
}
);
width = 485;
},
{
layerId = "BF03A18F-065F-4249-8E16-486B9CB494A0";
paths = (
{
closed = 1;
nodes = (
"229 0 LINE",
"265 336 LINE",
"333 336 LINE SMOOTH",
"463 336 OFFCURVE",
"579 371 OFFCURVE",
"601 572 CURVE SMOOTH",
"617 725 OFFCURVE",
"554 810 OFFCURVE",
"408 810 CURVE SMOOTH",
"119 810 LINE",
"34 0 LINE"
);
},
{
closed = 1;
nodes = (
"300 673 LINE",
"360 673 LINE SMOOTH",
"423 673 OFFCURVE",
"423 625 OFFCURVE",
"418 576 CURVE SMOOTH",
"411 509 OFFCURVE",
"400 471 OFFCURVE",
"341 471 CURVE SMOOTH",
"279 471 LINE"
);
}
);
width = 588;
},
{
layerId = "43161617-4660-4075-B14A-1D8E25AEE542";
paths = (
{
closed = 1;
nodes = (
"149 0 LINE",
"189 377 LINE",
"281 377 LINE SMOOTH",
"414 377 OFFCURVE",
"488 459 OFFCURVE",
"502 587 CURVE SMOOTH",
"517 727 OFFCURVE",
"470 810 OFFCURVE",
"326 810 CURVE SMOOTH",
"125 810 LINE",
"40 0 LINE"
);
},
{
closed = 1;
nodes = (
"227 731 LINE",
"284 731 LINE SMOOTH",
"397 731 OFFCURVE",
"410 702 OFFCURVE",
"397 586 CURVE SMOOTH",
"387 484 OFFCURVE",
"351 456 OFFCURVE",
"253 456 CURVE SMOOTH",
"198 456 LINE"
);
}
);
width = 480;
}
);
unicode = 0050;
userData = {
com.fontlab.hintData = {
hhints = (
{
position = 800;
width = 55;
},
{
position = 1604;
width = 54;
}
);
};
};
},
{
glyphname = Thorn;
lastChange = "2016-08-02 10:36:59 +0000";
layers = (
{
layerId = "6D1B020D-7C4E-4885-9208-B35BA480FE8F";
paths = (
{
closed = 1;
nodes = (
"108 0 LINE",
"135 250 LINE",
"281 250 LINE SMOOTH",
"441 250 OFFCURVE",
"491 379 OFFCURVE",
"502 485 CURVE SMOOTH",
"515 602 OFFCURVE",
"478 706 OFFCURVE",
"334 706 CURVE SMOOTH",
"183 706 LINE",
"193 810 LINE",
"139 810 LINE",
"54 0 LINE"
);
},
{
closed = 1;
nodes = (
"178 659 LINE",
"321 659 LINE SMOOTH",
"408 659 OFFCURVE",
"459 610 OFFCURVE",
"445 483 CURVE SMOOTH",
"432 353 OFFCURVE",
"378 298 OFFCURVE",
"278 298 CURVE SMOOTH",
"140 298 LINE"
);
}
);
width = 505;
},
{
layerId = "BF03A18F-065F-4249-8E16-486B9CB494A0";
paths = (
{
closed = 1;
nodes = (
"219 0 LINE",
"244 233 LINE",
"305 234 LINE SMOOTH",
"480 235 OFFCURVE",
"566 277 OFFCURVE",
"588 479 CURVE SMOOTH",
"605 645 OFFCURVE",
"528 701 OFFCURVE",
"361 701 CURVE SMOOTH",
"293 701 LINE",
"304 810 LINE",
"109 810 LINE",
"24 0 LINE"
);
},
{
closed = 1;
nodes = (
"279 564 LINE",
"335 564 LINE SMOOTH",
"398 564 OFFCURVE",
"417 532 OFFCURVE",
"410 468 CURVE SMOOTH",
"403 398 OFFCURVE",
"377 370 OFFCURVE",
"312 370 CURVE SMOOTH",
"258 370 LINE"
);
}
);
width = 576;
},
{
layerId = "43161617-4660-4075-B14A-1D8E25AEE542";
paths = (
{
closed = 1;
nodes = (
"149 0 LINE",
"174 234 LINE",
"275 234 LINE SMOOTH",
"421 234 OFFCURVE",
"495 321 OFFCURVE",
"510 470 CURVE SMOOTH",
"525 611 OFFCURVE",
"478 704 OFFCURVE",
"342 704 CURVE SMOOTH",
"224 704 LINE",
"234 810 LINE",
"125 810 LINE",
"40 0 LINE"
);
},
{
closed = 1;
nodes = (
"214 613 LINE",
"301 613 LINE SMOOTH",
"385 613 OFFCURVE",
"415 576 OFFCURVE",
"404 470 CURVE SMOOTH",
"392 356 OFFCURVE",
"348 322 OFFCURVE",
"258 322 CURVE SMOOTH",
"184 322 LINE"
);
}
);
width = 503;
}
);
unicode = 00DE;
userData = {
com.fontlab.hintData = {
hhints = (
{
position = 528;
width = 60;
},
{
position = 1389;
width = 59;
}
);
};
};
},
{
glyphname = Q;
lastChange = "2016-08-02 10:36:59 +0000";
layers = (
{
layerId = "6D1B020D-7C4E-4885-9208-B35BA480FE8F";
paths = (
{
closed = 1;
nodes = (
"421 -126 LINE",
"396 -104 OFFCURVE",
"334 -36 OFFCURVE",
"312 -1 CURVE",
"416 25 OFFCURVE",
"456 115 OFFCURVE",
"468 229 CURVE SMOOTH",
"506 584 LINE SMOOTH",
"520 721 OFFCURVE",
"480 819 OFFCURVE",
"327 819 CURVE SMOOTH",
"173 819 OFFCURVE",
"113 722 OFFCURVE",
"99 584 CURVE SMOOTH",
"61 230 LINE SMOOTH",
"47 92 OFFCURVE",
"81 -11 OFFCURVE",
"239 -11 CURVE SMOOTH",
"250 -11 OFFCURVE",
"259 -10 OFFCURVE",
"269 -10 CURVE",
"303 -65 OFFCURVE",
"357 -128 OFFCURVE",
"390 -155 CURVE"
);
},
{
closed = 1;
nodes = (
"127 34 OFFCURVE",
"104 108 OFFCURVE",
"115 218 CURVE SMOOTH",
"154 592 LINE SMOOTH",
"166 702 OFFCURVE",
"206 774 OFFCURVE",
"322 774 CURVE SMOOTH",
"438 774 OFFCURVE",
"463 702 OFFCURVE",
"451 592 CURVE SMOOTH",
"412 218 LINE SMOOTH",
"400 108 OFFCURVE",
"360 34 OFFCURVE",
"244 34 CURVE SMOOTH"
);
}
);
width = 523;
},
{
associatedMasterId = "6D1B020D-7C4E-4885-9208-B35BA480FE8F";
layerId = "DEB91395-C8F1-45AF-93FF-A048D9D4D129";
name = b;
width = 517;
},
{
layerId = "BF03A18F-065F-4249-8E16-486B9CB494A0";
paths = (
{
closed = 1;
nodes = (
"514 -74 LINE",
"488 -55 OFFCURVE",
"445 -14 OFFCURVE",
"422 19 CURVE",
"501 61 OFFCURVE",
"539 143 OFFCURVE",
"551 255 CURVE SMOOTH",
"582 554 LINE SMOOTH",
"600 723 OFFCURVE",
"546 822 OFFCURVE",
"359 822 CURVE SMOOTH",
"172 822 OFFCURVE",
"101 724 OFFCURVE",
"83 554 CURVE SMOOTH",
"51 255 LINE SMOOTH",
"33 86 OFFCURVE",
"84 -12 OFFCURVE",
"271 -12 CURVE SMOOTH",
"277 -12 OFFCURVE",
"283 -12 OFFCURVE",
"288 -12 CURVE",
"325 -79 OFFCURVE",
"399 -150 OFFCURVE",
"439 -167 CURVE"
);
},
{
closed = 1;
nodes = (
"239 123 OFFCURVE",
"242 169 OFFCURVE",
"246 206 CURVE SMOOTH",
"288 604 LINE SMOOTH",
"292 641 OFFCURVE",
"298 687 OFFCURVE",
"345 687 CURVE SMOOTH",
"393 687 OFFCURVE",
"391 641 OFFCURVE",
"387 604 CURVE SMOOTH",
"345 206 LINE SMOOTH",
"341 169 OFFCURVE",
"333 123 OFFCURVE",
"286 123 CURVE SMOOTH"
);
}
);
width = 597;
},
{
layerId = "43161617-4660-4075-B14A-1D8E25AEE542";
paths = (
{
closed = 1;
nodes = (
"454 -118 LINE",
"430 -99 OFFCURVE",
"373 -36 OFFCURVE",
"348 9 CURVE",
"438 45 OFFCURVE",
"480 133 OFFCURVE",
"493 252 CURVE SMOOTH",
"525 562 LINE SMOOTH",
"542 720 OFFCURVE",
"494 818 OFFCURVE",
"332 818 CURVE SMOOTH",
"168 818 OFFCURVE",
"101 721 OFFCURVE",
"84 562 CURVE SMOOTH",
"52 252 LINE SMOOTH",
"35 93 OFFCURVE",
"81 -9 OFFCURVE",
"245 -9 CURVE SMOOTH",
"251 -9 OFFCURVE",
"258 -9 OFFCURVE",
"265 -8 CURVE",
"295 -63 OFFCURVE",
"352 -134 OFFCURVE",
"394 -165 CURVE"
);
},
{
closed = 1;
nodes = (
"162 77 OFFCURVE",
"150 137 OFFCURVE",
"160 229 CURVE SMOOTH",
"197 584 LINE SMOOTH",
"207 676 OFFCURVE",
"230 732 OFFCURVE",
"323 732 CURVE SMOOTH",
"416 732 OFFCURVE",
"427 675 OFFCURVE",
"417 584 CURVE SMOOTH",
"380 229 LINE SMOOTH",
"371 137 OFFCURVE",
"347 77 OFFCURVE",
"254 77 CURVE SMOOTH"
);
}
);
width = 539;
}
);
unicode = 0051;
userData = {
com.fontlab.hintData = {
hhints = (
{
position = -41;
width = 20;
},
{
position = -24;
width = 56;
},
{
position = 1623;
width = 55;
}
);
};
com.typemytype.robofont.layerData = {
b = {
anchors = (
);
components = (
);
contours = (
);
lib = {
};
name = Q;
unicodes = (
);
width = 1058;
};
};
};
},
{
glyphname = R;
lastChange = "2016-08-02 10:36:59 +0000";
layers = (
{
layerId = "6D1B020D-7C4E-4885-9208-B35BA480FE8F";
paths = (
{
closed = 1;
nodes = (
"108 0 LINE",
"151 408 LINE",
"302 408 LINE",
"385 0 LINE",
"439 0 LINE",
"353 418 LINE",
"453 434 OFFCURVE",
"483 519 OFFCURVE",
"493 610 CURVE SMOOTH",
"504 722 OFFCURVE",
"479 810 OFFCURVE",
"335 810 CURVE SMOOTH",
"139 810 LINE",
"54 0 LINE"
);
},
{
closed = 1;
nodes = (
"189 767 LINE",
"328 767 LINE SMOOTH",
"429 767 OFFCURVE",
"450 713 OFFCURVE",
"439 610 CURVE",
"429 511 OFFCURVE",
"399 450 OFFCURVE",
"295 450 CURVE SMOOTH",
"156 450 LINE"
);
}
);
width = 508;
},
{
layerId = "BF03A18F-065F-4249-8E16-486B9CB494A0";
paths = (
{
closed = 1;
nodes = (
"229 0 LINE",
"267 358 LINE",
"310 358 LINE",
"369 0 LINE",
"565 0 LINE",
"481 388 LINE",
"567 429 OFFCURVE",
"602 495 OFFCURVE",
"612 596 CURVE SMOOTH",
"630 770 OFFCURVE",
"520 810 OFFCURVE",
"357 810 CURVE SMOOTH",
"119 810 LINE",
"34 0 LINE"
);
},
{
closed = 1;
nodes = (
"301 681 LINE",
"361 681 LINE SMOOTH",
"421 681 OFFCURVE",
"436 639 OFFCURVE",
"429 575 CURVE",
"423 512 OFFCURVE",
"400 466 OFFCURVE",
"329 466 CURVE SMOOTH",
"278 466 LINE"
);
}
);
width = 609;
},
{
layerId = "43161617-4660-4075-B14A-1D8E25AEE542";
paths = (
{
closed = 1;
nodes = (
"149 0 LINE",
"190 382 LINE",
"281 382 LINE",
"349 0 LINE",
"455 0 LINE",
"381 407 LINE",
"456 430 OFFCURVE",
"492 501 OFFCURVE",
"502 596 CURVE SMOOTH",
"518 748 OFFCURVE",
"451 810 OFFCURVE",
"291 810 CURVE SMOOTH",
"125 810 LINE",
"40 0 LINE"
);
},
{
closed = 1;
nodes = (
"227 731 LINE",
"282 731 LINE SMOOTH",
"385 731 OFFCURVE",
"407 692 OFFCURVE",
"397 596 CURVE",
"386 492 OFFCURVE",
"343 460 OFFCURVE",
"247 460 CURVE SMOOTH",
"198 460 LINE"
);
}
);
width = 518;
}
);
unicode = 0052;
userData = {
com.fontlab.hintData = {
hhints = (
{
position = 860;
width = 52;
},
{
position = 1602;
width = 56;
}
);
};
};
},
{
glyphname = S;
lastChange = "2016-08-02 10:36:59 +0000";
layers = (
{
layerId = "6D1B020D-7C4E-4885-9208-B35BA480FE8F";
paths = (
{
closed = 1;
nodes = (
"321 -10 OFFCURVE",
"403 46 OFFCURVE",
"416 168 CURVE SMOOTH",
"424 254 OFFCURVE",
"376 326 OFFCURVE",
"319 390 CURVE SMOOTH",
"188 534 LINE SMOOTH",
"148 579 OFFCURVE",
"137 616 OFFCURVE",
"141 657 CURVE SMOOTH",
"150 739 OFFCURVE",
"208 774 OFFCURVE",
"283 775 CURVE SMOOTH",
"380 777 OFFCURVE",
"408 719 OFFCURVE",
"406 605 CURVE",
"453 616 LINE",
"459 769 OFFCURVE",
"397 819 OFFCURVE",
"286 819 CURVE SMOOTH",
"180 818 OFFCURVE",
"103 760 OFFCURVE",
"91 653 CURVE SMOOTH",
"85 600 OFFCURVE",
"101 549 OFFCURVE",
"146 499 CURVE SMOOTH",
"278 352 LINE SMOOTH",
"337 286 OFFCURVE",
"372 236 OFFCURVE",
"364 165 CURVE SMOOTH",
"354 72 OFFCURVE",
"301 35 OFFCURVE",
"221 35 CURVE SMOOTH",
"115 35 OFFCURVE",
"94 108 OFFCURVE",
"91 215 CURVE",
"42 200 LINE",
"39 72 OFFCURVE",
"87 -10 OFFCURVE",
"215 -10 CURVE SMOOTH"
);
}
);
width = 452;
},
{
layerId = "BF03A18F-065F-4249-8E16-486B9CB494A0";
paths = (
{
closed = 1;
nodes = (
"385 -12 OFFCURVE",
"478 80 OFFCURVE",
"490 194 CURVE SMOOTH",
"502 308 OFFCURVE",
"452 377 OFFCURVE",
"388 440 CURVE SMOOTH",
"342 485 LINE SMOOTH",
"306 521 OFFCURVE",
"265 555 OFFCURVE",
"272 624 CURVE SMOOTH",
"274 645 OFFCURVE",
"289 681 OFFCURVE",
"317 681 CURVE SMOOTH",
"354 681 OFFCURVE",
"351 639 OFFCURVE",
"344 569 CURVE",
"515 587 LINE",
"523 670 OFFCURVE",
"523 822 OFFCURVE",
"338 822 CURVE SMOOTH",
"193 822 OFFCURVE",
"94 745 OFFCURVE",
"80 604 CURVE SMOOTH",
"68 494 OFFCURVE",
"116 438 OFFCURVE",
"173 385 CURVE SMOOTH",
"223 338 LINE SMOOTH",
"274 290 OFFCURVE",
"303 251 OFFCURVE",
"296 185 CURVE SMOOTH",
"293 166 OFFCURVE",
"288 135 OFFCURVE",
"255 135 CURVE SMOOTH",
"221 135 OFFCURVE",
"200 163 OFFCURVE",
"211 271 CURVE",
"42 250 LINE",
"27 59 OFFCURVE",
"95 -12 OFFCURVE",
"251 -12 CURVE SMOOTH"
);
}
);
width = 520;
},
{
layerId = "43161617-4660-4075-B14A-1D8E25AEE542";
paths = (
{
closed = 1;
nodes = (
"341 -9 OFFCURVE",
"429 63 OFFCURVE",
"441 183 CURVE SMOOTH",
"452 283 OFFCURVE",
"404 354 OFFCURVE",
"349 410 CURVE SMOOTH",
"224 531 LINE SMOOTH",
"190 566 OFFCURVE",
"178 594 OFFCURVE",
"182 642 CURVE SMOOTH",
"188 703 OFFCURVE",
"226 729 OFFCURVE",
"284 732 CURVE SMOOTH",
"369 738 OFFCURVE",
"381 665 OFFCURVE",
"378 583 CURVE",
"473 608 LINE",
"476 751 OFFCURVE",
"423 819 OFFCURVE",
"292 818 CURVE SMOOTH",
"177 816 OFFCURVE",
"96 750 OFFCURVE",
"83 632 CURVE SMOOTH",
"75 552 OFFCURVE",
"96 502 OFFCURVE",
"143 454 CURVE SMOOTH",
"267 332 LINE SMOOTH",
"313 285 OFFCURVE",
"347 247 OFFCURVE",
"339 174 CURVE SMOOTH",
"333 110 OFFCURVE",
"297 77 OFFCURVE",
"237 77 CURVE SMOOTH",
"149 77 OFFCURVE",
"135 164 OFFCURVE",
"139 251 CURVE",
"39 225 LINE",
"32 86 OFFCURVE",
"88 -9 OFFCURVE",
"228 -9 CURVE SMOOTH"
);
}
);
width = 472;
}
);
unicode = 0053;
userData = {
com.fontlab.hintData = {
hhints = (
{
position = -23;
width = 56;
},
{
position = 1625;
width = 53;
}
);
vhints = (
{
position = 88;
width = 57;
},
{
position = 856;
width = 54;
}
);
};
};
},
{
glyphname = T;
lastChange = "2016-08-02 10:36:59 +0000";
layers = (
{
layerId = "6D1B020D-7C4E-4885-9208-B35BA480FE8F";
paths = (
{
closed = 1;
nodes = (
"199 0 LINE",
"279 766 LINE",
"447 766 LINE",
"452 810 LINE",
"58 810 LINE",
"53 766 LINE",
"224 766 LINE",
"144 0 LINE"
);
}
);
width = 380;
},
{
layerId = "BF03A18F-065F-4249-8E16-486B9CB494A0";
paths = (
{
closed = 1;
nodes = (
"302 0 LINE",
"372 666 LINE",
"491 666 LINE",
"506 810 LINE",
"73 810 LINE",
"58 666 LINE",
"177 666 LINE",
"107 0 LINE"
);
}
);
width = 458;
},
{
layerId = "43161617-4660-4075-B14A-1D8E25AEE542";
paths = (
{
closed = 1;
nodes = (
"233 0 LINE",
"310 729 LINE",
"454 729 LINE",
"462 810 LINE",
"60 810 LINE",
"51 729 LINE",
"200 729 LINE",
"124 0 LINE"
);
}
);
width = 399;
}
);
unicode = 0054;
},
{
glyphname = Tbar;
lastChange = "2016-08-02 10:36:59 +0000";
layers = (
{
components = (
{
name = T;
}
);
layerId = "6D1B020D-7C4E-4885-9208-B35BA480FE8F";
paths = (
{
closed = 1;
nodes = (
"352 417 LINE",
"355 454 LINE",
"63 454 LINE",
"59 417 LINE"
);
}
);
width = 380;
},
{
components = (
{
name = T;
transform = "{1, 0, 0, 1, -19, 0}";
}
);
layerId = "BF03A18F-065F-4249-8E16-486B9CB494A0";
paths = (
{
closed = 1;
nodes = (
"429 364 LINE",
"438 456 LINE",
"69 456 LINE",
"59 364 LINE"
);
}
);
width = 458;
},
{
components = (
{
name = T;
}
);
layerId = "43161617-4660-4075-B14A-1D8E25AEE542";
paths = (
{
closed = 1;
nodes = (
"354 393 LINE",
"361 455 LINE",
"44 455 LINE",
"38 393 LINE"
);
}
);
width = 399;
}
);
unicode = 0166;
},
{
glyphname = U;
lastChange = "2016-08-02 10:36:59 +0000";
layers = (
{
layerId = "6D1B020D-7C4E-4885-9208-B35BA480FE8F";
paths = (
{
closed = 1;
nodes = (
"396 -11 OFFCURVE",
"455 76 OFFCURVE",
"467 190 CURVE SMOOTH",
"532 810 LINE",
"479 810 LINE",
"414 189 LINE SMOOTH",
"404 101 OFFCURVE",
"360 34 OFFCURVE",
"250 34 CURVE SMOOTH",
"133 34 OFFCURVE",
"108 100 OFFCURVE",
"118 189 CURVE SMOOTH",
"183 810 LINE",
"130 810 LINE",
"65 190 LINE SMOOTH",
"53 76 OFFCURVE",
"86 -11 OFFCURVE",
"245 -11 CURVE SMOOTH"
);
}
);
width = 533;
},
{
layerId = "BF03A18F-065F-4249-8E16-486B9CB494A0";
paths = (
{
closed = 1;
nodes = (
"461 -12 OFFCURVE",
"528 76 OFFCURVE",
"546 246 CURVE SMOOTH",
"605 810 LINE",
"411 810 LINE",
"349 214 LINE SMOOTH",
"344 176 OFFCURVE",
"336 127 OFFCURVE",
"288 127 CURVE SMOOTH",
"240 127 OFFCURVE",
"242 176 OFFCURVE",
"246 214 CURVE SMOOTH",
"308 810 LINE",
"114 810 LINE",
"55 246 LINE SMOOTH",
"38 76 OFFCURVE",
"85 -12 OFFCURVE",
"273 -12 CURVE SMOOTH"
);
}
);
width = 598;
},
{
layerId = "43161617-4660-4075-B14A-1D8E25AEE542";
paths = (
{
closed = 1;
nodes = (
"421 -9 OFFCURVE",
"473 102 OFFCURVE",
"490 268 CURVE SMOOTH",
"547 810 LINE",
"443 810 LINE",
"386 263 LINE SMOOTH",
"375 159 OFFCURVE",
"352 77 OFFCURVE",
"256 77 CURVE SMOOTH",
"159 77 OFFCURVE",
"153 159 OFFCURVE",
"165 263 CURVE SMOOTH",
"222 810 LINE",
"118 810 LINE",
"61 268 LINE SMOOTH",
"43 102 OFFCURVE",
"71 -9 OFFCURVE",
"247 -9 CURVE SMOOTH"
);
}
);
width = 543;
}
);
unicode = 0055;
userData = {
com.fontlab.hintData = {
hhints = (
{
position = -24;
width = 56;
}
);
};
};
},
{
glyphname = V;
lastChange = "2016-08-02 10:36:59 +0000";
layers = (
{
layerId = "6D1B020D-7C4E-4885-9208-B35BA480FE8F";
paths = (
{
closed = 1;
nodes = (
"250 0 LINE",
"520 810 LINE",
"467 810 LINE",
"234 95 LINE",
"142 810 LINE",
"89 810 LINE",
"199 0 LINE"
);
}
);
width = 480;
},
{
layerId = "BF03A18F-065F-4249-8E16-486B9CB494A0";
paths = (
{
closed = 1;
nodes = (
"343 0 LINE",
"568 810 LINE",
"392 810 LINE",
"265 272 LINE",
"244 810 LINE",
"80 810 LINE",
"133 0 LINE"
);
}
);
width = 526;
},
{
layerId = "43161617-4660-4075-B14A-1D8E25AEE542";
paths = (
{
closed = 1;
nodes = (
"277 0 LINE",
"542 810 LINE",
"441 810 LINE",
"254 206 LINE",
"187 810 LINE",
"85 810 LINE",
"181 0 LINE"
);
}
);
width = 504;
}
);
unicode = 0056;
},
{
glyphname = W;
lastChange = "2016-08-02 10:36:59 +0000";
layers = (
{
layerId = "6D1B020D-7C4E-4885-9208-B35BA480FE8F";
paths = (
{
closed = 1;
nodes = (
"201 0 LINE",
"411 709 LINE",
"474 0 LINE",
"520 0 LINE",
"737 810 LINE",
"689 810 LINE",
"507 107 LINE",
"446 792 LINE",
"393 792 LINE",
"191 107 LINE",
"146 810 LINE",
"98 809 LINE",
"154 0 LINE"
);
}
);
width = 706;
},
{
layerId = "BF03A18F-065F-4249-8E16-486B9CB494A0";
paths = (
{
closed = 1;
nodes = (
"265 0 LINE",
"367 462 LINE",
"376 0 LINE",
"550 0 LINE",
"725 810 LINE",
"561 810 LINE",
"475 369 LINE",
"467 810 LINE",
"339 810 LINE",
"244 365 LINE",
"251 810 LINE",
"86 810 LINE",
"89 0 LINE"
);
}
);
width = 690;
},
{
layerId = "43161617-4660-4075-B14A-1D8E25AEE542";
paths = (
{
closed = 1;
nodes = (
"228 0 LINE",
"407 606 LINE",
"458 0 LINE",
"538 0 LINE",
"753 810 LINE",
"663 810 LINE",
"515 218 LINE",
"465 806 LINE",
"388 806 LINE",
"215 220 LINE",
"189 810 LINE",
"97 810 LINE",
"145 0 LINE"
);
}
);
width = 728;
}
);
unicode = 0057;
},
{
glyphname = X;
lastChange = "2016-08-02 10:36:59 +0000";
layers = (
{
layerId = "6D1B020D-7C4E-4885-9208-B35BA480FE8F";
paths = (
{
closed = 1;
nodes = (
"48 0 LINE",
"236 364 LINE",
"364 0 LINE",
"417 0 LINE",
"271 412 LINE",
"499 810 LINE",
"444 810 LINE",
"253 464 LINE",
"130 810 LINE",
"80 810 LINE",
"217 421 LINE",
"-6 0 LINE"
);
}
);
width = 452;
},
{
layerId = "BF03A18F-065F-4249-8E16-486B9CB494A0";
paths = (
{
closed = 1;
nodes = (
"139 0 LINE",
"244 226 LINE",
"311 0 LINE",
"493 0 LINE",
"382 383 LINE",
"562 810 LINE",
"401 810 LINE",
"318 606 LINE",
"259 810 LINE",
"73 810 LINE",
"182 439 LINE",
"-20 0 LINE"
);
}
);
width = 521;
},
{
layerId = "43161617-4660-4075-B14A-1D8E25AEE542";
paths = (
{
closed = 1;
nodes = (
"91 0 LINE",
"240 309 LINE",
"341 0 LINE",
"443 0 LINE",
"308 415 LINE",
"521 810 LINE",
"418 810 LINE",
"273 520 LINE",
"178 810 LINE",
"77 810 LINE",
"203 424 LINE",
"-11 0 LINE"
);
}
);
width = 480;
}
);
unicode = 0058;
},
{
glyphname = Y;
lastChange = "2016-08-02 10:36:59 +0000";
layers = (
{
layerId = "6D1B020D-7C4E-4885-9208-B35BA480FE8F";
paths = (
{
closed = 1;
nodes = (
"240 0 LINE",
"268 259 LINE",
"506 810 LINE",
"450 810 LINE",
"248 324 LINE",
"140 810 LINE",
"84 810 LINE",
"213 259 LINE",
"186 0 LINE"
);
}
);
width = 462;
},
{
layerId = "BF03A18F-065F-4249-8E16-486B9CB494A0";
paths = (
{
closed = 1;
nodes = (
"318 0 LINE",
"354 342 LINE",
"550 810 LINE",
"374 810 LINE",
"294 586 LINE",
"251 810 LINE",
"68 810 LINE",
"167 342 LINE",
"131 0 LINE"
);
}
);
width = 495;
},
{
layerId = "43161617-4660-4075-B14A-1D8E25AEE542";
paths = (
{
closed = 1;
nodes = (
"269 0 LINE",
"299 284 LINE",
"529 810 LINE",
"425 810 LINE",
"260 414 LINE",
"176 810 LINE",
"74 810 LINE",
"194 284 LINE",
"165 0 LINE"
);
}
);
width = 480;
}
);
unicode = 0059;
},
{
glyphname = Z;
lastChange = "2016-08-02 10:36:59 +0000";
layers = (
{
layerId = "6D1B020D-7C4E-4885-9208-B35BA480FE8F";
paths = (
{
closed = 1;
nodes = (
"361 0 LINE",
"366 43 LINE",
"70 43 LINE",
"442 776 LINE",
"445 810 LINE",
"122 810 LINE",
"117 767 LINE",
"382 767 LINE",
"15 43 LINE",
"10 0 LINE"
);
}
);
width = 401;
},
{
layerId = "BF03A18F-065F-4249-8E16-486B9CB494A0";
paths = (
{
closed = 1;
nodes = (
"386 0 LINE",
"399 130 LINE",
"208 130 LINE",
"457 697 LINE",
"468 810 LINE",
"98 810 LINE",
"84 679 LINE",
"265 679 LINE",
"18 114 LINE",
"6 0 LINE"
);
}
);
width = 437;
},
{
layerId = "43161617-4660-4075-B14A-1D8E25AEE542";
paths = (
{
closed = 1;
nodes = (
"372 0 LINE",
"380 79 LINE",
"126 79 LINE",
"451 762 LINE",
"457 810 LINE",
"114 810 LINE",
"106 731 LINE",
"332 731 LINE",
"22 79 LINE",
"14 0 LINE"
);
}
);
width = 416;
}
);
unicode = 005A;
},
{
glyphname = a;
lastChange = "2016-08-02 10:36:59 +0000";
layers = (
{
layerId = "6D1B020D-7C4E-4885-9208-B35BA480FE8F";
paths = (
{
closed = 1;
nodes = (
"190 -9 OFFCURVE",
"240 29 OFFCURVE",
"263 77 CURVE",
"263 65 OFFCURVE",
"264 0 OFFCURVE",
"264 0 CURVE",
"309 0 LINE",
"309 11 OFFCURVE",
"315 85 OFFCURVE",
"316 101 CURVE SMOOTH",
"347 392 LINE SMOOTH",
"362 529 OFFCURVE",
"334 587 OFFCURVE",
"237 587 CURVE SMOOTH",
"146 587 OFFCURVE",
"90 547 OFFCURVE",
"75 438 CURVE",
"75 437 OFFCURVE",
"74 425 OFFCURVE",
"74 423 CURVE",
"125 422 LINE",
"127 438 LINE SMOOTH",
"137 530 OFFCURVE",
"185 547 OFFCURVE",
"230 547 CURVE SMOOTH",
"290 547 OFFCURVE",
"307 512 OFFCURVE",
"294 386 CURVE SMOOTH",
"290 345 LINE",
"83 252 OFFCURVE",
"40 216 OFFCURVE",
"29 117 CURVE SMOOTH",
"22 42 OFFCURVE",
"63 -9 OFFCURVE",
"132 -9 CURVE"
);
},
{
closed = 1;
nodes = (
"113 35 OFFCURVE",
"76 56 OFFCURVE",
"83 125 CURVE SMOOTH",
"92 214 OFFCURVE",
"136 232 OFFCURVE",
"285 306 CURVE",
"265 116 LINE",
"240 73 OFFCURVE",
"199 35 OFFCURVE",
"150 35 CURVE SMOOTH"
);
}
);
width = 379;
},
{
layerId = "BF03A18F-065F-4249-8E16-486B9CB494A0";
paths = (
{
closed = 1;
nodes = (
"208 -11 OFFCURVE",
"248 32 OFFCURVE",
"267 81 CURVE",
"267 77 OFFCURVE",
"272 0 OFFCURVE",
"272 0 CURVE",
"428 0 LINE",
"428 26 OFFCURVE",
"425 69 OFFCURVE",
"433 146 CURVE SMOOTH",
"462 417 LINE SMOOTH",
"472 514 OFFCURVE",
"419 589 OFFCURVE",
"301 589 CURVE SMOOTH",
"170 589 OFFCURVE",
"92 530 OFFCURVE",
"68 399 CURVE",
"67 399 OFFCURVE",
"64 382 OFFCURVE",
"64 381 CURVE",
"227 375 LINE",
"236 420 LINE SMOOTH",
"240 440 OFFCURVE",
"247 458 OFFCURVE",
"270 458 CURVE SMOOTH",
"292 458 OFFCURVE",
"296 440 OFFCURVE",
"294 419 CURVE SMOOTH",
"288 357 LINE",
"202 323 OFFCURVE",
"40 289 OFFCURVE",
"23 132 CURVE SMOOTH",
"16 64 OFFCURVE",
"55 -9 OFFCURVE",
"148 -11 CURVE"
);
},
{
closed = 1;
nodes = (
"198 105 OFFCURVE",
"180 127 OFFCURVE",
"184 164 CURVE SMOOTH",
"188 201 OFFCURVE",
"224 260 OFFCURVE",
"280 286 CURVE",
"263 128 LINE",
"251 114 OFFCURVE",
"236 105 OFFCURVE",
"222 105 CURVE SMOOTH"
);
}
);
width = 489;
},
{
layerId = "43161617-4660-4075-B14A-1D8E25AEE542";
paths = (
{
closed = 1;
nodes = (
"198 -8 OFFCURVE",
"241 39 OFFCURVE",
"260 85 CURVE",
"260 49 OFFCURVE",
"265 0 OFFCURVE",
"265 0 CURVE",
"359 0 LINE",
"358 35 OFFCURVE",
"359 85 OFFCURVE",
"364 136 CURVE SMOOTH",
"392 402 LINE SMOOTH",
"405 522 OFFCURVE",
"369 586 OFFCURVE",
"255 586 CURVE SMOOTH",
"152 586 OFFCURVE",
"85 540 OFFCURVE",
"67 421 CURVE",
"66 415 OFFCURVE",
"65 407 OFFCURVE",
"64 400 CURVE",
"166 396 LINE",
"169 425 LINE SMOOTH",
"175 478 OFFCURVE",
"197 508 OFFCURVE",
"241 508 CURVE SMOOTH",
"291 508 OFFCURVE",
"296 474 OFFCURVE",
"289 401 CURVE SMOOTH",
"284 360 LINE",
"150 307 OFFCURVE",
"45 266 OFFCURVE",
"30 125 CURVE SMOOTH",
"23 57 OFFCURVE",
"65 -8 OFFCURVE",
"133 -8 CURVE"
);
},
{
closed = 1;
nodes = (
"150 82 OFFCURVE",
"133 108 OFFCURVE",
"138 157 CURVE SMOOTH",
"146 230 OFFCURVE",
"209 260 OFFCURVE",
"278 296 CURVE",
"260 131 LINE",
"249 114 OFFCURVE",
"215 82 OFFCURVE",
"183 82 CURVE SMOOTH"
);
}
);
width = 423;
}
);
unicode = 0061;
userData = {
com.fontlab.hintData = {
hhints = (
{
position = -20;
width = 50;
},
{
position = 1154;
width = 50;
}
);
vhints = (
{
position = 159;
width = 61;
},
{
position = 538;
width = 50;
}
);
};
};
},
{
glyphname = ae;
lastChange = "2016-08-02 10:36:59 +0000";
layers = (
{
layerId = "6D1B020D-7C4E-4885-9208-B35BA480FE8F";
paths = (
{
closed = 1;
nodes = (
"185 -11 OFFCURVE",
"255 16 OFFCURVE",
"287 107 CURVE",
"289 19 OFFCURVE",
"342 -9 OFFCURVE",
"401 -9 CURVE SMOOTH",
"510 -9 OFFCURVE",
"549 58 OFFCURVE",
"560 157 CURVE SMOOTH",
"563 195 LINE",
"511 195 LINE",
"507 155 LINE SMOOTH",
"495 44 OFFCURVE",
"447 33 OFFCURVE",
"406 33 CURVE SMOOTH",
"339 33 OFFCURVE",
"318 84 OFFCURVE",
"332 223 CURVE SMOOTH",
"340 300 LINE",
"456 338 LINE SMOOTH",
"533 361 OFFCURVE",
"580 396 OFFCURVE",
"586 455 CURVE SMOOTH",
"594 530 OFFCURVE",
"553 587 OFFCURVE",
"466 587 CURVE SMOOTH",
"414 587 OFFCURVE",
"357 564 OFFCURVE",
"334 493 CURVE",
"332 555 OFFCURVE",
"294 587 OFFCURVE",
"237 587 CURVE SMOOTH",
"145 587 OFFCURVE",
"86 538 OFFCURVE",
"75 435 CURVE",
"125 433 LINE",
"135 523 OFFCURVE",
"183 546 OFFCURVE",
"231 546 CURVE SMOOTH",
"287 546 OFFCURVE",
"309 511 OFFCURVE",
"296 386 CURVE SMOOTH",
"290 323 LINE",
"200 293 LINE SMOOTH",
"61 245 OFFCURVE",
"38 187 OFFCURVE",
"31 117 CURVE",
"23 42 OFFCURVE",
"64 -8 OFFCURVE",
"134 -9 CURVE SMOOTH"
);
},
{
closed = 1;
nodes = (
"116 32 OFFCURVE",
"78 53 OFFCURVE",
"84 122 CURVE SMOOTH",
"89 180 OFFCURVE",
"101 216 OFFCURVE",
"209 258 CURVE SMOOTH",
"213 260 OFFCURVE",
"282 287 OFFCURVE",
"286 288 CURVE",
"278 217 LINE SMOOTH",
"263 73 OFFCURVE",
"203 32 OFFCURVE",
"151 32 CURVE SMOOTH"
);
},
{
closed = 1;
nodes = (
"349 384 LINE SMOOTH",
"362 510 OFFCURVE",
"397 545 OFFCURVE",
"461 545 CURVE SMOOTH",
"524 545 OFFCURVE",
"542 502 OFFCURVE",
"537 458 CURVE SMOOTH",
"533 415 OFFCURVE",
"514 392 OFFCURVE",
"450 371 CURVE SMOOTH",
"344 335 LINE"
);
}
);
width = 599;
},
{
layerId = "BF03A18F-065F-4249-8E16-486B9CB494A0";
paths = (
{
closed = 1;
nodes = (
"215 -13 OFFCURVE",
"285 15 OFFCURVE",
"314 69 CURVE",
"323 13 OFFCURVE",
"392 -13 OFFCURVE",
"440 -13 CURVE SMOOTH",
"547 -12 OFFCURVE",
"614 46 OFFCURVE",
"625 150 CURVE SMOOTH",
"630 202 LINE",
"470 202 LINE",
"466 169 LINE SMOOTH",
"462 135 OFFCURVE",
"462 111 OFFCURVE",
"438 111 CURVE SMOOTH",
"415 111 OFFCURVE",
"415 135 OFFCURVE",
"419 176 CURVE SMOOTH",
"432 293 LINE",
"447 296 OFFCURVE",
"469 300 OFFCURVE",
"484 304 CURVE SMOOTH",
"570 324 OFFCURVE",
"654 362 OFFCURVE",
"665 458 CURVE SMOOTH",
"671 526 OFFCURVE",
"624 606 OFFCURVE",
"507 606 CURVE SMOOTH",
"444 606 OFFCURVE",
"388 573 OFFCURVE",
"367 528 CURVE",
"360 572 OFFCURVE",
"317 606 OFFCURVE",
"254 606 CURVE SMOOTH",
"124 606 OFFCURVE",
"56 525 OFFCURVE",
"44 386 CURVE",
"214 386 LINE",
"220 447 OFFCURVE",
"236 456 OFFCURVE",
"253 456 CURVE SMOOTH",
"270 456 OFFCURVE",
"282 447 OFFCURVE",
"279 412 CURVE SMOOTH",
"271 340 LINE",
"250 336 OFFCURVE",
"219 332 OFFCURVE",
"194 326 CURVE SMOOTH",
"114 306 OFFCURVE",
"29 265 OFFCURVE",
"16 137 CURVE",
"5 37 OFFCURVE",
"74 -12 OFFCURVE",
"158 -13 CURVE SMOOTH"
);
},
{
closed = 1;
nodes = (
"173 104 OFFCURVE",
"168 139 OFFCURVE",
"170 155 CURVE SMOOTH",
"172 174 OFFCURVE",
"187 225 OFFCURVE",
"234 253 CURVE SMOOTH",
"243 259 OFFCURVE",
"253 263 OFFCURVE",
"264 267 CURVE",
"253 159 LINE SMOOTH",
"249 114 OFFCURVE",
"229 104 OFFCURVE",
"205 104 CURVE SMOOTH"
);
},
{
closed = 1;
nodes = (
"446 437 LINE SMOOTH",
"450 473 OFFCURVE",
"472 496 OFFCURVE",
"493 496 CURVE SMOOTH",
"510 496 OFFCURVE",
"522 480 OFFCURVE",
"519 447 CURVE SMOOTH",
"516 419 OFFCURVE",
"506 402 OFFCURVE",
"490 391 CURVE SMOOTH",
"478 380 OFFCURVE",
"458 373 OFFCURVE",
"439 371 CURVE"
);
}
);
width = 670;
},
{
layerId = "43161617-4660-4075-B14A-1D8E25AEE542";
paths = (
{
closed = 1;
nodes = (
"209 -14 OFFCURVE",
"266 37 OFFCURVE",
"302 109 CURVE",
"304 37 OFFCURVE",
"348 -8 OFFCURVE",
"418 -8 CURVE SMOOTH",
"533 -8 OFFCURVE",
"588 61 OFFCURVE",
"601 175 CURVE SMOOTH",
"604 201 LINE",
"500 201 LINE",
"497 175 LINE SMOOTH",
"491 115 OFFCURVE",
"473 74 OFFCURVE",
"428 74 CURVE SMOOTH",
"362 74 OFFCURVE",
"374 172 OFFCURVE",
"382 253 CURVE SMOOTH",
"385 283 LINE",
"460 299 LINE SMOOTH",
"534 314 OFFCURVE",
"613 333 OFFCURVE",
"622 414 CURVE SMOOTH",
"632 519 OFFCURVE",
"587 586 OFFCURVE",
"481 586 CURVE SMOOTH",
"426 586 OFFCURVE",
"381 557 OFFCURVE",
"357 513 CURVE",
"349 560 OFFCURVE",
"308 586 OFFCURVE",
"251 586 CURVE SMOOTH",
"145 586 OFFCURVE",
"77 518 OFFCURVE",
"64 411 CURVE",
"167 410 LINE",
"174 468 OFFCURVE",
"195 506 OFFCURVE",
"243 506 CURVE SMOOTH",
"292 506 OFFCURVE",
"300 466 OFFCURVE",
"293 401 CURVE SMOOTH",
"286 326 LINE",
"205 305 LINE SMOOTH",
"106 278 OFFCURVE",
"43 228 OFFCURVE",
"32 125 CURVE",
"25 57 OFFCURVE",
"67 -4 OFFCURVE",
"134 -8 CURVE SMOOTH"
);
},
{
closed = 1;
nodes = (
"155 73 OFFCURVE",
"133 100 OFFCURVE",
"138 148 CURVE SMOOTH",
"144 200 OFFCURVE",
"175 229 OFFCURVE",
"230 250 CURVE SMOOTH",
"242 255 OFFCURVE",
"267 264 OFFCURVE",
"279 267 CURVE",
"273 211 LINE SMOOTH",
"264 117 OFFCURVE",
"222 73 OFFCURVE",
"184 73 CURVE SMOOTH"
);
},
{
closed = 1;
nodes = (
"397 396 LINE SMOOTH",
"404 461 OFFCURVE",
"424 502 OFFCURVE",
"473 502 CURVE SMOOTH",
"520 502 OFFCURVE",
"532 466 OFFCURVE",
"527 423 CURVE SMOOTH",
"522 375 OFFCURVE",
"497 363 OFFCURVE",
"450 354 CURVE SMOOTH",
"391 340 LINE"
);
}
);
width = 649;
}
);
unicode = 00E6;
userData = {
com.fontlab.hintData = {
hhints = (
{
position = -20;
width = 50;
},
{
position = 1154;
width = 50;
}
);
vhints = (
{
position = 163;
width = 56;
}
);
};
};
},
{
glyphname = b;
lastChange = "2016-08-02 10:36:59 +0000";
layers = (
{
layerId = "6D1B020D-7C4E-4885-9208-B35BA480FE8F";
paths = (
{
closed = 1;
nodes = (
"298 -9 OFFCURVE",
"339 76 OFFCURVE",
"355 238 CURVE SMOOTH",
"367 349 LINE SMOOTH",
"382 494 OFFCURVE",
"369 587 OFFCURVE",
"262 587 CURVE SMOOTH",
"208 587 OFFCURVE",
"169 557 OFFCURVE",
"145 529 CURVE",
"174 810 LINE",
"121 810 LINE",
"36 0 LINE",
"89 0 LINE",
"95 48 LINE",
"112 22 OFFCURVE",
"144 -9 OFFCURVE",
"194 -9 CURVE SMOOTH"
);
},
{
closed = 1;
nodes = (
"150 32 OFFCURVE",
"118 57 OFFCURVE",
"98 84 CURVE",
"141 492 LINE",
"164 515 OFFCURVE",
"203 546 OFFCURVE",
"247 546 CURVE SMOOTH",
"321 546 OFFCURVE",
"329 487 OFFCURVE",
"314 349 CURVE SMOOTH",
"303 236 LINE SMOOTH",
"288 95 OFFCURVE",
"264 32 OFFCURVE",
"192 32 CURVE SMOOTH"
);
}
);
width = 397;
},
{
layerId = "BF03A18F-065F-4249-8E16-486B9CB494A0";
paths = (
{
closed = 1;
nodes = (
"405 -11 OFFCURVE",
"459 51 OFFCURVE",
"470 154 CURVE SMOOTH",
"499 430 LINE SMOOTH",
"509 528 OFFCURVE",
"473 585 OFFCURVE",
"395 589 CURVE SMOOTH",
"355 590 OFFCURVE",
"307 574 OFFCURVE",
"259 536 CURVE",
"287 810 LINE",
"111 810 LINE",
"26 0 LINE",
"202 0 LINE",
"207 44 LINE",
"244 10 OFFCURVE",
"289 -11 OFFCURVE",
"331 -11 CURVE SMOOTH"
);
},
{
closed = 1;
nodes = (
"239 100 OFFCURVE",
"226 105 OFFCURVE",
"214 112 CURVE",
"251 470 LINE",
"266 479 OFFCURVE",
"281 486 OFFCURVE",
"291 487 CURVE SMOOTH",
"315 490 OFFCURVE",
"326 469 OFFCURVE",
"324 445 CURVE SMOOTH",
"292 144 LINE SMOOTH",
"290 119 OFFCURVE",
"275 99 OFFCURVE",
"250 100 CURVE SMOOTH"
);
}
);
width = 520;
},
{
layerId = "43161617-4660-4075-B14A-1D8E25AEE542";
paths = (
{
closed = 1;
nodes = (
"346 -8 OFFCURVE",
"388 104 OFFCURVE",
"401 229 CURVE SMOOTH",
"416 367 LINE SMOOTH",
"423 441 OFFCURVE",
"426 586 OFFCURVE",
"307 586 CURVE SMOOTH",
"257 586 OFFCURVE",
"220 561 OFFCURVE",
"192 532 CURVE",
"221 810 LINE",
"117 810 LINE",
"32 0 LINE",
"136 0 LINE",
"140 43 LINE",
"162 16 OFFCURVE",
"192 -8 OFFCURVE",
"233 -8 CURVE SMOOTH"
);
},
{
closed = 1;
nodes = (
"189 73 OFFCURVE",
"165 85 OFFCURVE",
"146 100 CURVE",
"186 474 LINE",
"207 490 OFFCURVE",
"233 505 OFFCURVE",
"263 505 CURVE SMOOTH",
"319 505 OFFCURVE",
"320 444 OFFCURVE",
"312 367 CURVE SMOOTH",
"297 229 LINE SMOOTH",
"289 141 OFFCURVE",
"277 73 OFFCURVE",
"221 73 CURVE SMOOTH"
);
}
);
width = 444;
}
);
unicode = 0062;
userData = {
com.fontlab.hintData = {
hhints = (
{
position = -20;
width = 50;
},
{
position = 1154;
width = 50;
}
);
};
};
},
{
glyphname = c;
lastChange = "2016-08-02 10:36:59 +0000";
layers = (
{
layerId = "6D1B020D-7C4E-4885-9208-B35BA480FE8F";
paths = (
{
closed = 1;
nodes = (
"297 -9 OFFCURVE",
"321 79 OFFCURVE",
"333 195 CURVE SMOOTH",
"335 216 LINE",
"285 216 LINE",
"283 194 LINE",
"271 79 OFFCURVE",
"253 31 OFFCURVE",
"175 31 CURVE SMOOTH",
"99 31 OFFCURVE",
"87 83 OFFCURVE",
"100 209 CURVE SMOOTH",
"116 359 LINE SMOOTH",
"130 496 OFFCURVE",
"150 547 OFFCURVE",
"229 547 CURVE SMOOTH",
"292 547 OFFCURVE",
"316 517 OFFCURVE",
"304 400 CURVE SMOOTH",
"302 377 LINE",
"352 377 LINE",
"354 400 LINE SMOOTH",
"365 506 OFFCURVE",
"353 587 OFFCURVE",
"233 587 CURVE SMOOTH",
"120 587 OFFCURVE",
"80 523 OFFCURVE",
"63 353 CURVE SMOOTH",
"48 217 LINE SMOOTH",
"35 91 OFFCURVE",
"41 -9 OFFCURVE",
"170 -9 CURVE SMOOTH"
);
}
);
width = 375;
},
{
layerId = "BF03A18F-065F-4249-8E16-486B9CB494A0";
paths = (
{
closed = 1;
nodes = (
"342 -11 OFFCURVE",
"431 47 OFFCURVE",
"443 163 CURVE SMOOTH",
"451 240 LINE",
"279 240 LINE",
"271 157 LINE",
"266 118 OFFCURVE",
"251 110 OFFCURVE",
"233 110 CURVE SMOOTH",
"216 110 OFFCURVE",
"204 122 OFFCURVE",
"208 162 CURVE SMOOTH",
"235 417 LINE SMOOTH",
"239 457 OFFCURVE",
"253 469 OFFCURVE",
"271 469 CURVE SMOOTH",
"289 469 OFFCURVE",
"302 462 OFFCURVE",
"298 422 CURVE SMOOTH",
"291 349 LINE",
"462 349 LINE",
"469 417 LINE SMOOTH",
"482 533 OFFCURVE",
"405 589 OFFCURVE",
"283 589 CURVE SMOOTH",
"161 589 OFFCURVE",
"69 522 OFFCURVE",
"57 404 CURVE SMOOTH",
"33 174 LINE SMOOTH",
"20 57 OFFCURVE",
"98 -11 OFFCURVE",
"220 -11 CURVE SMOOTH"
);
}
);
width = 482;
},
{
layerId = "43161617-4660-4075-B14A-1D8E25AEE542";
paths = (
{
closed = 1;
nodes = (
"310 -8 OFFCURVE",
"350 62 OFFCURVE",
"363 179 CURVE SMOOTH",
"367 218 LINE",
"273 218 LINE",
"268 173 LINE",
"261 110 OFFCURVE",
"251 68 OFFCURVE",
"196 68 CURVE SMOOTH",
"146 68 OFFCURVE",
"133 95 OFFCURVE",
"144 196 CURVE SMOOTH",
"163 376 LINE SMOOTH",
"173 476 OFFCURVE",
"187 510 OFFCURVE",
"242 510 CURVE SMOOTH",
"290 510 OFFCURVE",
"301 482 OFFCURVE",
"292 404 CURVE SMOOTH",
"289 370 LINE",
"382 370 LINE",
"386 404 LINE SMOOTH",
"398 522 OFFCURVE",
"374 586 OFFCURVE",
"249 586 CURVE SMOOTH",
"110 586 OFFCURVE",
"73 501 OFFCURVE",
"57 355 CURVE SMOOTH",
"43 221 LINE SMOOTH",
"29 83 OFFCURVE",
"44 -8 OFFCURVE",
"186 -8 CURVE SMOOTH"
);
}
);
width = 408;
}
);
unicode = 0063;
userData = {
com.fontlab.hintData = {
hhints = (
{
position = -20;
width = 50;
},
{
position = 1154;
width = 50;
}
);
};
};
},
{
glyphname = d;
lastChange = "2016-08-02 10:36:59 +0000";
layers = (
{
layerId = "6D1B020D-7C4E-4885-9208-B35BA480FE8F";
paths = (
{
closed = 1;
nodes = (
"208 -9 OFFCURVE",
"244 19 OFFCURVE",
"268 44 CURVE",
"264 0 LINE",
"316 0 LINE",
"401 810 LINE",
"349 810 LINE",
"319 534 LINE",
"301 560 OFFCURVE",
"269 587 OFFCURVE",
"220 587 CURVE SMOOTH",
"114 587 OFFCURVE",
"78 503 OFFCURVE",
"61 340 CURVE SMOOTH",
"50 237 LINE SMOOTH",
"32 62 OFFCURVE",
"61 -9 OFFCURVE",
"160 -9 CURVE SMOOTH"
);
},
{
closed = 1;
nodes = (
"99 32 OFFCURVE",
"88 93 OFFCURVE",
"103 233 CURVE SMOOTH",
"115 353 LINE SMOOTH",
"129 488 OFFCURVE",
"150 546 OFFCURVE",
"224 546 CURVE SMOOTH",
"266 546 OFFCURVE",
"297 518 OFFCURVE",
"315 495 CURVE",
"272 81 LINE",
"245 54 OFFCURVE",
"210 32 OFFCURVE",
"172 32 CURVE SMOOTH"
);
}
);
width = 395;
},
{
layerId = "BF03A18F-065F-4249-8E16-486B9CB494A0";
paths = (
{
closed = 1;
nodes = (
"188 -11 OFFCURVE",
"231 10 OFFCURVE",
"272 46 CURVE",
"268 0 LINE",
"444 0 LINE",
"529 810 LINE",
"353 810 LINE",
"325 542 LINE",
"293 571 OFFCURVE",
"255 589 OFFCURVE",
"212 589 CURVE SMOOTH",
"129 589 OFFCURVE",
"73 523 OFFCURVE",
"63 423 CURVE SMOOTH",
"34 154 LINE SMOOTH",
"22 48 OFFCURVE",
"65 -11 OFFCURVE",
"148 -11 CURVE SMOOTH"
);
},
{
closed = 1;
nodes = (
"217 98 OFFCURVE",
"208 119 OFFCURVE",
"210 144 CURVE SMOOTH",
"240 434 LINE SMOOTH",
"244 462 OFFCURVE",
"257 482 OFFCURVE",
"283 482 CURVE SMOOTH",
"293 482 OFFCURVE",
"307 479 OFFCURVE",
"317 473 CURVE",
"279 111 LINE",
"265 103 OFFCURVE",
"250 98 OFFCURVE",
"240 98 CURVE SMOOTH"
);
}
);
width = 519;
},
{
layerId = "43161617-4660-4075-B14A-1D8E25AEE542";
paths = (
{
closed = 1;
nodes = (
"201 -8 OFFCURVE",
"234 11 OFFCURVE",
"261 37 CURVE",
"257 0 LINE",
"361 0 LINE",
"446 810 LINE",
"342 810 LINE",
"314 541 LINE",
"292 565 OFFCURVE",
"262 586 OFFCURVE",
"222 586 CURVE SMOOTH",
"105 586 OFFCURVE",
"69 473 OFFCURVE",
"56 339 CURVE SMOOTH",
"44 228 LINE SMOOTH",
"26 56 OFFCURVE",
"64 -9 OFFCURVE",
"163 -8 CURVE SMOOTH"
);
},
{
closed = 1;
nodes = (
"139 73 OFFCURVE",
"137 134 OFFCURVE",
"146 219 CURVE SMOOTH",
"163 379 LINE SMOOTH",
"170 450 OFFCURVE",
"189 505 OFFCURVE",
"241 505 CURVE SMOOTH",
"267 505 OFFCURVE",
"290 492 OFFCURVE",
"308 478 CURVE",
"268 97 LINE",
"244 82 OFFCURVE",
"219 73 OFFCURVE",
"198 73 CURVE SMOOTH"
);
}
);
width = 439;
}
);
unicode = 0064;
userData = {
com.fontlab.hintData = {
hhints = (
{
position = -20;
width = 50;
},
{
position = 1154;
width = 50;
}
);
};
};
},
{
glyphname = eth;
lastChange = "2016-08-02 10:36:59 +0000";
layers = (
{
layerId = "6D1B020D-7C4E-4885-9208-B35BA480FE8F";
paths = (
{
closed = 1;
nodes = (
"315 -11 OFFCURVE",
"357 79 OFFCURVE",
"375 248 CURVE SMOOTH",
"384 332 LINE SMOOTH",
"402 503 OFFCURVE",
"377 638 OFFCURVE",
"363 679 CURVE",
"432 697 LINE",
"436 730 LINE",
"353 709 LINE",
"320 793 OFFCURVE",
"248 822 OFFCURVE",
"150 828 CURVE",
"144 791 LINE",
"232 783 OFFCURVE",
"286 754 OFFCURVE",
"308 695 CURVE",
"218 671 LINE",
"215 638 LINE",
"320 666 LINE",
"333 635 OFFCURVE",
"339 575 OFFCURVE",
"341 529 CURVE",
"313 545 OFFCURVE",
"281 556 OFFCURVE",
"245 556 CURVE SMOOTH",
"148 556 OFFCURVE",
"85 477 OFFCURVE",
"66 302 CURVE SMOOTH",
"58 223 LINE SMOOTH",
"42 79 OFFCURVE",
"75 -11 OFFCURVE",
"193 -11 CURVE SMOOTH"
);
},
{
closed = 1;
nodes = (
"124 32 OFFCURVE",
"97 103 OFFCURVE",
"113 257 CURVE SMOOTH",
"133 448 OFFCURVE",
"179 514 OFFCURVE",
"252 514 CURVE SMOOTH",
"285 514 OFFCURVE",
"313 500 OFFCURVE",
"338 489 CURVE",
"339 480 OFFCURVE",
"333 335 OFFCURVE",
"327 283 CURVE SMOOTH",
"308 101 OFFCURVE",
"287 32 OFFCURVE",
"199 32 CURVE SMOOTH"
);
}
);
width = 430;
},
{
layerId = "BF03A18F-065F-4249-8E16-486B9CB494A0";
paths = (
{
closed = 1;
nodes = (
"352 -16 OFFCURVE",
"460 23 OFFCURVE",
"480 210 CURVE SMOOTH",
"506 459 LINE SMOOTH",
"524 632 OFFCURVE",
"490 719 OFFCURVE",
"468 755 CURVE",
"545 800 LINE",
"527 839 LINE",
"442 788 LINE",
"406 827 OFFCURVE",
"332 849 OFFCURVE",
"223 849 CURVE",
"203 740 LINE",
"261 740 OFFCURVE",
"300 729 OFFCURVE",
"310 713 CURVE",
"228 667 LINE",
"248 629 LINE",
"331 677 LINE",
"340 664 OFFCURVE",
"347 626 OFFCURVE",
"342 574 CURVE",
"323 582 OFFCURVE",
"300 587 OFFCURVE",
"272 587 CURVE SMOOTH",
"185 587 OFFCURVE",
"84 520 OFFCURVE",
"71 401 CURVE SMOOTH",
"51 208 LINE SMOOTH",
"34 43 OFFCURVE",
"128 -16 OFFCURVE",
"240 -16 CURVE SMOOTH"
);
},
{
closed = 1;
nodes = (
"210 98 OFFCURVE",
"217 145 OFFCURVE",
"232 290 CURVE SMOOTH",
"248 440 OFFCURVE",
"259 478 OFFCURVE",
"303 478 CURVE SMOOTH",
"313 478 OFFCURVE",
"322 475 OFFCURVE",
"331 472 CURVE",
"298 162 LINE SMOOTH",
"294 122 OFFCURVE",
"282 98 OFFCURVE",
"252 98 CURVE SMOOTH"
);
}
);
width = 531;
},
{
layerId = "43161617-4660-4075-B14A-1D8E25AEE542";
paths = (
{
closed = 1;
nodes = (
"339 -9 OFFCURVE",
"398 88 OFFCURVE",
"414 238 CURVE SMOOTH",
"429 375 LINE SMOOTH",
"440 488 OFFCURVE",
"421 621 OFFCURVE",
"398 680 CURVE",
"489 704 LINE",
"494 757 LINE",
"376 724 LINE",
"340 790 OFFCURVE",
"271 818 OFFCURVE",
"145 819 CURVE",
"133 751 LINE",
"227 750 OFFCURVE",
"269 731 OFFCURVE",
"292 698 CURVE",
"200 672 LINE",
"194 619 LINE",
"316 655 LINE",
"332 626 OFFCURVE",
"338 574 OFFCURVE",
"337 521 CURVE",
"319 539 OFFCURVE",
"290 557 OFFCURVE",
"244 557 CURVE SMOOTH",
"113 557 OFFCURVE",
"75 441 OFFCURVE",
"59 292 CURVE SMOOTH",
"52 224 LINE SMOOTH",
"37 80 OFFCURVE",
"55 -9 OFFCURVE",
"201 -9 CURVE SMOOTH"
);
},
{
closed = 1;
nodes = (
"127 73 OFFCURVE",
"150 176 OFFCURVE",
"161 283 CURVE SMOOTH",
"175 413 OFFCURVE",
"200 472 OFFCURVE",
"261 472 CURVE SMOOTH",
"302 472 OFFCURVE",
"321 448 OFFCURVE",
"330 439 CURVE",
"330 437 OFFCURVE",
"311 233 OFFCURVE",
"310 223 CURVE SMOOTH",
"300 131 OFFCURVE",
"286 73 OFFCURVE",
"213 73 CURVE SMOOTH"
);
}
);
width = 468;
}
);
unicode = 00F0;
userData = {
com.fontlab.hintData = {
hhints = (
{
position = -24;
width = 54;
},
{
position = 1089;
width = 50;
},
{
position = 1655;
width = 47;
}
);
vhints = (
{
position = 658;
width = 55;
}
);
};
};
},
{
glyphname = dcroat;
lastChange = "2016-08-02 10:36:59 +0000";
layers = (
{
layerId = "6D1B020D-7C4E-4885-9208-B35BA480FE8F";
paths = (
{
closed = 1;
nodes = (
"208 -9 OFFCURVE",
"244 19 OFFCURVE",
"268 44 CURVE",
"264 0 LINE",
"316 0 LINE",
"389 690 LINE",
"446 690 LINE",
"449 725 LINE",
"393 725 LINE",
"401 810 LINE",
"349 810 LINE",
"340 725 LINE",
"255 725 LINE",
"251 690 LINE",
"336 690 LINE",
"319 534 LINE",
"301 560 OFFCURVE",
"269 587 OFFCURVE",
"220 587 CURVE SMOOTH",
"114 587 OFFCURVE",
"78 503 OFFCURVE",
"61 340 CURVE SMOOTH",
"50 237 LINE SMOOTH",
"32 62 OFFCURVE",
"61 -9 OFFCURVE",
"160 -9 CURVE SMOOTH"
);
},
{
closed = 1;
nodes = (
"99 32 OFFCURVE",
"88 93 OFFCURVE",
"103 233 CURVE SMOOTH",
"115 353 LINE SMOOTH",
"129 488 OFFCURVE",
"150 546 OFFCURVE",
"224 546 CURVE SMOOTH",
"266 546 OFFCURVE",
"297 518 OFFCURVE",
"315 495 CURVE",
"272 81 LINE",
"245 54 OFFCURVE",
"210 32 OFFCURVE",
"172 32 CURVE SMOOTH"
);
}
);
width = 410;
},
{
layerId = "BF03A18F-065F-4249-8E16-486B9CB494A0";
paths = (
{
closed = 1;
nodes = (
"184 -11 OFFCURVE",
"225 10 OFFCURVE",
"267 46 CURVE",
"262 0 LINE",
"438 0 LINE",
"510 681 LINE",
"556 681 LINE",
"563 748 LINE",
"517 748 LINE",
"523 810 LINE",
"347 810 LINE",
"340 748 LINE",
"202 748 LINE",
"195 681 LINE",
"333 681 LINE",
"319 542 LINE",
"288 571 OFFCURVE",
"251 589 OFFCURVE",
"208 589 CURVE SMOOTH",
"126 589 OFFCURVE",
"69 523 OFFCURVE",
"59 423 CURVE SMOOTH",
"30 154 LINE SMOOTH",
"19 48 OFFCURVE",
"62 -11 OFFCURVE",
"145 -11 CURVE SMOOTH"
);
},
{
closed = 1;
nodes = (
"213 98 OFFCURVE",
"204 119 OFFCURVE",
"207 144 CURVE SMOOTH",
"237 434 LINE SMOOTH",
"240 462 OFFCURVE",
"254 482 OFFCURVE",
"279 482 CURVE SMOOTH",
"290 482 OFFCURVE",
"300 479 OFFCURVE",
"312 473 CURVE",
"273 111 LINE",
"259 103 OFFCURVE",
"246 98 OFFCURVE",
"237 98 CURVE SMOOTH"
);
}
);
width = 511;
},
{
layerId = "43161617-4660-4075-B14A-1D8E25AEE542";
paths = (
{
closed = 1;
nodes = (
"201 -8 OFFCURVE",
"234 11 OFFCURVE",
"261 37 CURVE",
"257 0 LINE",
"361 0 LINE",
"432 680 LINE",
"491 680 LINE",
"497 737 LINE",
"438 737 LINE",
"446 810 LINE",
"342 810 LINE",
"334 737 LINE",
"225 737 LINE",
"219 680 LINE",
"329 680 LINE",
"314 541 LINE",
"292 565 OFFCURVE",
"262 586 OFFCURVE",
"222 586 CURVE SMOOTH",
"105 586 OFFCURVE",
"69 473 OFFCURVE",
"56 339 CURVE SMOOTH",
"44 228 LINE SMOOTH",
"26 56 OFFCURVE",
"64 -9 OFFCURVE",
"163 -8 CURVE SMOOTH"
);
},
{
closed = 1;
nodes = (
"139 73 OFFCURVE",
"137 134 OFFCURVE",
"146 219 CURVE SMOOTH",
"163 379 LINE SMOOTH",
"170 450 OFFCURVE",
"189 505 OFFCURVE",
"241 505 CURVE SMOOTH",
"267 505 OFFCURVE",
"290 492 OFFCURVE",
"308 478 CURVE",
"268 97 LINE",
"244 82 OFFCURVE",
"219 73 OFFCURVE",
"198 73 CURVE SMOOTH"
);
}
);
width = 451;
}
);
unicode = 0111;
userData = {
com.fontlab.hintData = {
hhints = (
{
position = -20;
width = 50;
},
{
position = 1154;
width = 50;
}
);
};
};
},
{
glyphname = e;
lastChange = "2016-08-02 10:36:59 +0000";
layers = (
{
layerId = "6D1B020D-7C4E-4885-9208-B35BA480FE8F";
paths = (
{
closed = 1;
nodes = (
"280 -9 OFFCURVE",
"321 58 OFFCURVE",
"332 157 CURVE SMOOTH",
"336 195 LINE",
"284 195 LINE",
"279 152 LINE",
"268 41 OFFCURVE",
"217 31 OFFCURVE",
"175 31 CURVE SMOOTH",
"109 31 OFFCURVE",
"86 71 OFFCURVE",
"100 210 CURVE SMOOTH",
"110 302 LINE",
"346 302 LINE",
"353 357 LINE SMOOTH",
"371 523 OFFCURVE",
"343 587 OFFCURVE",
"235 587 CURVE SMOOTH",
"144 587 OFFCURVE",
"83 549 OFFCURVE",
"63 368 CURVE SMOOTH",
"47 214 LINE SMOOTH",
"29 35 OFFCURVE",
"80 -9 OFFCURVE",
"171 -9 CURVE SMOOTH"
);
},
{
closed = 1;
nodes = (
"118 378 LINE SMOOTH",
"132 515 OFFCURVE",
"166 547 OFFCURVE",
"231 547 CURVE SMOOTH",
"312 547 OFFCURVE",
"313 482 OFFCURVE",
"303 379 CURVE SMOOTH",
"298 334 LINE",
"113 334 LINE"
);
}
);
width = 379;
},
{
layerId = "BF03A18F-065F-4249-8E16-486B9CB494A0";
paths = (
{
closed = 1;
nodes = (
"341 -11 OFFCURVE",
"426 47 OFFCURVE",
"438 163 CURVE SMOOTH",
"445 229 LINE",
"283 229 LINE",
"276 161 LINE",
"272 123 OFFCURVE",
"252 114 OFFCURVE",
"233 114 CURVE SMOOTH",
"215 114 OFFCURVE",
"202 129 OFFCURVE",
"206 168 CURVE SMOOTH",
"217 277 LINE",
"450 277 LINE",
"464 410 LINE SMOOTH",
"477 529 OFFCURVE",
"407 589 OFFCURVE",
"284 589 CURVE SMOOTH",
"161 589 OFFCURVE",
"69 521 OFFCURVE",
"57 403 CURVE SMOOTH",
"33 175 LINE SMOOTH",
"20 57 OFFCURVE",
"98 -11 OFFCURVE",
"221 -11 CURVE SMOOTH"
);
},
{
closed = 1;
nodes = (
"232 411 LINE SMOOTH",
"236 451 OFFCURVE",
"253 464 OFFCURVE",
"270 464 CURVE SMOOTH",
"289 464 OFFCURVE",
"307 456 OFFCURVE",
"303 416 CURVE SMOOTH",
"297 357 LINE",
"226 357 LINE"
);
}
);
width = 481;
},
{
layerId = "43161617-4660-4075-B14A-1D8E25AEE542";
paths = (
{
closed = 1;
nodes = (
"305 -8 OFFCURVE",
"358 62 OFFCURVE",
"370 177 CURVE SMOOTH",
"373 201 LINE",
"271 201 LINE",
"268 165 LINE",
"261 104 OFFCURVE",
"245 68 OFFCURVE",
"196 68 CURVE SMOOTH",
"131 68 OFFCURVE",
"137 129 OFFCURVE",
"145 210 CURVE SMOOTH",
"153 288 LINE",
"382 288 LINE",
"387 335 LINE SMOOTH",
"404 494 OFFCURVE",
"393 586 OFFCURVE",
"250 586 CURVE SMOOTH",
"120 586 OFFCURVE",
"73 511 OFFCURVE",
"57 356 CURVE SMOOTH",
"43 222 LINE SMOOTH",
"27 70 OFFCURVE",
"54 -8 OFFCURVE",
"188 -8 CURVE SMOOTH"
);
},
{
closed = 1;
nodes = (
"163 376 LINE SMOOTH",
"173 478 OFFCURVE",
"189 510 OFFCURVE",
"242 510 CURVE SMOOTH",
"296 510 OFFCURVE",
"299 469 OFFCURVE",
"292 396 CURVE SMOOTH",
"287 344 LINE",
"160 344 LINE"
);
}
);
width = 418;
}
);
unicode = 0065;
userData = {
com.fontlab.hintData = {
hhints = (
{
position = -20;
width = 50;
},
{
position = 1154;
width = 50;
}
);
};
};
},
{
glyphname = f;
lastChange = "2016-08-02 10:36:59 +0000";
layers = (
{
layerId = "6D1B020D-7C4E-4885-9208-B35BA480FE8F";
paths = (
{
closed = 1;
nodes = (
"127 0 LINE",
"184 541 LINE",
"281 541 LINE",
"284 578 LINE",
"188 578 LINE",
"196 657 LINE SMOOTH",
"203 720 OFFCURVE",
"212 746 OFFCURVE",
"257 746 CURVE SMOOTH",
"270 746 OFFCURVE",
"286 742 OFFCURVE",
"299 740 CURVE",
"303 780 LINE",
"288 785 OFFCURVE",
"268 787 OFFCURVE",
"251 787 CURVE SMOOTH",
"163 787 OFFCURVE",
"151 729 OFFCURVE",
"143 656 CURVE",
"135 578 LINE",
"57 578 LINE",
"53 541 LINE",
"131 541 LINE",
"74 0 LINE"
);
}
);
width = 256;
},
{
layerId = "BF03A18F-065F-4249-8E16-486B9CB494A0";
paths = (
{
closed = 1;
nodes = (
"220 0 LINE",
"269 461 LINE",
"338 461 LINE",
"351 578 LINE",
"280 578 LINE",
"285 624 LINE SMOOTH",
"289 652 OFFCURVE",
"306 661 OFFCURVE",
"326 661 CURVE SMOOTH",
"338 661 OFFCURVE",
"350 658 OFFCURVE",
"359 657 CURVE",
"373 788 LINE",
"343 791 OFFCURVE",
"317 792 OFFCURVE",
"294 792 CURVE SMOOTH",
"146 792 OFFCURVE",
"120 725 OFFCURVE",
"109 624 CURVE",
"104 578 LINE",
"52 578 LINE",
"41 461 LINE",
"92 461 LINE",
"43 0 LINE"
);
}
);
width = 329;
},
{
layerId = "43161617-4660-4075-B14A-1D8E25AEE542";
paths = (
{
closed = 1;
nodes = (
"168 0 LINE",
"221 501 LINE",
"310 501 LINE",
"317 578 LINE",
"229 578 LINE",
"234 628 LINE SMOOTH",
"239 674 OFFCURVE",
"249 704 OFFCURVE",
"291 704 CURVE SMOOTH",
"302 704 OFFCURVE",
"318 700 OFFCURVE",
"330 699 CURVE",
"338 776 LINE",
"312 779 OFFCURVE",
"296 782 OFFCURVE",
"271 782 CURVE SMOOTH",
"163 782 OFFCURVE",
"140 716 OFFCURVE",
"129 611 CURVE",
"125 578 LINE",
"56 578 LINE",
"48 501 LINE",
"118 501 LINE",
"65 0 LINE"
);
}
);
width = 285;
}
);
unicode = 0066;
userData = {
com.fontlab.hintData = {
hhints = (
{
position = 1564;
width = 53;
}
);
};
};
},
{
glyphname = g;
lastChange = "2016-08-02 10:36:59 +0000";
layers = (
{
layerId = "6D1B020D-7C4E-4885-9208-B35BA480FE8F";
paths = (
{
closed = 1;
nodes = (
"259 -196 OFFCURVE",
"350 -159 OFFCURVE",
"359 -68 CURVE SMOOTH",
"367 7 OFFCURVE",
"314 41 OFFCURVE",
"222 61 CURVE SMOOTH",
"205 65 OFFCURVE",
"157 73 OFFCURVE",
"129 81 CURVE SMOOTH",
"102 86 OFFCURVE",
"83 93 OFFCURVE",
"83 101 CURVE SMOOTH",
"86 124 OFFCURVE",
"125 168 OFFCURVE",
"145 194 CURVE",
"158 188 OFFCURVE",
"183 184 OFFCURVE",
"205 184 CURVE SMOOTH",
"319 184 OFFCURVE",
"374 272 OFFCURVE",
"385 387 CURVE SMOOTH",
"388 411 OFFCURVE",
"385 459 OFFCURVE",
"377 485 CURVE",
"399 510 OFFCURVE",
"441 535 OFFCURVE",
"477 543 CURVE",
"465 583 LINE",
"451 578 LINE",
"416 564 OFFCURVE",
"382 535 OFFCURVE",
"366 510 CURVE",
"349 549 OFFCURVE",
"317 587 OFFCURVE",
"246 587 CURVE SMOOTH",
"132 587 OFFCURVE",
"74 483 OFFCURVE",
"64 388 CURVE SMOOTH",
"57 316 OFFCURVE",
"68 250 OFFCURVE",
"121 209 CURVE",
"90 177 OFFCURVE",
"41 124 OFFCURVE",
"37 84 CURVE SMOOTH",
"34 64 OFFCURVE",
"74 48 OFFCURVE",
"102 41 CURVE",
"49 15 OFFCURVE",
"-10 -35 OFFCURVE",
"-16 -94 CURVE SMOOTH",
"-23 -163 OFFCURVE",
"39 -196 OFFCURVE",
"161 -196 CURVE SMOOTH"
);
},
{
closed = 1;
nodes = (
"75 -153 OFFCURVE",
"26 -132 OFFCURVE",
"32 -81 CURVE SMOOTH",
"37 -26 OFFCURVE",
"99 12 OFFCURVE",
"135 32 CURVE",
"198 21 LINE SMOOTH",
"302 -1 OFFCURVE",
"320 -27 OFFCURVE",
"315 -69 CURVE SMOOTH",
"309 -128 OFFCURVE",
"244 -153 OFFCURVE",
"165 -153 CURVE SMOOTH"
);
},
{
closed = 1;
nodes = (
"110 223 OFFCURVE",
"107 326 OFFCURVE",
"113 388 CURVE",
"119 442 OFFCURVE",
"150 548 OFFCURVE",
"243 548 CURVE SMOOTH",
"335 548 OFFCURVE",
"344 449 OFFCURVE",
"337 388 CURVE",
"331 324 OFFCURVE",
"308 223 OFFCURVE",
"209 223 CURVE SMOOTH"
);
}
);
width = 429;
},
{
layerId = "BF03A18F-065F-4249-8E16-486B9CB494A0";
paths = (
{
closed = 1;
nodes = (
"404 -172 OFFCURVE",
"459 -104 OFFCURVE",
"468 -20 CURVE SMOOTH",
"476 58 OFFCURVE",
"446 101 OFFCURVE",
"326 118 CURVE SMOOTH",
"272 126 OFFCURVE",
"223 132 OFFCURVE",
"192 138 CURVE SMOOTH",
"159 143 OFFCURVE",
"141 149 OFFCURVE",
"139 159 CURVE SMOOTH",
"138 170 OFFCURVE",
"148 184 OFFCURVE",
"162 199 CURVE",
"187 188 OFFCURVE",
"226 179 OFFCURVE",
"263 179 CURVE SMOOTH",
"397 179 OFFCURVE",
"469 255 OFFCURVE",
"481 376 CURVE SMOOTH",
"488 437 OFFCURVE",
"475 472 OFFCURVE",
"462 491 CURVE",
"494 509 OFFCURVE",
"546 532 OFFCURVE",
"563 538 CURVE",
"531 619 LINE",
"507 608 LINE",
"478 592 OFFCURVE",
"447 566 OFFCURVE",
"422 542 CURVE",
"397 573 OFFCURVE",
"347 589 OFFCURVE",
"292 589 CURVE SMOOTH",
"163 589 OFFCURVE",
"73 524 OFFCURVE",
"57 374 CURVE SMOOTH",
"50 304 OFFCURVE",
"71 264 OFFCURVE",
"104 238 CURVE",
"57 204 OFFCURVE",
"14 169 OFFCURVE",
"20 119 CURVE SMOOTH",
"22 93 OFFCURVE",
"40 75 OFFCURVE",
"90 54 CURVE",
"51 26 OFFCURVE",
"1 -12 OFFCURVE",
"-4 -57 CURVE SMOOTH",
"-15 -164 OFFCURVE",
"147 -172 OFFCURVE",
"234 -172 CURVE SMOOTH"
);
},
{
closed = 1;
nodes = (
"185 -67 OFFCURVE",
"163 -53 OFFCURVE",
"166 -26 CURVE SMOOTH",
"167 -8 OFFCURVE",
"181 12 OFFCURVE",
"191 28 CURVE",
"275 16 LINE SMOOTH",
"319 10 OFFCURVE",
"336 -1 OFFCURVE",
"327 -36 CURVE SMOOTH",
"321 -59 OFFCURVE",
"296 -67 OFFCURVE",
"246 -67 CURVE SMOOTH"
);
},
{
closed = 1;
nodes = (
"229 282 OFFCURVE",
"229 317 OFFCURVE",
"236 384 CURVE",
"243 449 OFFCURVE",
"246 486 OFFCURVE",
"284 486 CURVE SMOOTH",
"323 486 OFFCURVE",
"321 458 OFFCURVE",
"314 384 CURVE",
"306 312 OFFCURVE",
"298 282 OFFCURVE",
"263 282 CURVE SMOOTH"
);
}
);
width = 517;
},
{
layerId = "43161617-4660-4075-B14A-1D8E25AEE542";
paths = (
{
closed = 1;
nodes = (
"304 -180 OFFCURVE",
"365 -141 OFFCURVE",
"376 -37 CURVE SMOOTH",
"385 49 OFFCURVE",
"342 94 OFFCURVE",
"256 103 CURVE SMOOTH",
"252 104 OFFCURVE",
"172 111 OFFCURVE",
"167 112 CURVE SMOOTH",
"134 115 OFFCURVE",
"120 123 OFFCURVE",
"121 137 CURVE SMOOTH",
"123 153 OFFCURVE",
"138 172 OFFCURVE",
"147 185 CURVE",
"149 184 OFFCURVE",
"188 177 OFFCURVE",
"202 177 CURVE SMOOTH",
"322 177 OFFCURVE",
"370 260 OFFCURVE",
"382 377 CURVE SMOOTH",
"386 410 OFFCURVE",
"383 460 OFFCURVE",
"375 483 CURVE",
"388 493 OFFCURVE",
"451 516 OFFCURVE",
"478 521 CURVE",
"459 589 LINE",
"441 582 LINE",
"401 564 OFFCURVE",
"365 532 OFFCURVE",
"357 522 CURVE",
"342 563 OFFCURVE",
"307 586 OFFCURVE",
"244 586 CURVE SMOOTH",
"137 586 OFFCURVE",
"75 513 OFFCURVE",
"61 381 CURVE SMOOTH",
"51 290 OFFCURVE",
"69 242 OFFCURVE",
"110 208 CURVE",
"67 172 OFFCURVE",
"39 145 OFFCURVE",
"34 102 CURVE SMOOTH",
"31 76 OFFCURVE",
"48 52 OFFCURVE",
"84 41 CURVE",
"39 18 OFFCURVE",
"-7 -26 OFFCURVE",
"-14 -89 CURVE SMOOTH",
"-22 -170 OFFCURVE",
"78 -180 OFFCURVE",
"189 -180 CURVE SMOOTH"
);
},
{
closed = 1;
nodes = (
"92 -98 OFFCURVE",
"75 -83 OFFCURVE",
"79 -49 CURVE SMOOTH",
"82 -12 OFFCURVE",
"117 19 OFFCURVE",
"132 29 CURVE",
"221 21 LINE SMOOTH",
"286 14 OFFCURVE",
"300 -4 OFFCURVE",
"296 -40 CURVE SMOOTH",
"292 -81 OFFCURVE",
"259 -98 OFFCURVE",
"197 -98 CURVE SMOOTH"
);
},
{
closed = 1;
nodes = (
"147 251 OFFCURVE",
"144 309 OFFCURVE",
"151 381 CURVE",
"160 463 OFFCURVE",
"176 514 OFFCURVE",
"238 514 CURVE SMOOTH",
"300 514 OFFCURVE",
"303 460 OFFCURVE",
"295 381 CURVE",
"287 301 OFFCURVE",
"272 251 OFFCURVE",
"209 251 CURVE SMOOTH"
);
}
);
width = 435;
}
);
unicode = 0067;
userData = {
com.fontlab.hintData = {
hhints = (
{
position = -415;
width = 53;
},
{
position = 382;
width = 49;
},
{
position = 1154;
width = 50;
}
);
};
};
},
{
glyphname = gcommaaccent;
lastChange = "2016-08-02 10:36:59 +0000";
layers = (
{
layerId = "6D1B020D-7C4E-4885-9208-B35BA480FE8F";
paths = (
{
closed = 1;
nodes = (
"257 -199 OFFCURVE",
"354 -158 OFFCURVE",
"363 -73 CURVE SMOOTH",
"371 -3 OFFCURVE",
"317 28 OFFCURVE",
"219 52 CURVE SMOOTH",
"191 59 OFFCURVE",
"156 66 OFFCURVE",
"119 76 CURVE SMOOTH",
"93 83 OFFCURVE",
"72 90 OFFCURVE",
"72 94 CURVE SMOOTH",
"75 119 OFFCURVE",
"119 169 OFFCURVE",
"142 199 CURVE",
"161 190 OFFCURVE",
"182 186 OFFCURVE",
"210 186 CURVE SMOOTH",
"324 186 OFFCURVE",
"384 274 OFFCURVE",
"396 389 CURVE SMOOTH",
"398 415 OFFCURVE",
"394 461 OFFCURVE",
"386 487 CURVE",
"413 516 OFFCURVE",
"447 542 OFFCURVE",
"484 551 CURVE",
"473 586 LINE",
"458 581 LINE",
"426 568 OFFCURVE",
"393 541 OFFCURVE",
"372 510 CURVE",
"354 547 OFFCURVE",
"321 588 OFFCURVE",
"249 588 CURVE SMOOTH",
"130 588 OFFCURVE",
"69 477 OFFCURVE",
"60 389 CURVE SMOOTH",
"53 324 OFFCURVE",
"63 255 OFFCURVE",
"119 213 CURVE",
"90 183 OFFCURVE",
"33 122 OFFCURVE",
"30 83 CURVE SMOOTH",
"29 63 OFFCURVE",
"74 50 OFFCURVE",
"102 42 CURVE",
"49 15 OFFCURVE",
"-14 -36 OFFCURVE",
"-20 -90 CURVE SMOOTH",
"-27 -160 OFFCURVE",
"35 -199 OFFCURVE",
"155 -199 CURVE SMOOTH"
);
},
{
closed = 1;
nodes = (
"79 -162 OFFCURVE",
"21 -140 OFFCURVE",
"27 -86 CURVE SMOOTH",
"33 -29 OFFCURVE",
"99 10 OFFCURVE",
"140 32 CURVE",
"195 20 LINE SMOOTH",
"306 -6 OFFCURVE",
"325 -32 OFFCURVE",
"319 -76 CURVE SMOOTH",
"313 -137 OFFCURVE",
"240 -162 OFFCURVE",
"159 -162 CURVE SMOOTH"
);
},
{
closed = 1;
nodes = (
"108 220 OFFCURVE",
"105 332 OFFCURVE",
"111 391 CURVE",
"116 435 OFFCURVE",
"148 553 OFFCURVE",
"246 553 CURVE SMOOTH",
"342 553 OFFCURVE",
"352 446 OFFCURVE",
"346 390 CURVE",
"340 332 OFFCURVE",
"316 220 OFFCURVE",
"212 220 CURVE SMOOTH"
);
},
{
closed = 1;
nodes = (
"345 732 LINE",
"353 807 LINE",
"317 807 LINE",
"319 828 OFFCURVE",
"332 872 OFFCURVE",
"367 900 CURVE",
"361 914 LINE",
"316 888 OFFCURVE",
"295 855 OFFCURVE",
"289 791 CURVE SMOOTH",
"282 732 LINE"
);
}
);
width = 440;
},
{
layerId = "BF03A18F-065F-4249-8E16-486B9CB494A0";
paths = (
{
closed = 1;
nodes = (
"398 -173 OFFCURVE",
"456 -104 OFFCURVE",
"464 -21 CURVE SMOOTH",
"472 55 OFFCURVE",
"442 97 OFFCURVE",
"320 116 CURVE SMOOTH",
"264 125 OFFCURVE",
"217 130 OFFCURVE",
"185 136 CURVE SMOOTH",
"151 142 OFFCURVE",
"132 148 OFFCURVE",
"131 157 CURVE SMOOTH",
"130 168 OFFCURVE",
"141 184 OFFCURVE",
"156 201 CURVE",
"183 188 OFFCURVE",
"221 180 OFFCURVE",
"260 180 CURVE SMOOTH",
"394 180 OFFCURVE",
"467 256 OFFCURVE",
"480 376 CURVE SMOOTH",
"486 438 OFFCURVE",
"472 473 OFFCURVE",
"459 492 CURVE",
"494 511 OFFCURVE",
"543 535 OFFCURVE",
"560 541 CURVE",
"528 620 LINE",
"504 608 LINE",
"476 594 OFFCURVE",
"445 568 OFFCURVE",
"419 542 CURVE",
"394 572 OFFCURVE",
"343 589 OFFCURVE",
"288 589 CURVE SMOOTH",
"157 589 OFFCURVE",
"66 522 OFFCURVE",
"51 374 CURVE SMOOTH",
"44 307 OFFCURVE",
"65 266 OFFCURVE",
"99 239 CURVE",
"52 206 OFFCURVE",
"7 168 OFFCURVE",
"13 118 CURVE SMOOTH",
"16 93 OFFCURVE",
"35 75 OFFCURVE",
"86 55 CURVE",
"46 27 OFFCURVE",
"-5 -12 OFFCURVE",
"-10 -55 CURVE SMOOTH",
"-21 -164 OFFCURVE",
"141 -173 OFFCURVE",
"228 -173 CURVE SMOOTH"
);
},
{
closed = 1;
nodes = (
"182 -70 OFFCURVE",
"157 -56 OFFCURVE",
"160 -27 CURVE SMOOTH",
"161 -9 OFFCURVE",
"175 12 OFFCURVE",
"188 28 CURVE",
"270 16 LINE SMOOTH",
"316 9 OFFCURVE",
"333 -2 OFFCURVE",
"323 -38 CURVE SMOOTH",
"317 -62 OFFCURVE",
"291 -70 OFFCURVE",
"239 -70 CURVE SMOOTH"
);
},
{
closed = 1;
nodes = (
"223 281 OFFCURVE",
"223 318 OFFCURVE",
"230 385 CURVE",
"237 447 OFFCURVE",
"240 487 OFFCURVE",
"280 487 CURVE SMOOTH",
"320 487 OFFCURVE",
"319 457 OFFCURVE",
"312 385 CURVE",
"304 314 OFFCURVE",
"296 281 OFFCURVE",
"259 281 CURVE SMOOTH"
);
},
{
closed = 1;
nodes = (
"403 723 LINE",
"419 885 LINE",
"328 885 LINE",
"334 947 OFFCURVE",
"375 965 OFFCURVE",
"411 974 CURVE",
"409 1026 LINE",
"317 1024 OFFCURVE",
"265 965 OFFCURVE",
"253 859 CURVE SMOOTH",
"239 723 LINE"
);
}
);
width = 440;
},
{
layerId = "43161617-4660-4075-B14A-1D8E25AEE542";
paths = (
{
closed = 1;
nodes = (
"309 -189 OFFCURVE",
"391 -138 OFFCURVE",
"400 -55 CURVE SMOOTH",
"408 18 OFFCURVE",
"362 53 OFFCURVE",
"255 75 CURVE SMOOTH",
"217 83 OFFCURVE",
"178 90 OFFCURVE",
"143 98 CURVE SMOOTH",
"114 104 OFFCURVE",
"94 111 OFFCURVE",
"93 117 CURVE SMOOTH",
"94 137 OFFCURVE",
"127 174 OFFCURVE",
"147 199 CURVE",
"169 189 OFFCURVE",
"196 184 OFFCURVE",
"228 184 CURVE SMOOTH",
"349 184 OFFCURVE",
"414 268 OFFCURVE",
"426 384 CURVE SMOOTH",
"430 423 OFFCURVE",
"422 465 OFFCURVE",
"412 488 CURVE",
"442 514 OFFCURVE",
"481 539 OFFCURVE",
"512 547 CURVE",
"493 599 LINE",
"475 591 LINE",
"444 578 OFFCURVE",
"412 551 OFFCURVE",
"389 521 CURVE",
"368 556 OFFCURVE",
"329 588 OFFCURVE",
"263 588 CURVE SMOOTH",
"140 588 OFFCURVE",
"68 494 OFFCURVE",
"57 384 CURVE SMOOTH",
"50 318 OFFCURVE",
"64 259 OFFCURVE",
"111 223 CURVE",
"76 191 OFFCURVE",
"23 138 OFFCURVE",
"24 96 CURVE SMOOTH",
"24 74 OFFCURVE",
"60 59 OFFCURVE",
"96 47 CURVE",
"48 19 OFFCURVE",
"-11 -27 OFFCURVE",
"-17 -78 CURVE SMOOTH",
"-25 -161 OFFCURVE",
"73 -189 OFFCURVE",
"182 -189 CURVE SMOOTH"
);
},
{
closed = 1;
nodes = (
"116 -129 OFFCURVE",
"70 -110 OFFCURVE",
"75 -65 CURVE SMOOTH",
"80 -22 OFFCURVE",
"126 10 OFFCURVE",
"157 31 CURVE",
"222 19 LINE SMOOTH",
"310 -1 OFFCURVE",
"328 -21 OFFCURVE",
"321 -63 CURVE SMOOTH",
"314 -110 OFFCURVE",
"258 -129 OFFCURVE",
"188 -129 CURVE SMOOTH"
);
},
{
closed = 1;
nodes = (
"149 242 OFFCURVE",
"148 327 OFFCURVE",
"154 389 CURVE",
"160 439 OFFCURVE",
"182 529 OFFCURVE",
"258 529 CURVE SMOOTH",
"334 529 OFFCURVE",
"340 450 OFFCURVE",
"333 388 CURVE",
"327 325 OFFCURVE",
"309 242 OFFCURVE",
"229 242 CURVE SMOOTH"
);
},
{
closed = 1;
nodes = (
"366 729 LINE",
"377 835 LINE",
"321 835 LINE",
"325 871 OFFCURVE",
"347 905 OFFCURVE",
"383 926 CURVE",
"379 955 LINE",
"316 937 OFFCURVE",
"284 895 OFFCURVE",
"276 815 CURVE SMOOTH",
"267 729 LINE"
);
}
);
width = 440;
}
);
unicode = 0123;
userData = {
com.fontlab.hintData = {
hhints = (
{
position = -415;
width = 53;
},
{
position = 382;
width = 49;
},
{
position = 1154;
width = 50;
}
);
vhints = (
{
position = 592;
width = 97;
}
);
};
};
},
{
glyphname = h;
lastChange = "2016-08-02 10:36:59 +0000";
layers = (
{
layerId = "6D1B020D-7C4E-4885-9208-B35BA480FE8F";
paths = (
{
closed = 1;
nodes = (
"90 0 LINE",
"140 482 LINE",
"178 520 OFFCURVE",
"223 546 OFFCURVE",
"261 546 CURVE SMOOTH",
"298 546 OFFCURVE",
"319 526 OFFCURVE",
"313 455 CURVE SMOOTH",
"264 0 LINE",
"318 0 LINE",
"366 461 LINE SMOOTH",
"376 553 OFFCURVE",
"340 587 OFFCURVE",
"289 587 CURVE SMOOTH",
"236 587 OFFCURVE",
"185 559 OFFCURVE",
"144 517 CURVE",
"175 810 LINE",
"122 810 LINE",
"37 0 LINE"
);
}
);
width = 392;
},
{
layerId = "BF03A18F-065F-4249-8E16-486B9CB494A0";
paths = (
{
closed = 1;
nodes = (
"202 0 LINE",
"249 448 LINE",
"269 460 OFFCURVE",
"286 465 OFFCURVE",
"298 465 CURVE SMOOTH",
"320 466 OFFCURVE",
"325 453 OFFCURVE",
"323 428 CURVE SMOOTH",
"278 0 LINE",
"454 0 LINE",
"501 449 LINE SMOOTH",
"510 532 OFFCURVE",
"475 589 OFFCURVE",
"404 589 CURVE SMOOTH",
"354 589 OFFCURVE",
"307 573 OFFCURVE",
"258 529 CURVE",
"287 810 LINE",
"111 810 LINE",
"26 0 LINE"
);
}
);
width = 524;
},
{
layerId = "43161617-4660-4075-B14A-1D8E25AEE542";
paths = (
{
closed = 1;
nodes = (
"137 0 LINE",
"185 465 LINE",
"213 487 OFFCURVE",
"245 505 OFFCURVE",
"271 505 CURVE SMOOTH",
"308 505 OFFCURVE",
"314 481 OFFCURVE",
"310 438 CURVE SMOOTH",
"264 0 LINE",
"367 0 LINE",
"417 467 LINE SMOOTH",
"423 526 OFFCURVE",
"410 586 OFFCURVE",
"342 586 CURVE SMOOTH",
"285 586 OFFCURVE",
"234 556 OFFCURVE",
"191 518 CURVE",
"222 810 LINE",
"118 810 LINE",
"33 0 LINE"
);
}
);
width = 442;
}
);
unicode = 0068;
userData = {
com.fontlab.hintData = {
hhints = (
{
position = 1154;
width = 50;
}
);
};
};
},
{
glyphname = hbar;
lastChange = "2016-08-02 10:36:59 +0000";
layers = (
{
layerId = "6D1B020D-7C4E-4885-9208-B35BA480FE8F";
paths = (
{
closed = 1;
nodes = (
"89 0 LINE",
"140 482 LINE",
"177 520 OFFCURVE",
"222 546 OFFCURVE",
"261 546 CURVE SMOOTH",
"297 546 OFFCURVE",
"319 526 OFFCURVE",
"312 455 CURVE SMOOTH",
"264 0 LINE",
"317 0 LINE",
"366 461 LINE SMOOTH",
"375 553 OFFCURVE",
"339 587 OFFCURVE",
"288 587 CURVE SMOOTH",
"235 587 OFFCURVE",
"185 559 OFFCURVE",
"143 517 CURVE",
"163 701 LINE",
"281 701 LINE",
"285 735 LINE",
"166 735 LINE",
"174 810 LINE",
"121 810 LINE",
"113 735 LINE",
"48 735 LINE",
"44 701 LINE",
"109 701 LINE",
"36 0 LINE"
);
}
);
width = 391;
},
{
layerId = "BF03A18F-065F-4249-8E16-486B9CB494A0";
paths = (
{
closed = 1;
nodes = (
"203 0 LINE",
"250 448 LINE",
"270 460 OFFCURVE",
"286 465 OFFCURVE",
"298 465 CURVE SMOOTH",
"321 466 OFFCURVE",
"326 453 OFFCURVE",
"323 428 CURVE SMOOTH",
"278 0 LINE",
"455 0 LINE",
"502 449 LINE SMOOTH",
"511 532 OFFCURVE",
"476 589 OFFCURVE",
"405 589 CURVE SMOOTH",
"355 589 OFFCURVE",
"308 573 OFFCURVE",
"259 529 CURVE",
"273 667 LINE",
"389 667 LINE",
"397 745 LINE",
"281 745 LINE",
"288 810 LINE",
"112 810 LINE",
"105 745 LINE",
"63 745 LINE",
"54 667 LINE",
"97 667 LINE",
"27 0 LINE"
);
}
);
width = 525;
},
{
layerId = "43161617-4660-4075-B14A-1D8E25AEE542";
paths = (
{
closed = 1;
nodes = (
"136 0 LINE",
"185 465 LINE",
"213 487 OFFCURVE",
"244 505 OFFCURVE",
"270 505 CURVE SMOOTH",
"308 505 OFFCURVE",
"314 481 OFFCURVE",
"310 438 CURVE SMOOTH",
"264 0 LINE",
"367 0 LINE",
"417 467 LINE SMOOTH",
"422 526 OFFCURVE",
"410 586 OFFCURVE",
"342 586 CURVE SMOOTH",
"284 586 OFFCURVE",
"233 556 OFFCURVE",
"191 518 CURVE",
"209 691 LINE",
"331 691 LINE",
"337 750 LINE",
"215 750 LINE",
"221 810 LINE",
"118 810 LINE",
"112 750 LINE",
"49 750 LINE",
"42 691 LINE",
"105 691 LINE",
"33 0 LINE"
);
}
);
width = 442;
}
);
unicode = 0127;
userData = {
com.fontlab.hintData = {
hhints = (
{
position = 1154;
width = 50;
}
);
};
};
},
{
glyphname = i;
lastChange = "2016-08-02 10:36:59 +0000";
layers = (
{
layerId = "6D1B020D-7C4E-4885-9208-B35BA480FE8F";
paths = (
{
closed = 1;
nodes = (
"98 0 LINE",
"158 578 LINE",
"105 578 LINE",
"45 0 LINE"
);
},
{
closed = 1;
nodes = (
"167 654 LINE",
"176 746 LINE",
"123 746 LINE",
"114 654 LINE"
);
}
);
width = 189;
},
{
layerId = "BF03A18F-065F-4249-8E16-486B9CB494A0";
paths = (
{
closed = 1;
nodes = (
"202 0 LINE",
"262 578 LINE",
"86 578 LINE",
"25 0 LINE"
);
},
{
closed = 1;
nodes = (
"273 678 LINE",
"285 793 LINE",
"108 793 LINE",
"96 678 LINE"
);
}
);
width = 275;
},
{
layerId = "43161617-4660-4075-B14A-1D8E25AEE542";
paths = (
{
closed = 1;
nodes = (
"141 0 LINE",
"202 578 LINE",
"98 578 LINE",
"38 0 LINE"
);
},
{
closed = 1;
nodes = (
"211 663 LINE",
"223 774 LINE",
"119 774 LINE",
"107 663 LINE"
);
}
);
width = 226;
}
);
unicode = 0069;
},
{
glyphname = idotless;
lastChange = "2016-08-02 10:42:05 +0000";
layers = (
{
layerId = "6D1B020D-7C4E-4885-9208-B35BA480FE8F";
paths = (
{
closed = 1;
nodes = (
"97 0 LINE",
"158 578 LINE",
"104 578 LINE",
"44 0 LINE"
);
}
);
width = 182;
},
{
layerId = "BF03A18F-065F-4249-8E16-486B9CB494A0";
paths = (
{
closed = 1;
nodes = (
"210 0 LINE",
"271 578 LINE",
"95 578 LINE",
"34 0 LINE"
);
}
);
width = 293;
},
{
layerId = "43161617-4660-4075-B14A-1D8E25AEE542";
paths = (
{
closed = 1;
nodes = (
"141 0 LINE",
"202 578 LINE",
"98 578 LINE",
"38 0 LINE"
);
}
);
width = 222;
}
);
unicode = 0131;
},
{
glyphname = j;
lastChange = "2016-08-02 10:36:59 +0000";
layers = (
{
layerId = "6D1B020D-7C4E-4885-9208-B35BA480FE8F";
paths = (
{
closed = 1;
nodes = (
"52 -155 OFFCURVE",
"101 -121 OFFCURVE",
"110 -28 CURVE SMOOTH",
"174 578 LINE",
"121 578 LINE",
"57 -25 LINE SMOOTH",
"53 -67 OFFCURVE",
"45 -111 OFFCURVE",
"-25 -111 CURVE SMOOTH",
"-27 -111 OFFCURVE",
"-46 -111 OFFCURVE",
"-48 -110 CURVE",
"-52 -153 LINE",
"-48 -154 OFFCURVE",
"-28 -155 OFFCURVE",
"-23 -155 CURVE SMOOTH"
);
},
{
closed = 1;
nodes = (
"182 654 LINE",
"192 746 LINE",
"138 746 LINE",
"129 654 LINE"
);
}
);
width = 202;
},
{
layerId = "BF03A18F-065F-4249-8E16-486B9CB494A0";
paths = (
{
closed = 1;
nodes = (
"145 -188 OFFCURVE",
"202 -121 OFFCURVE",
"211 -29 CURVE SMOOTH",
"275 578 LINE",
"99 578 LINE",
"38 -8 LINE SMOOTH",
"34 -41 OFFCURVE",
"15 -51 OFFCURVE",
"-7 -51 CURVE SMOOTH",
"-17 -51 OFFCURVE",
"-26 -49 OFFCURVE",
"-36 -47 CURVE",
"-49 -174 LINE",
"-21 -182 OFFCURVE",
"10 -188 OFFCURVE",
"44 -188 CURVE SMOOTH"
);
},
{
closed = 1;
nodes = (
"286 678 LINE",
"298 793 LINE",
"121 793 LINE",
"109 678 LINE"
);
}
);
width = 288;
},
{
layerId = "43161617-4660-4075-B14A-1D8E25AEE542";
paths = (
{
closed = 1;
nodes = (
"82 -146 OFFCURVE",
"139 -98 OFFCURVE",
"149 -8 CURVE SMOOTH",
"210 578 LINE",
"107 578 LINE",
"46 3 LINE SMOOTH",
"42 -38 OFFCURVE",
"26 -68 OFFCURVE",
"-21 -68 CURVE SMOOTH",
"-28 -68 OFFCURVE",
"-43 -66 OFFCURVE",
"-49 -65 CURVE",
"-57 -140 LINE",
"-44 -145 OFFCURVE",
"-21 -146 OFFCURVE",
"-5 -146 CURVE SMOOTH"
);
},
{
closed = 1;
nodes = (
"220 663 LINE",
"232 774 LINE",
"127 774 LINE",
"116 663 LINE"
);
}
);
width = 229;
}
);
unicode = 006A;
userData = {
com.fontlab.hintData = {
hhints = (
{
position = -324;
width = 58;
}
);
};
};
},
{
glyphname = jdotless;
lastChange = "2016-08-02 10:42:05 +0000";
layers = (
{
layerId = "6D1B020D-7C4E-4885-9208-B35BA480FE8F";
paths = (
{
closed = 1;
nodes = (
"51 -159 OFFCURVE",
"100 -125 OFFCURVE",
"110 -32 CURVE SMOOTH",
"174 578 LINE",
"121 578 LINE",
"57 -28 LINE SMOOTH",
"53 -71 OFFCURVE",
"44 -115 OFFCURVE",
"-25 -115 CURVE SMOOTH",
"-27 -115 OFFCURVE",
"-46 -115 OFFCURVE",
"-48 -114 CURVE",
"-53 -157 LINE",
"-49 -158 OFFCURVE",
"-28 -159 OFFCURVE",
"-23 -159 CURVE SMOOTH"
);
}
);
width = 202;
},
{
layerId = "BF03A18F-065F-4249-8E16-486B9CB494A0";
paths = (
{
closed = 1;
nodes = (
"142 -189 OFFCURVE",
"199 -122 OFFCURVE",
"209 -31 CURVE SMOOTH",
"272 578 LINE",
"96 578 LINE",
"35 -9 LINE SMOOTH",
"31 -42 OFFCURVE",
"12 -53 OFFCURVE",
"-10 -53 CURVE SMOOTH",
"-20 -53 OFFCURVE",
"-29 -50 OFFCURVE",
"-39 -48 CURVE",
"-52 -175 LINE",
"-23 -183 OFFCURVE",
"7 -189 OFFCURVE",
"41 -189 CURVE SMOOTH"
);
}
);
width = 279;
},
{
layerId = "43161617-4660-4075-B14A-1D8E25AEE542";
paths = (
{
closed = 1;
nodes = (
"80 -159 OFFCURVE",
"138 -111 OFFCURVE",
"147 -21 CURVE SMOOTH",
"210 578 LINE",
"107 578 LINE",
"45 -10 LINE SMOOTH",
"41 -51 OFFCURVE",
"24 -81 OFFCURVE",
"-23 -81 CURVE SMOOTH",
"-30 -81 OFFCURVE",
"-44 -79 OFFCURVE",
"-50 -78 CURVE",
"-58 -153 LINE",
"-46 -158 OFFCURVE",
"-23 -159 OFFCURVE",
"-6 -159 CURVE SMOOTH"
);
}
);
width = 229;
}
);
unicode = 0237;
userData = {
com.fontlab.hintData = {
hhints = (
{
position = -324;
width = 58;
}
);
};
};
},
{
glyphname = k;
lastChange = "2016-08-02 10:36:59 +0000";
layers = (
{
layerId = "6D1B020D-7C4E-4885-9208-B35BA480FE8F";
paths = (
{
closed = 1;
nodes = (
"353 0 LINE",
"247 357 LINE",
"422 578 LINE",
"365 578 LINE",
"119 276 LINE",
"174 810 LINE",
"122 810 LINE",
"36 0 LINE",
"89 0 LINE",
"112 217 LINE",
"204 325 LINE",
"299 0 LINE"
);
}
);
width = 383;
},
{
layerId = "BF03A18F-065F-4249-8E16-486B9CB494A0";
paths = (
{
closed = 1;
nodes = (
"200 0 LINE",
"223 220 LINE",
"271 270 LINE",
"342 0 LINE",
"538 0 LINE",
"417 339 LINE",
"600 578 LINE",
"399 578 LINE",
"239 368 LINE",
"285 810 LINE",
"111 810 LINE",
"26 0 LINE"
);
}
);
width = 568;
},
{
layerId = "43161617-4660-4075-B14A-1D8E25AEE542";
paths = (
{
closed = 1;
nodes = (
"400 0 LINE",
"304 352 LINE",
"465 578 LINE",
"356 578 LINE",
"170 325 LINE",
"221 811 LINE",
"118 811 LINE",
"32 1 LINE",
"136 1 LINE",
"159 222 LINE",
"219 298 LINE",
"296 0 LINE"
);
}
);
width = 426;
}
);
unicode = 006B;
},
{
glyphname = kgreenlandic;
lastChange = "2016-08-02 10:36:59 +0000";
layers = (
{
layerId = "6D1B020D-7C4E-4885-9208-B35BA480FE8F";
paths = (
{
closed = 1;
nodes = (
"96 0 LINE",
"119 215 LINE",
"202 316 LINE",
"303 0 LINE",
"357 0 LINE",
"243 352 LINE",
"415 578 LINE",
"358 578 LINE",
"125 276 LINE",
"157 578 LINE",
"104 578 LINE",
"43 0 LINE"
);
}
);
width = 411;
},
{
layerId = "BF03A18F-065F-4249-8E16-486B9CB494A0";
paths = (
{
closed = 1;
nodes = (
"199 0 LINE",
"224 236 LINE",
"247 263 LINE",
"309 0 LINE",
"496 0 LINE",
"411 312 LINE",
"553 578 LINE",
"362 578 LINE",
"235 340 LINE",
"260 578 LINE",
"83 578 LINE",
"23 0 LINE"
);
}
);
width = 526;
},
{
layerId = "43161617-4660-4075-B14A-1D8E25AEE542";
paths = (
{
closed = 1;
nodes = (
"139 0 LINE",
"160 201 LINE",
"226 286 LINE",
"295 0 LINE",
"399 0 LINE",
"303 357 LINE",
"459 578 LINE",
"355 578 LINE",
"172 321 LINE",
"200 578 LINE",
"96 578 LINE",
"36 0 LINE"
);
}
);
width = 429;
}
);
unicode = 0138;
},
{
glyphname = l;
lastChange = "2016-08-02 10:36:59 +0000";
layers = (
{
layerId = "6D1B020D-7C4E-4885-9208-B35BA480FE8F";
paths = (
{
closed = 1;
nodes = (
"100 0 LINE",
"185 810 LINE",
"131 810 LINE",
"46 0 LINE"
);
}
);
width = 186;
},
{
layerId = "BF03A18F-065F-4249-8E16-486B9CB494A0";
paths = (
{
closed = 1;
nodes = (
"208 0 LINE",
"293 810 LINE",
"116 810 LINE",
"31 0 LINE"
);
}
);
width = 285;
},
{
layerId = "43161617-4660-4075-B14A-1D8E25AEE542";
paths = (
{
closed = 1;
nodes = (
"145 0 LINE",
"229 810 LINE",
"125 810 LINE",
"41 0 LINE"
);
}
);
width = 227;
}
);
unicode = 006C;
},
{
glyphname = lslash;
lastChange = "2016-08-02 10:36:59 +0000";
layers = (
{
layerId = "6D1B020D-7C4E-4885-9208-B35BA480FE8F";
paths = (
{
closed = 1;
nodes = (
"129 0 LINE",
"180 488 LINE",
"245 521 LINE",
"250 567 LINE",
"186 534 LINE",
"214 810 LINE",
"161 810 LINE",
"129 507 LINE",
"64 473 LINE",
"59 426 LINE",
"125 460 LINE",
"76 0 LINE"
);
}
);
width = 247;
},
{
layerId = "BF03A18F-065F-4249-8E16-486B9CB494A0";
paths = (
{
closed = 1;
nodes = (
"238 0 LINE",
"290 487 LINE",
"374 521 LINE",
"383 615 LINE",
"300 581 LINE",
"323 810 LINE",
"147 810 LINE",
"115 506 LINE",
"47 479 LINE",
"37 385 LINE",
"105 413 LINE",
"62 0 LINE"
);
}
);
width = 350;
},
{
layerId = "43161617-4660-4075-B14A-1D8E25AEE542";
paths = (
{
closed = 1;
nodes = (
"166 0 LINE",
"214 467 LINE",
"279 497 LINE",
"288 577 LINE",
"223 547 LINE",
"250 810 LINE",
"147 810 LINE",
"114 500 LINE",
"43 467 LINE",
"35 386 LINE",
"106 418 LINE",
"62 0 LINE"
);
}
);
width = 266;
}
);
unicode = 0142;
userData = {
com.fontlab.hintData = {
vhints = (
{
position = -6;
width = 673;
}
);
};
};
},
{
glyphname = m;
lastChange = "2016-08-02 10:36:59 +0000";
layers = (
{
layerId = "6D1B020D-7C4E-4885-9208-B35BA480FE8F";
paths = (
{
closed = 1;
nodes = (
"89 0 LINE",
"140 482 LINE",
"178 520 OFFCURVE",
"222 546 OFFCURVE",
"260 546 CURVE SMOOTH",
"297 546 OFFCURVE",
"318 526 OFFCURVE",
"312 455 CURVE SMOOTH",
"264 0 LINE",
"317 0 LINE",
"365 458 LINE SMOOTH",
"366 466 OFFCURVE",
"366 475 OFFCURVE",
"366 481 CURVE",
"405 519 OFFCURVE",
"449 546 OFFCURVE",
"488 546 CURVE SMOOTH",
"525 546 OFFCURVE",
"546 526 OFFCURVE",
"540 455 CURVE SMOOTH",
"492 0 LINE",
"545 0 LINE",
"594 461 LINE SMOOTH",
"603 553 OFFCURVE",
"567 587 OFFCURVE",
"516 587 CURVE SMOOTH",
"461 587 OFFCURVE",
"408 557 OFFCURVE",
"366 511 CURVE",
"360 568 OFFCURVE",
"328 587 OFFCURVE",
"288 587 CURVE SMOOTH",
"235 587 OFFCURVE",
"184 559 OFFCURVE",
"144 517 CURVE",
"149 578 LINE",
"96 578 LINE",
"36 0 LINE"
);
}
);
width = 619;
},
{
layerId = "BF03A18F-065F-4249-8E16-486B9CB494A0";
paths = (
{
closed = 1;
nodes = (
"201 0 LINE",
"249 451 LINE",
"266 460 OFFCURVE",
"284 465 OFFCURVE",
"294 465 CURVE SMOOTH",
"316 466 OFFCURVE",
"324 453 OFFCURVE",
"321 428 CURVE SMOOTH",
"276 0 LINE",
"450 0 LINE",
"497 448 LINE SMOOTH",
"498 449 OFFCURVE",
"498 451 OFFCURVE",
"498 452 CURVE",
"514 461 OFFCURVE",
"532 465 OFFCURVE",
"542 465 CURVE SMOOTH",
"565 466 OFFCURVE",
"571 453 OFFCURVE",
"568 428 CURVE SMOOTH",
"523 0 LINE",
"699 0 LINE",
"746 449 LINE SMOOTH",
"755 532 OFFCURVE",
"720 589 OFFCURVE",
"649 589 CURVE SMOOTH",
"597 589 OFFCURVE",
"545 572 OFFCURVE",
"493 521 CURVE",
"480 563 OFFCURVE",
"448 589 OFFCURVE",
"401 589 CURVE SMOOTH",
"353 589 OFFCURVE",
"305 574 OFFCURVE",
"257 533 CURVE",
"262 578 LINE",
"86 578 LINE",
"26 0 LINE"
);
}
);
width = 770;
},
{
layerId = "43161617-4660-4075-B14A-1D8E25AEE542";
paths = (
{
closed = 1;
nodes = (
"134 0 LINE",
"183 468 LINE",
"210 489 OFFCURVE",
"239 505 OFFCURVE",
"264 505 CURVE SMOOTH",
"301 505 OFFCURVE",
"308 481 OFFCURVE",
"303 438 CURVE SMOOTH",
"257 0 LINE",
"361 0 LINE",
"409 457 LINE SMOOTH",
"409 458 OFFCURVE",
"410 465 OFFCURVE",
"410 467 CURVE",
"437 488 OFFCURVE",
"467 505 OFFCURVE",
"492 505 CURVE SMOOTH",
"529 505 OFFCURVE",
"536 481 OFFCURVE",
"531 438 CURVE SMOOTH",
"485 0 LINE",
"589 0 LINE",
"638 467 LINE SMOOTH",
"644 526 OFFCURVE",
"631 586 OFFCURVE",
"564 586 CURVE SMOOTH",
"505 586 OFFCURVE",
"453 554 OFFCURVE",
"410 516 CURVE",
"405 556 OFFCURVE",
"384 586 OFFCURVE",
"336 586 CURVE SMOOTH",
"280 586 OFFCURVE",
"230 558 OFFCURVE",
"189 521 CURVE",
"194 578 LINE",
"91 578 LINE",
"31 0 LINE"
);
}
);
width = 664;
}
);
unicode = 006D;
userData = {
com.fontlab.hintData = {
hhints = (
{
position = 1154;
width = 50;
}
);
};
};
},
{
glyphname = n;
lastChange = "2016-08-02 10:36:59 +0000";
layers = (
{
layerId = "6D1B020D-7C4E-4885-9208-B35BA480FE8F";
paths = (
{
closed = 1;
nodes = (
"89 0 LINE",
"140 482 LINE",
"178 520 OFFCURVE",
"222 546 OFFCURVE",
"261 546 CURVE SMOOTH",
"297 546 OFFCURVE",
"319 526 OFFCURVE",
"312 455 CURVE SMOOTH",
"264 0 LINE",
"317 0 LINE",
"366 461 LINE SMOOTH",
"375 553 OFFCURVE",
"339 587 OFFCURVE",
"288 587 CURVE SMOOTH",
"235 587 OFFCURVE",
"184 559 OFFCURVE",
"143 516 CURVE",
"149 578 LINE",
"96 578 LINE",
"36 0 LINE"
);
}
);
width = 391;
},
{
layerId = "BF03A18F-065F-4249-8E16-486B9CB494A0";
paths = (
{
closed = 1;
nodes = (
"202 0 LINE",
"249 449 LINE",
"269 460 OFFCURVE",
"285 465 OFFCURVE",
"297 465 CURVE SMOOTH",
"319 466 OFFCURVE",
"325 453 OFFCURVE",
"322 428 CURVE SMOOTH",
"277 0 LINE",
"454 0 LINE",
"500 449 LINE SMOOTH",
"509 532 OFFCURVE",
"474 589 OFFCURVE",
"403 589 CURVE SMOOTH",
"354 589 OFFCURVE",
"306 564 OFFCURVE",
"257 520 CURVE",
"263 578 LINE",
"86 578 LINE",
"26 0 LINE"
);
}
);
width = 524;
},
{
layerId = "43161617-4660-4075-B14A-1D8E25AEE542";
paths = (
{
closed = 1;
nodes = (
"134 0 LINE",
"183 467 LINE",
"210 488 OFFCURVE",
"239 505 OFFCURVE",
"265 505 CURVE SMOOTH",
"302 505 OFFCURVE",
"309 481 OFFCURVE",
"304 438 CURVE SMOOTH",
"258 0 LINE",
"362 0 LINE",
"411 467 LINE SMOOTH",
"417 526 OFFCURVE",
"404 586 OFFCURVE",
"337 586 CURVE SMOOTH",
"280 586 OFFCURVE",
"231 557 OFFCURVE",
"188 521 CURVE",
"194 578 LINE",
"91 578 LINE",
"31 0 LINE"
);
}
);
width = 436;
}
);
unicode = 006E;
userData = {
com.fontlab.hintData = {
hhints = (
{
position = 1154;
width = 50;
}
);
};
};
},
{
glyphname = eng;
lastChange = "2016-08-02 10:36:59 +0000";
layers = (
{
layerId = "6D1B020D-7C4E-4885-9208-B35BA480FE8F";
paths = (
{
closed = 1;
nodes = (
"139 -156 LINE SMOOTH",
"224 -156 OFFCURVE",
"301 -125 OFFCURVE",
"314 -6 CURVE SMOOTH",
"363 461 LINE SMOOTH",
"373 553 OFFCURVE",
"337 587 OFFCURVE",
"285 587 CURVE SMOOTH",
"232 587 OFFCURVE",
"182 559 OFFCURVE",
"141 516 CURVE",
"146 578 LINE",
"94 578 LINE",
"33 0 LINE",
"86 0 LINE",
"137 482 LINE",
"175 520 OFFCURVE",
"219 546 OFFCURVE",
"258 546 CURVE SMOOTH",
"294 546 OFFCURVE",
"316 526 OFFCURVE",
"309 455 CURVE SMOOTH",
"260 -5 LINE SMOOTH",
"253 -71 OFFCURVE",
"230 -113 OFFCURVE",
"131 -113 CURVE",
"126 -156 LINE"
);
}
);
width = 388;
},
{
layerId = "BF03A18F-065F-4249-8E16-486B9CB494A0";
paths = (
{
closed = 1;
nodes = (
"205 -197 LINE SMOOTH",
"376 -197 OFFCURVE",
"430 -146 OFFCURVE",
"444 -6 CURVE SMOOTH",
"492 449 LINE SMOOTH",
"501 532 OFFCURVE",
"466 589 OFFCURVE",
"395 589 CURVE SMOOTH",
"345 589 OFFCURVE",
"298 573 OFFCURVE",
"249 529 CURVE",
"254 578 LINE",
"78 578 LINE",
"17 0 LINE",
"193 0 LINE",
"241 449 LINE",
"260 460 OFFCURVE",
"276 465 OFFCURVE",
"289 465 CURVE SMOOTH",
"311 466 OFFCURVE",
"316 453 OFFCURVE",
"313 428 CURVE SMOOTH",
"268 -5 LINE SMOOTH",
"261 -74 OFFCURVE",
"241 -90 OFFCURVE",
"150 -90 CURVE",
"139 -197 LINE"
);
}
);
width = 498;
},
{
layerId = "43161617-4660-4075-B14A-1D8E25AEE542";
paths = (
{
closed = 1;
nodes = (
"142 -182 LINE SMOOTH",
"254 -182 OFFCURVE",
"339 -125 OFFCURVE",
"352 -6 CURVE SMOOTH",
"402 467 LINE SMOOTH",
"408 526 OFFCURVE",
"395 586 OFFCURVE",
"328 586 CURVE SMOOTH",
"271 586 OFFCURVE",
"222 557 OFFCURVE",
"179 521 CURVE",
"186 578 LINE",
"82 578 LINE",
"21 0 LINE",
"125 0 LINE",
"174 467 LINE",
"201 488 OFFCURVE",
"230 505 OFFCURVE",
"255 505 CURVE SMOOTH",
"293 505 OFFCURVE",
"299 481 OFFCURVE",
"295 438 CURVE SMOOTH",
"249 -5 LINE SMOOTH",
"242 -71 OFFCURVE",
"219 -104 OFFCURVE",
"120 -104 CURVE",
"111 -182 LINE"
);
}
);
width = 388;
}
);
unicode = 014B;
userData = {
com.fontlab.hintData = {
hhints = (
{
position = -296;
width = 57;
},
{
position = 1154;
width = 50;
}
);
};
};
},
{
glyphname = o;
lastChange = "2016-08-02 10:36:59 +0000";
layers = (
{
layerId = "6D1B020D-7C4E-4885-9208-B35BA480FE8F";
paths = (
{
closed = 1;
nodes = (
"285 -9 OFFCURVE",
"323 66 OFFCURVE",
"338 211 CURVE SMOOTH",
"355 367 LINE SMOOTH",
"370 512 OFFCURVE",
"348 587 OFFCURVE",
"232 587 CURVE SMOOTH",
"117 587 OFFCURVE",
"79 511 OFFCURVE",
"64 367 CURVE SMOOTH",
"47 211 LINE SMOOTH",
"32 66 OFFCURVE",
"54 -9 OFFCURVE",
"169 -9 CURVE SMOOTH"
);
},
{
closed = 1;
nodes = (
"90 31 OFFCURVE",
"88 98 OFFCURVE",
"100 209 CURVE SMOOTH",
"117 369 LINE SMOOTH",
"128 480 OFFCURVE",
"144 547 OFFCURVE",
"228 547 CURVE SMOOTH",
"312 547 OFFCURVE",
"313 480 OFFCURVE",
"302 369 CURVE SMOOTH",
"285 209 LINE SMOOTH",
"273 98 OFFCURVE",
"258 31 OFFCURVE",
"174 31 CURVE SMOOTH"
);
}
);
width = 383;
},
{
layerId = "BF03A18F-065F-4249-8E16-486B9CB494A0";
paths = (
{
closed = 1;
nodes = (
"344 -11 OFFCURVE",
"440 48 OFFCURVE",
"453 173 CURVE SMOOTH",
"478 405 LINE SMOOTH",
"491 530 OFFCURVE",
"407 589 OFFCURVE",
"285 589 CURVE SMOOTH",
"164 589 OFFCURVE",
"69 529 OFFCURVE",
"57 405 CURVE SMOOTH",
"32 173 LINE SMOOTH",
"19 49 OFFCURVE",
"101 -11 OFFCURVE",
"222 -11 CURVE SMOOTH"
);
},
{
closed = 1;
nodes = (
"210 105 OFFCURVE",
"201 123 OFFCURVE",
"205 161 CURVE SMOOTH",
"231 417 LINE SMOOTH",
"235 455 OFFCURVE",
"249 473 OFFCURVE",
"273 473 CURVE SMOOTH",
"299 473 OFFCURVE",
"309 457 OFFCURVE",
"305 417 CURVE SMOOTH",
"278 161 LINE SMOOTH",
"274 122 OFFCURVE",
"260 105 OFFCURVE",
"235 105 CURVE SMOOTH"
);
}
);
width = 498;
},
{
layerId = "43161617-4660-4075-B14A-1D8E25AEE542";
paths = (
{
closed = 1;
nodes = (
"313 -8 OFFCURVE",
"362 74 OFFCURVE",
"375 206 CURVE SMOOTH",
"393 372 LINE SMOOTH",
"407 503 OFFCURVE",
"376 586 OFFCURVE",
"248 586 CURVE SMOOTH",
"121 586 OFFCURVE",
"73 503 OFFCURVE",
"59 372 CURVE SMOOTH",
"42 206 LINE SMOOTH",
"27 74 OFFCURVE",
"58 -8 OFFCURVE",
"186 -8 CURVE SMOOTH"
);
},
{
closed = 1;
nodes = (
"131 68 OFFCURVE",
"137 131 OFFCURVE",
"144 199 CURVE SMOOTH",
"163 378 LINE SMOOTH",
"170 446 OFFCURVE",
"178 510 OFFCURVE",
"240 510 CURVE SMOOTH",
"303 510 OFFCURVE",
"297 446 OFFCURVE",
"290 378 CURVE SMOOTH",
"271 199 LINE SMOOTH",
"264 131 OFFCURVE",
"257 68 OFFCURVE",
"194 68 CURVE SMOOTH"
);
}
);
width = 421;
}
);
unicode = 006F;
userData = {
com.fontlab.hintData = {
hhints = (
{
position = -20;
width = 50;
},
{
position = 1154;
width = 50;
}
);
};
};
},
{
glyphname = oslash;
lastChange = "2016-08-02 10:36:59 +0000";
layers = (
{
components = (
{
name = o;
}
);
layerId = "6D1B020D-7C4E-4885-9208-B35BA480FE8F";
paths = (
{
closed = 1;
nodes = (
"374 625 LINE",
"354 634 LINE",
"25 -58 LINE",
"44 -65 LINE"
);
}
);
width = 383;
},
{
components = (
{
name = o;
transform = "{1, 0, 0, 1, 60, 0}";
}
);
layerId = "BF03A18F-065F-4249-8E16-486B9CB494A0";
paths = (
{
closed = 1;
nodes = (
"457 658 LINE",
"420 674 LINE",
"34 -71 LINE",
"70 -87 LINE"
);
}
);
width = 490;
},
{
components = (
{
name = o;
}
);
layerId = "43161617-4660-4075-B14A-1D8E25AEE542";
paths = (
{
closed = 1;
nodes = (
"389 654 LINE",
"354 666 LINE",
"10 -83 LINE",
"40 -94 LINE"
);
}
);
width = 421;
}
);
unicode = 00F8;
userData = {
com.fontlab.hintData = {
hhints = (
{
position = -20;
width = 50;
},
{
position = 1154;
width = 50;
}
);
};
};
},
{
glyphname = oe;
lastChange = "2016-08-02 10:36:59 +0000";
layers = (
{
layerId = "6D1B020D-7C4E-4885-9208-B35BA480FE8F";
paths = (
{
closed = 1;
nodes = (
"240 -9 OFFCURVE",
"283 22 OFFCURVE",
"304 85 CURVE",
"315 15 OFFCURVE",
"360 -9 OFFCURVE",
"414 -9 CURVE SMOOTH",
"522 -11 OFFCURVE",
"564 53 OFFCURVE",
"575 152 CURVE SMOOTH",
"580 195 LINE",
"527 195 LINE",
"522 151 LINE SMOOTH",
"510 38 OFFCURVE",
"458 33 OFFCURVE",
"418 33 CURVE SMOOTH",
"352 35 OFFCURVE",
"330 84 OFFCURVE",
"344 223 CURVE SMOOTH",
"353 303 LINE",
"590 303 LINE",
"597 359 LINE",
"614 524 OFFCURVE",
"584 587 OFFCURVE",
"479 587 CURVE SMOOTH",
"425 587 OFFCURVE",
"375 569 OFFCURVE",
"347 498 CURVE",
"338 555 OFFCURVE",
"302 587 OFFCURVE",
"237 587 CURVE SMOOTH",
"122 587 OFFCURVE",
"83 511 OFFCURVE",
"68 368 CURVE",
"51 210 LINE SMOOTH",
"36 65 OFFCURVE",
"59 -9 OFFCURVE",
"174 -9 CURVE SMOOTH"
);
},
{
closed = 1;
nodes = (
"94 33 OFFCURVE",
"92 100 OFFCURVE",
"104 210 CURVE SMOOTH",
"121 368 LINE SMOOTH",
"132 479 OFFCURVE",
"148 545 OFFCURVE",
"232 545 CURVE SMOOTH",
"316 545 OFFCURVE",
"318 479 OFFCURVE",
"306 368 CURVE SMOOTH",
"290 210 LINE SMOOTH",
"278 100 OFFCURVE",
"262 33 OFFCURVE",
"178 33 CURVE SMOOTH"
);
},
{
closed = 1;
nodes = (
"360 374 LINE SMOOTH",
"374 502 OFFCURVE",
"407 545 OFFCURVE",
"473 545 CURVE SMOOTH",
"556 545 OFFCURVE",
"556 470 OFFCURVE",
"545 369 CURVE SMOOTH",
"542 334 LINE",
"356 334 LINE"
);
}
);
width = 627;
},
{
layerId = "BF03A18F-065F-4249-8E16-486B9CB494A0";
paths = (
{
closed = 1;
nodes = (
"593 -15 OFFCURVE",
"661 50 OFFCURVE",
"671 149 CURVE SMOOTH",
"681 233 LINE",
"516 233 LINE",
"507 148 LINE SMOOTH",
"503 111 OFFCURVE",
"495 90 OFFCURVE",
"475 90 CURVE SMOOTH",
"455 91 OFFCURVE",
"450 118 OFFCURVE",
"454 156 CURVE SMOOTH",
"466 275 LINE",
"684 275 LINE",
"699 414 LINE",
"711 525 OFFCURVE",
"670 605 OFFCURVE",
"542 605 CURVE SMOOTH",
"495 605 OFFCURVE",
"421 582 OFFCURVE",
"395 531 CURVE",
"382 582 OFFCURVE",
"310 605 OFFCURVE",
"260 605 CURVE SMOOTH",
"156 605 OFFCURVE",
"71 555 OFFCURVE",
"59 438 CURVE",
"30 166 LINE SMOOTH",
"17 41 OFFCURVE",
"95 -13 OFFCURVE",
"182 -13 CURVE SMOOTH",
"263 -13 OFFCURVE",
"313 17 OFFCURVE",
"341 59 CURVE",
"356 13 OFFCURVE",
"409 -14 OFFCURVE",
"481 -14 CURVE SMOOTH"
);
},
{
closed = 1;
nodes = (
"207 90 OFFCURVE",
"198 118 OFFCURVE",
"203 161 CURVE SMOOTH",
"233 448 LINE SMOOTH",
"237 491 OFFCURVE",
"254 503 OFFCURVE",
"271 503 CURVE SMOOTH",
"290 503 OFFCURVE",
"303 489 OFFCURVE",
"299 448 CURVE SMOOTH",
"269 161 LINE SMOOTH",
"263 100 OFFCURVE",
"243 90 OFFCURVE",
"226 90 CURVE SMOOTH"
);
},
{
closed = 1;
nodes = (
"486 460 LINE SMOOTH",
"489 491 OFFCURVE",
"506 503 OFFCURVE",
"518 503 CURVE SMOOTH",
"530 503 OFFCURVE",
"545 488 OFFCURVE",
"542 460 CURVE SMOOTH",
"533 369 LINE",
"476 369 LINE"
);
}
);
width = 711;
},
{
layerId = "43161617-4660-4075-B14A-1D8E25AEE542";
paths = (
{
closed = 1;
nodes = (
"260 -8 OFFCURVE",
"301 20 OFFCURVE",
"324 63 CURVE",
"339 18 OFFCURVE",
"375 -6 OFFCURVE",
"433 -8 CURVE SMOOTH",
"548 -12 OFFCURVE",
"606 45 OFFCURVE",
"618 162 CURVE SMOOTH",
"623 201 LINE",
"520 201 LINE",
"515 161 LINE SMOOTH",
"508 94 OFFCURVE",
"485 74 OFFCURVE",
"442 77 CURVE SMOOTH",
"377 81 OFFCURVE",
"387 173 OFFCURVE",
"396 253 CURVE SMOOTH",
"399 292 LINE",
"632 292 LINE",
"638 341 LINE",
"654 499 OFFCURVE",
"635 586 OFFCURVE",
"500 586 CURVE SMOOTH",
"441 586 OFFCURVE",
"396 561 OFFCURVE",
"372 516 CURVE",
"356 558 OFFCURVE",
"323 586 OFFCURVE",
"262 586 CURVE SMOOTH",
"135 586 OFFCURVE",
"85 505 OFFCURVE",
"72 374 CURVE",
"54 204 LINE SMOOTH",
"40 73 OFFCURVE",
"72 -8 OFFCURVE",
"200 -8 CURVE SMOOTH"
);
},
{
closed = 1;
nodes = (
"146 77 OFFCURVE",
"150 136 OFFCURVE",
"158 204 CURVE SMOOTH",
"176 374 LINE SMOOTH",
"183 442 OFFCURVE",
"191 502 OFFCURVE",
"253 502 CURVE SMOOTH",
"316 502 OFFCURVE",
"312 442 OFFCURVE",
"305 374 CURVE SMOOTH",
"287 204 LINE SMOOTH",
"279 136 OFFCURVE",
"271 77 OFFCURVE",
"208 77 CURVE SMOOTH"
);
},
{
closed = 1;
nodes = (
"407 364 LINE SMOOTH",
"415 436 OFFCURVE",
"430 502 OFFCURVE",
"487 502 CURVE SMOOTH",
"547 502 OFFCURVE",
"543 430 OFFCURVE",
"536 363 CURVE SMOOTH",
"534 345 LINE",
"405 345 LINE"
);
}
);
width = 681;
}
);
unicode = 0153;
userData = {
com.fontlab.hintData = {
hhints = (
{
position = -20;
width = 50;
},
{
position = 1154;
width = 50;
}
);
};
};
},
{
glyphname = p;
lastChange = "2016-08-02 10:36:59 +0000";
layers = (
{
layerId = "6D1B020D-7C4E-4885-9208-B35BA480FE8F";
paths = (
{
closed = 1;
nodes = (
"70 -190 LINE",
"95 48 LINE",
"113 22 OFFCURVE",
"144 -9 OFFCURVE",
"194 -9 CURVE SMOOTH",
"298 -9 OFFCURVE",
"339 76 OFFCURVE",
"356 238 CURVE SMOOTH",
"368 349 LINE SMOOTH",
"383 494 OFFCURVE",
"369 587 OFFCURVE",
"262 587 CURVE SMOOTH",
"209 587 OFFCURVE",
"169 557 OFFCURVE",
"146 529 CURVE",
"150 578 LINE",
"97 578 LINE",
"17 -190 LINE"
);
},
{
closed = 1;
nodes = (
"151 32 OFFCURVE",
"119 57 OFFCURVE",
"99 84 CURVE",
"142 492 LINE",
"164 515 OFFCURVE",
"204 546 OFFCURVE",
"247 546 CURVE SMOOTH",
"322 546 OFFCURVE",
"329 487 OFFCURVE",
"314 349 CURVE SMOOTH",
"303 236 LINE SMOOTH",
"288 95 OFFCURVE",
"265 32 OFFCURVE",
"192 32 CURVE SMOOTH"
);
}
);
width = 400;
},
{
layerId = "BF03A18F-065F-4249-8E16-486B9CB494A0";
paths = (
{
closed = 1;
nodes = (
"182 -190 LINE",
"207 44 LINE",
"244 9 OFFCURVE",
"288 -11 OFFCURVE",
"330 -11 CURVE SMOOTH",
"404 -11 OFFCURVE",
"458 51 OFFCURVE",
"469 154 CURVE SMOOTH",
"498 430 LINE SMOOTH",
"508 528 OFFCURVE",
"472 585 OFFCURVE",
"394 589 CURVE SMOOTH",
"354 590 OFFCURVE",
"306 574 OFFCURVE",
"259 537 CURVE",
"263 578 LINE",
"86 578 LINE",
"6 -190 LINE"
);
},
{
closed = 1;
nodes = (
"237 100 OFFCURVE",
"226 105 OFFCURVE",
"214 112 CURVE",
"251 470 LINE",
"266 479 OFFCURVE",
"278 486 OFFCURVE",
"289 487 CURVE SMOOTH",
"313 490 OFFCURVE",
"325 469 OFFCURVE",
"323 445 CURVE SMOOTH",
"291 144 LINE SMOOTH",
"289 119 OFFCURVE",
"272 99 OFFCURVE",
"248 100 CURVE SMOOTH"
);
}
);
width = 519;
},
{
layerId = "43161617-4660-4075-B14A-1D8E25AEE542";
paths = (
{
closed = 1;
nodes = (
"114 -190 LINE",
"139 43 LINE",
"160 17 OFFCURVE",
"190 -8 OFFCURVE",
"232 -8 CURVE SMOOTH",
"345 -8 OFFCURVE",
"387 104 OFFCURVE",
"400 229 CURVE SMOOTH",
"415 367 LINE SMOOTH",
"422 441 OFFCURVE",
"425 586 OFFCURVE",
"306 586 CURVE SMOOTH",
"256 586 OFFCURVE",
"218 561 OFFCURVE",
"190 532 CURVE",
"195 578 LINE",
"91 578 LINE",
"11 -190 LINE"
);
},
{
closed = 1;
nodes = (
"188 73 OFFCURVE",
"163 85 OFFCURVE",
"145 101 CURVE",
"184 474 LINE",
"205 489 OFFCURVE",
"232 505 OFFCURVE",
"262 505 CURVE SMOOTH",
"318 505 OFFCURVE",
"319 444 OFFCURVE",
"311 367 CURVE SMOOTH",
"296 229 LINE SMOOTH",
"287 141 OFFCURVE",
"276 73 OFFCURVE",
"220 73 CURVE SMOOTH"
);
}
);
width = 443;
}
);
unicode = 0070;
userData = {
com.fontlab.hintData = {
hhints = (
{
position = -20;
width = 50;
},
{
position = 1154;
width = 50;
}
);
};
};
},
{
glyphname = thorn;
lastChange = "2016-08-02 10:36:59 +0000";
layers = (
{
layerId = "6D1B020D-7C4E-4885-9208-B35BA480FE8F";
paths = (
{
closed = 1;
nodes = (
"70 -190 LINE",
"95 48 LINE",
"113 22 OFFCURVE",
"145 -9 OFFCURVE",
"195 -9 CURVE SMOOTH",
"299 -9 OFFCURVE",
"339 76 OFFCURVE",
"356 238 CURVE SMOOTH",
"368 349 LINE SMOOTH",
"383 494 OFFCURVE",
"369 587 OFFCURVE",
"263 587 CURVE SMOOTH",
"209 587 OFFCURVE",
"170 557 OFFCURVE",
"146 529 CURVE",
"175 810 LINE",
"122 810 LINE",
"17 -190 LINE"
);
},
{
closed = 1;
nodes = (
"151 32 OFFCURVE",
"119 57 OFFCURVE",
"99 84 CURVE",
"142 492 LINE",
"165 515 OFFCURVE",
"204 546 OFFCURVE",
"248 546 CURVE SMOOTH",
"322 546 OFFCURVE",
"329 487 OFFCURVE",
"314 349 CURVE SMOOTH",
"303 236 LINE SMOOTH",
"288 95 OFFCURVE",
"265 32 OFFCURVE",
"193 32 CURVE SMOOTH"
);
}
);
width = 398;
},
{
layerId = "BF03A18F-065F-4249-8E16-486B9CB494A0";
paths = (
{
closed = 1;
nodes = (
"176 -190 LINE",
"200 44 LINE",
"238 9 OFFCURVE",
"280 -11 OFFCURVE",
"322 -11 CURVE SMOOTH",
"396 -11 OFFCURVE",
"451 51 OFFCURVE",
"461 154 CURVE SMOOTH",
"491 430 LINE SMOOTH",
"501 528 OFFCURVE",
"465 585 OFFCURVE",
"386 589 CURVE SMOOTH",
"347 590 OFFCURVE",
"300 574 OFFCURVE",
"252 537 CURVE",
"281 810 LINE",
"104 810 LINE",
"0 -190 LINE"
);
},
{
closed = 1;
nodes = (
"231 100 OFFCURVE",
"219 105 OFFCURVE",
"208 112 CURVE",
"245 470 LINE",
"259 479 OFFCURVE",
"272 486 OFFCURVE",
"282 487 CURVE SMOOTH",
"307 490 OFFCURVE",
"318 469 OFFCURVE",
"315 445 CURVE SMOOTH",
"283 144 LINE SMOOTH",
"281 119 OFFCURVE",
"266 99 OFFCURVE",
"242 100 CURVE SMOOTH"
);
}
);
width = 505;
},
{
layerId = "43161617-4660-4075-B14A-1D8E25AEE542";
paths = (
{
closed = 1;
nodes = (
"115 -190 LINE",
"140 43 LINE",
"161 17 OFFCURVE",
"191 -8 OFFCURVE",
"233 -8 CURVE SMOOTH",
"346 -8 OFFCURVE",
"388 104 OFFCURVE",
"401 229 CURVE SMOOTH",
"415 367 LINE SMOOTH",
"423 441 OFFCURVE",
"426 586 OFFCURVE",
"307 586 CURVE SMOOTH",
"257 586 OFFCURVE",
"219 561 OFFCURVE",
"191 532 CURVE",
"220 810 LINE",
"117 810 LINE",
"12 -190 LINE"
);
},
{
closed = 1;
nodes = (
"188 73 OFFCURVE",
"164 85 OFFCURVE",
"146 101 CURVE",
"185 474 LINE",
"206 489 OFFCURVE",
"233 505 OFFCURVE",
"263 505 CURVE SMOOTH",
"319 505 OFFCURVE",
"320 444 OFFCURVE",
"312 367 CURVE SMOOTH",
"297 229 LINE SMOOTH",
"288 141 OFFCURVE",
"277 73 OFFCURVE",
"221 73 CURVE SMOOTH"
);
}
);
width = 444;
}
);
unicode = 00FE;
userData = {
com.fontlab.hintData = {
hhints = (
{
position = -20;
width = 50;
},
{
position = 1154;
width = 50;
}
);
};
};
},
{
glyphname = q;
lastChange = "2016-08-02 10:36:59 +0000";
layers = (
{
layerId = "6D1B020D-7C4E-4885-9208-B35BA480FE8F";
paths = (
{
closed = 1;
nodes = (
"299 -190 LINE",
"380 578 LINE",
"327 578 LINE",
"322 534 LINE",
"303 559 OFFCURVE",
"271 587 OFFCURVE",
"223 587 CURVE SMOOTH",
"117 587 OFFCURVE",
"80 503 OFFCURVE",
"63 340 CURVE SMOOTH",
"53 237 LINE SMOOTH",
"34 62 OFFCURVE",
"63 -9 OFFCURVE",
"163 -9 CURVE SMOOTH",
"210 -9 OFFCURVE",
"247 19 OFFCURVE",
"271 44 CURVE",
"246 -190 LINE"
);
},
{
closed = 1;
nodes = (
"102 32 OFFCURVE",
"90 93 OFFCURVE",
"105 233 CURVE SMOOTH",
"118 353 LINE SMOOTH",
"132 488 OFFCURVE",
"153 546 OFFCURVE",
"226 546 CURVE SMOOTH",
"268 546 OFFCURVE",
"299 517 OFFCURVE",
"318 495 CURVE",
"275 82 LINE",
"249 55 OFFCURVE",
"212 32 OFFCURVE",
"175 32 CURVE SMOOTH"
);
}
);
width = 396;
},
{
layerId = "BF03A18F-065F-4249-8E16-486B9CB494A0";
paths = (
{
closed = 1;
nodes = (
"426 -190 LINE",
"507 578 LINE",
"331 578 LINE",
"327 539 LINE",
"294 570 OFFCURVE",
"256 589 OFFCURVE",
"211 589 CURVE SMOOTH",
"129 589 OFFCURVE",
"72 523 OFFCURVE",
"62 423 CURVE SMOOTH",
"33 154 LINE SMOOTH",
"22 48 OFFCURVE",
"64 -11 OFFCURVE",
"147 -11 CURVE SMOOTH",
"188 -11 OFFCURVE",
"232 12 OFFCURVE",
"275 50 CURVE",
"250 -190 LINE"
);
},
{
closed = 1;
nodes = (
"218 98 OFFCURVE",
"207 119 OFFCURVE",
"209 144 CURVE SMOOTH",
"240 434 LINE SMOOTH",
"243 462 OFFCURVE",
"258 482 OFFCURVE",
"283 482 CURVE SMOOTH",
"295 482 OFFCURVE",
"307 478 OFFCURVE",
"319 471 CURVE",
"282 114 LINE",
"266 104 OFFCURVE",
"251 98 OFFCURVE",
"241 98 CURVE SMOOTH"
);
}
);
width = 520;
},
{
layerId = "43161617-4660-4075-B14A-1D8E25AEE542";
paths = (
{
closed = 1;
nodes = (
"342 -190 LINE",
"423 578 LINE",
"319 578 LINE",
"315 541 LINE",
"294 565 OFFCURVE",
"264 586 OFFCURVE",
"224 586 CURVE SMOOTH",
"106 586 OFFCURVE",
"71 473 OFFCURVE",
"57 339 CURVE SMOOTH",
"45 228 LINE SMOOTH",
"27 56 OFFCURVE",
"66 -9 OFFCURVE",
"165 -8 CURVE SMOOTH",
"203 -8 OFFCURVE",
"235 11 OFFCURVE",
"263 37 CURVE",
"239 -190 LINE"
);
},
{
closed = 1;
nodes = (
"141 73 OFFCURVE",
"139 134 OFFCURVE",
"147 219 CURVE SMOOTH",
"165 379 LINE SMOOTH",
"172 450 OFFCURVE",
"190 505 OFFCURVE",
"242 505 CURVE SMOOTH",
"269 505 OFFCURVE",
"291 492 OFFCURVE",
"309 478 CURVE",
"269 97 LINE",
"245 82 OFFCURVE",
"220 73 OFFCURVE",
"199 73 CURVE SMOOTH"
);
}
);
width = 440;
}
);
unicode = 0071;
userData = {
com.fontlab.hintData = {
hhints = (
{
position = -20;
width = 50;
},
{
position = 1154;
width = 50;
}
);
};
};
},
{
glyphname = r;
lastChange = "2016-08-02 10:36:59 +0000";
layers = (
{
layerId = "6D1B020D-7C4E-4885-9208-B35BA480FE8F";
paths = (
{
closed = 1;
nodes = (
"97 0 LINE",
"145 457 LINE",
"178 505 OFFCURVE",
"222 531 OFFCURVE",
"277 531 CURVE SMOOTH",
"283 531 OFFCURVE",
"294 530 OFFCURVE",
"298 528 CURVE",
"304 583 LINE",
"302 583 OFFCURVE",
"296 584 OFFCURVE",
"294 584 CURVE SMOOTH",
"250 584 OFFCURVE",
"189 558 OFFCURVE",
"149 500 CURVE",
"157 578 LINE",
"104 578 LINE",
"43 0 LINE"
);
}
);
width = 283;
},
{
layerId = "BF03A18F-065F-4249-8E16-486B9CB494A0";
paths = (
{
closed = 1;
nodes = (
"204 0 LINE",
"242 358 LINE",
"278 404 OFFCURVE",
"318 429 OFFCURVE",
"370 433 CURVE SMOOTH",
"375 433 OFFCURVE",
"381 433 OFFCURVE",
"386 432 CURVE",
"402 581 LINE",
"394 583 OFFCURVE",
"386 585 OFFCURVE",
"378 585 CURVE SMOOTH",
"335 585 OFFCURVE",
"293 544 OFFCURVE",
"254 479 CURVE",
"265 578 LINE",
"88 578 LINE",
"28 0 LINE"
);
}
);
width = 383;
},
{
layerId = "43161617-4660-4075-B14A-1D8E25AEE542";
paths = (
{
closed = 1;
nodes = (
"137 0 LINE",
"182 425 LINE",
"214 469 OFFCURVE",
"242 481 OFFCURVE",
"277 481 CURVE SMOOTH",
"296 481 OFFCURVE",
"318 476 OFFCURVE",
"332 470 CURVE",
"344 584 LINE",
"336 585 OFFCURVE",
"332 585 OFFCURVE",
"327 585 CURVE SMOOTH",
"284 585 OFFCURVE",
"238 566 OFFCURVE",
"189 496 CURVE",
"198 578 LINE",
"94 578 LINE",
"34 0 LINE"
);
}
);
width = 319;
}
);
unicode = 0072;
userData = {
com.fontlab.hintData = {
hhints = (
{
position = 1133;
width = 61;
}
);
};
};
},
{
glyphname = s;
lastChange = "2016-08-02 10:36:59 +0000";
layers = (
{
layerId = "6D1B020D-7C4E-4885-9208-B35BA480FE8F";
paths = (
{
closed = 1;
nodes = (
"252 -9 OFFCURVE",
"313 40 OFFCURVE",
"321 124 CURVE SMOOTH",
"329 207 OFFCURVE",
"282 254 OFFCURVE",
"234 299 CURVE",
"172 360 LINE",
"129 400 OFFCURVE",
"120 427 OFFCURVE",
"124 470 CURVE SMOOTH",
"129 521 OFFCURVE",
"167 547 OFFCURVE",
"217 547 CURVE SMOOTH",
"270 547 OFFCURVE",
"300 514 OFFCURVE",
"293 424 CURVE",
"334 436 LINE",
"340 528 OFFCURVE",
"305 587 OFFCURVE",
"219 587 CURVE SMOOTH",
"140 587 OFFCURVE",
"84 543 OFFCURVE",
"75 464 CURVE SMOOTH",
"68 406 OFFCURVE",
"90 366 OFFCURVE",
"143 317 CURVE SMOOTH",
"204 260 LINE SMOOTH",
"258 210 OFFCURVE",
"278 166 OFFCURVE",
"274 125 CURVE SMOOTH",
"268 65 OFFCURVE",
"230 31 OFFCURVE",
"172 31 CURVE SMOOTH",
"107 31 OFFCURVE",
"73 72 OFFCURVE",
"76 169 CURVE",
"30 156 LINE",
"26 54 OFFCURVE",
"75 -9 OFFCURVE",
"166 -9 CURVE SMOOTH"
);
}
);
width = 356;
},
{
layerId = "BF03A18F-065F-4249-8E16-486B9CB494A0";
paths = (
{
closed = 1;
nodes = (
"300 -11 OFFCURVE",
"400 47 OFFCURVE",
"411 149 CURVE SMOOTH",
"419 223 OFFCURVE",
"365 270 OFFCURVE",
"318 315 CURVE",
"295 337 LINE",
"254 375 OFFCURVE",
"208 412 OFFCURVE",
"212 439 CURVE SMOOTH",
"215 453 OFFCURVE",
"228 468 OFFCURVE",
"252 466 CURVE SMOOTH",
"282 464 OFFCURVE",
"306 419 OFFCURVE",
"314 386 CURVE",
"434 441 LINE",
"413 538 OFFCURVE",
"350 589 OFFCURVE",
"254 589 CURVE SMOOTH",
"158 589 OFFCURVE",
"62 520 OFFCURVE",
"52 425 CURVE SMOOTH",
"44 362 OFFCURVE",
"93 297 OFFCURVE",
"140 254 CURVE SMOOTH",
"166 230 LINE SMOOTH",
"200 198 OFFCURVE",
"246 164 OFFCURVE",
"244 140 CURVE SMOOTH",
"242 121 OFFCURVE",
"228 108 OFFCURVE",
"212 107 CURVE SMOOTH",
"179 103 OFFCURVE",
"149 138 OFFCURVE",
"130 185 CURVE",
"7 130 LINE",
"45 26 OFFCURVE",
"106 -11 OFFCURVE",
"204 -11 CURVE SMOOTH"
);
}
);
width = 435;
},
{
layerId = "43161617-4660-4075-B14A-1D8E25AEE542";
paths = (
{
closed = 1;
nodes = (
"258 -8 OFFCURVE",
"328 41 OFFCURVE",
"338 139 CURVE SMOOTH",
"345 213 OFFCURVE",
"310 258 OFFCURVE",
"271 296 CURVE",
"180 388 LINE",
"160 407 OFFCURVE",
"154 427 OFFCURVE",
"156 450 CURVE SMOOTH",
"159 483 OFFCURVE",
"185 510 OFFCURVE",
"222 510 CURVE SMOOTH",
"267 510 OFFCURVE",
"282 470 OFFCURVE",
"283 408 CURVE",
"355 434 LINE",
"357 519 OFFCURVE",
"316 586 OFFCURVE",
"226 586 CURVE SMOOTH",
"136 586 OFFCURVE",
"75 535 OFFCURVE",
"63 445 CURVE SMOOTH",
"54 378 OFFCURVE",
"83 339 OFFCURVE",
"120 303 CURVE SMOOTH",
"208 221 LINE SMOOTH",
"238 193 OFFCURVE",
"250 163 OFFCURVE",
"248 136 CURVE SMOOTH",
"246 97 OFFCURVE",
"216 68 OFFCURVE",
"176 68 CURVE SMOOTH",
"128 68 OFFCURVE",
"107 105 OFFCURVE",
"107 181 CURVE",
"18 155 LINE",
"16 57 OFFCURVE",
"68 -8 OFFCURVE",
"163 -8 CURVE SMOOTH"
);
}
);
width = 372;
}
);
unicode = 0073;
userData = {
com.fontlab.hintData = {
hhints = (
{
position = -20;
width = 50;
},
{
position = 1154;
width = 50;
}
);
vhints = (
{
position = 71;
width = 56;
},
{
position = 610;
width = 55;
}
);
};
};
},
{
glyphname = germandbls;
lastChange = "2016-08-02 10:36:59 +0000";
layers = (
{
layerId = "6D1B020D-7C4E-4885-9208-B35BA480FE8F";
paths = (
{
closed = 1;
nodes = (
"370 -11 OFFCURVE",
"430 121 OFFCURVE",
"442 240 CURVE",
"452 336 OFFCURVE",
"429 432 OFFCURVE",
"326 456 CURVE",
"394 477 OFFCURVE",
"432 538 OFFCURVE",
"442 634 CURVE SMOOTH",
"456 766 OFFCURVE",
"396 829 OFFCURVE",
"294 829 CURVE SMOOTH",
"188 829 OFFCURVE",
"125 782 OFFCURVE",
"107 610 CURVE SMOOTH",
"43 0 LINE",
"96 0 LINE",
"161 611 LINE",
"176 760 OFFCURVE",
"221 787 OFFCURVE",
"292 787 CURVE SMOOTH",
"372 787 OFFCURVE",
"401 734 OFFCURVE",
"390 634 CURVE SMOOTH",
"381 548 OFFCURVE",
"347 475 OFFCURVE",
"259 475 CURVE",
"251 430 LINE",
"375 430 OFFCURVE",
"400 334 OFFCURVE",
"390 237 CURVE SMOOTH",
"380 144 OFFCURVE",
"336 34 OFFCURVE",
"153 34 CURVE",
"148 -11 LINE"
);
}
);
width = 484;
},
{
layerId = "BF03A18F-065F-4249-8E16-486B9CB494A0";
paths = (
{
closed = 1;
nodes = (
"400 -17 OFFCURVE",
"512 47 OFFCURVE",
"531 225 CURVE",
"541 319 OFFCURVE",
"485 399 OFFCURVE",
"382 431 CURVE",
"476 465 OFFCURVE",
"515 528 OFFCURVE",
"522 602 CURVE SMOOTH",
"537 740 OFFCURVE",
"479 823 OFFCURVE",
"321 823 CURVE SMOOTH",
"158 823 OFFCURVE",
"92 705 OFFCURVE",
"81 595 CURVE SMOOTH",
"19 0 LINE",
"195 0 LINE",
"257 595 LINE",
"262 659 OFFCURVE",
"281 703 OFFCURVE",
"323 703 CURVE SMOOTH",
"357 703 OFFCURVE",
"384 672 OFFCURVE",
"376 599 CURVE SMOOTH",
"367 516 OFFCURVE",
"337 480 OFFCURVE",
"296 480 CURVE",
"284 346 LINE",
"325 346 OFFCURVE",
"359 305 OFFCURVE",
"358 250 CURVE SMOOTH",
"355 147 OFFCURVE",
"309 116 OFFCURVE",
"250 116 CURVE",
"235 -17 LINE"
);
}
);
width = 549;
},
{
layerId = "43161617-4660-4075-B14A-1D8E25AEE542";
paths = (
{
closed = 1;
nodes = (
"366 -9 OFFCURVE",
"443 82 OFFCURVE",
"458 233 CURVE",
"469 333 OFFCURVE",
"432 408 OFFCURVE",
"350 430 CURVE",
"418 463 OFFCURVE",
"457 517 OFFCURVE",
"467 612 CURVE SMOOTH",
"481 746 OFFCURVE",
"423 820 OFFCURVE",
"293 820 CURVE SMOOTH",
"179 820 OFFCURVE",
"113 741 OFFCURVE",
"100 611 CURVE SMOOTH",
"35 0 LINE",
"139 0 LINE",
"203 613 LINE",
"211 691 OFFCURVE",
"233 735 OFFCURVE",
"296 735 CURVE SMOOTH",
"364 735 OFFCURVE",
"374 684 OFFCURVE",
"366 612 CURVE SMOOTH",
"358 538 OFFCURVE",
"330 465 OFFCURVE",
"256 465 CURVE",
"246 379 LINE",
"333 379 OFFCURVE",
"364 317 OFFCURVE",
"355 232 CURVE SMOOTH",
"345 135 OFFCURVE",
"317 77 OFFCURVE",
"204 77 CURVE",
"195 -9 LINE"
);
}
);
width = 513;
}
);
unicode = 00DF;
userData = {
com.fontlab.hintData = {
hhints = (
{
position = -24;
width = 55;
},
{
position = 926;
width = 55;
},
{
position = 1659;
width = 48;
}
);
};
};
},
{
glyphname = t;
lastChange = "2016-08-02 10:36:59 +0000";
layers = (
{
layerId = "6D1B020D-7C4E-4885-9208-B35BA480FE8F";
paths = (
{
closed = 1;
nodes = (
"179 -6 OFFCURVE",
"201 -4 OFFCURVE",
"217 0 CURVE",
"221 41 LINE",
"208 38 OFFCURVE",
"190 36 OFFCURVE",
"178 36 CURVE SMOOTH",
"135 36 OFFCURVE",
"130 58 OFFCURVE",
"136 121 CURVE SMOOTH",
"181 543 LINE",
"279 543 LINE",
"283 578 LINE",
"185 578 LINE",
"204 763 LINE",
"151 763 LINE",
"131 578 LINE",
"56 578 LINE",
"52 543 LINE",
"128 543 LINE",
"83 114 LINE SMOOTH",
"76 46 OFFCURVE",
"82 -6 OFFCURVE",
"162 -6 CURVE SMOOTH"
);
}
);
width = 263;
},
{
layerId = "BF03A18F-065F-4249-8E16-486B9CB494A0";
paths = (
{
closed = 1;
nodes = (
"252 -9 OFFCURVE",
"296 0 OFFCURVE",
"315 2 CURVE",
"330 143 LINE",
"329 143 OFFCURVE",
"307 137 OFFCURVE",
"284 139 CURVE SMOOTH",
"257 140 OFFCURVE",
"234 152 OFFCURVE",
"237 182 CURVE SMOOTH",
"267 463 LINE",
"347 463 LINE",
"359 578 LINE",
"279 578 LINE",
"298 756 LINE",
"119 756 LINE",
"100 578 LINE",
"46 578 LINE",
"34 463 LINE",
"88 463 LINE",
"63 221 LINE SMOOTH",
"51 108 OFFCURVE",
"53 0 OFFCURVE",
"191 -6 CURVE SMOOTH"
);
}
);
width = 364;
},
{
layerId = "43161617-4660-4075-B14A-1D8E25AEE542";
paths = (
{
closed = 1;
nodes = (
"208 -8 OFFCURVE",
"229 -6 OFFCURVE",
"255 -2 CURVE",
"264 75 LINE",
"250 72 OFFCURVE",
"233 72 OFFCURVE",
"223 72 CURVE SMOOTH",
"181 72 OFFCURVE",
"173 90 OFFCURVE",
"177 136 CURVE SMOOTH",
"217 509 LINE",
"310 509 LINE",
"317 578 LINE",
"224 578 LINE",
"242 748 LINE",
"138 748 LINE",
"120 578 LINE",
"59 578 LINE",
"52 509 LINE",
"113 509 LINE",
"73 129 LINE SMOOTH",
"65 42 OFFCURVE",
"91 -8 OFFCURVE",
"182 -8 CURVE SMOOTH"
);
}
);
width = 305;
}
);
unicode = 0074;
userData = {
com.fontlab.hintData = {
hhints = (
{
position = -12;
width = 53;
}
);
};
};
},
{
glyphname = tbar;
lastChange = "2016-08-02 10:36:59 +0000";
layers = (
{
components = (
{
name = t;
}
);
layerId = "6D1B020D-7C4E-4885-9208-B35BA480FE8F";
paths = (
{
closed = 1;
nodes = (
"251 362 LINE",
"254 395 LINE",
"50 395 LINE",
"47 362 LINE"
);
}
);
width = 244;
},
{
components = (
{
name = t;
transform = "{1, 0, 0, 1, -20, 0}";
}
);
layerId = "BF03A18F-065F-4249-8E16-486B9CB494A0";
paths = (
{
closed = 1;
nodes = (
"328 294 LINE",
"335 369 LINE",
"24 369 LINE",
"17 294 LINE"
);
}
);
width = 359;
},
{
components = (
{
name = t;
}
);
layerId = "43161617-4660-4075-B14A-1D8E25AEE542";
paths = (
{
closed = 1;
nodes = (
"299 342 LINE",
"304 395 LINE",
"44 395 LINE",
"39 342 LINE"
);
}
);
width = 244;
}
);
unicode = 0167;
userData = {
com.fontlab.hintData = {
hhints = (
{
position = -12;
width = 53;
}
);
};
};
},
{
glyphname = u;
lastChange = "2016-08-02 10:36:59 +0000";
layers = (
{
layerId = "6D1B020D-7C4E-4885-9208-B35BA480FE8F";
paths = (
{
closed = 1;
nodes = (
"176 -9 OFFCURVE",
"229 21 OFFCURVE",
"271 68 CURVE",
"264 0 LINE",
"317 0 LINE",
"377 578 LINE",
"324 578 LINE",
"274 102 LINE",
"235 61 OFFCURVE",
"189 32 OFFCURVE",
"148 32 CURVE SMOOTH",
"111 32 OFFCURVE",
"90 52 OFFCURVE",
"97 123 CURVE SMOOTH",
"145 578 LINE",
"91 578 LINE",
"43 117 LINE SMOOTH",
"34 25 OFFCURVE",
"69 -9 OFFCURVE",
"121 -9 CURVE SMOOTH"
);
}
);
width = 395;
},
{
layerId = "BF03A18F-065F-4249-8E16-486B9CB494A0";
paths = (
{
closed = 1;
nodes = (
"179 -11 OFFCURVE",
"226 12 OFFCURVE",
"273 52 CURVE",
"268 0 LINE",
"444 0 LINE",
"504 578 LINE",
"328 578 LINE",
"280 120 LINE",
"264 111 OFFCURVE",
"249 107 OFFCURVE",
"238 106 CURVE SMOOTH",
"216 105 OFFCURVE",
"209 119 OFFCURVE",
"211 144 CURVE SMOOTH",
"257 578 LINE",
"81 578 LINE",
"34 129 LINE SMOOTH",
"25 46 OFFCURVE",
"60 -11 OFFCURVE",
"131 -11 CURVE SMOOTH"
);
}
);
width = 519;
},
{
layerId = "43161617-4660-4075-B14A-1D8E25AEE542";
paths = (
{
closed = 1;
nodes = (
"168 -8 OFFCURVE",
"219 21 OFFCURVE",
"261 58 CURVE",
"254 0 LINE",
"358 0 LINE",
"418 578 LINE",
"315 578 LINE",
"266 111 LINE",
"239 90 OFFCURVE",
"210 73 OFFCURVE",
"185 73 CURVE SMOOTH",
"147 73 OFFCURVE",
"141 97 OFFCURVE",
"145 141 CURVE SMOOTH",
"191 578 LINE",
"87 578 LINE",
"39 111 LINE SMOOTH",
"33 52 OFFCURVE",
"45 -8 OFFCURVE",
"112 -8 CURVE SMOOTH"
);
}
);
width = 437;
}
);
unicode = 0075;
userData = {
com.fontlab.hintData = {
hhints = (
{
position = -20;
width = 50;
}
);
};
};
},
{
glyphname = v;
lastChange = "2016-08-02 10:36:59 +0000";
layers = (
{
layerId = "6D1B020D-7C4E-4885-9208-B35BA480FE8F";
paths = (
{
closed = 1;
nodes = (
"190 0 LINE",
"378 578 LINE",
"326 578 LINE",
"167 67 LINE",
"113 578 LINE",
"59 578 LINE",
"131 0 LINE"
);
}
);
width = 357;
},
{
layerId = "BF03A18F-065F-4249-8E16-486B9CB494A0";
paths = (
{
closed = 1;
nodes = (
"279 0 LINE",
"460 578 LINE",
"293 578 LINE",
"219 232 LINE",
"213 578 LINE",
"45 578 LINE",
"101 0 LINE"
);
}
);
width = 430;
},
{
layerId = "43161617-4660-4075-B14A-1D8E25AEE542";
paths = (
{
closed = 1;
nodes = (
"233 0 LINE",
"404 578 LINE",
"304 578 LINE",
"181 110 LINE",
"156 578 LINE",
"52 578 LINE",
"107 0 LINE"
);
}
);
width = 383;
}
);
unicode = 0076;
},
{
glyphname = w;
lastChange = "2016-08-02 10:36:59 +0000";
layers = (
{
layerId = "6D1B020D-7C4E-4885-9208-B35BA480FE8F";
paths = (
{
closed = 1;
nodes = (
"167 0 LINE",
"318 507 LINE",
"365 0 LINE",
"420 0 LINE",
"573 578 LINE",
"526 578 LINE",
"397 63 LINE",
"350 578 LINE",
"299 578 LINE",
"146 61 LINE",
"120 578 LINE",
"73 578 LINE",
"107 0 LINE"
);
}
);
width = 566;
},
{
layerId = "BF03A18F-065F-4249-8E16-486B9CB494A0";
paths = (
{
closed = 1;
nodes = (
"227 0 LINE",
"309 305 LINE",
"320 0 LINE",
"471 0 LINE",
"617 578 LINE",
"480 578 LINE",
"402 264 LINE",
"405 578 LINE",
"279 578 LINE",
"208 273 LINE",
"203 578 LINE",
"56 578 LINE",
"78 0 LINE"
);
}
);
width = 600;
},
{
layerId = "43161617-4660-4075-B14A-1D8E25AEE542";
paths = (
{
closed = 1;
nodes = (
"192 0 LINE",
"314 414 LINE",
"351 0 LINE",
"439 0 LINE",
"595 578 LINE",
"510 578 LINE",
"403 148 LINE",
"370 578 LINE",
"291 578 LINE",
"167 146 LINE",
"151 578 LINE",
"65 578 LINE",
"98 0 LINE"
);
}
);
width = 586;
}
);
unicode = 0077;
userData = {
com.fontlab.hintData = {
vhints = (
{
position = 445;
width = 266;
}
);
};
};
},
{
glyphname = x;
lastChange = "2016-08-02 10:36:59 +0000";
layers = (
{
layerId = "6D1B020D-7C4E-4885-9208-B35BA480FE8F";
paths = (
{
closed = 1;
nodes = (
"52 0 LINE",
"192 246 LINE",
"284 0 LINE",
"334 0 LINE",
"227 296 LINE",
"393 578 LINE",
"338 578 LINE",
"208 349 LINE",
"123 578 LINE",
"69 578 LINE",
"172 301 LINE",
"0 0 LINE"
);
}
);
width = 375;
},
{
layerId = "BF03A18F-065F-4249-8E16-486B9CB494A0";
paths = (
{
closed = 1;
nodes = (
"130 0 LINE",
"199 150 LINE",
"249 0 LINE",
"429 0 LINE",
"330 293 LINE",
"470 578 LINE",
"340 578 LINE",
"277 450 LINE",
"233 578 LINE",
"54 578 LINE",
"141 320 LINE",
"-14 0 LINE"
);
}
);
width = 456;
},
{
layerId = "43161617-4660-4075-B14A-1D8E25AEE542";
paths = (
{
closed = 1;
nodes = (
"84 0 LINE",
"186 199 LINE",
"257 0 LINE",
"356 0 LINE",
"252 291 LINE",
"414 578 LINE",
"312 578 LINE",
"216 392 LINE",
"149 578 LINE",
"49 578 LINE",
"148 304 LINE",
"-14 0 LINE"
);
}
);
width = 388;
}
);
unicode = 0078;
},
{
glyphname = y;
lastChange = "2016-08-02 10:36:59 +0000";
layers = (
{
layerId = "6D1B020D-7C4E-4885-9208-B35BA480FE8F";
paths = (
{
closed = 1;
nodes = (
"23 -144 LINE",
"117 -144 OFFCURVE",
"163 -115 OFFCURVE",
"186 -47 CURVE SMOOTH",
"393 578 LINE",
"340 578 LINE",
"175 50 LINE",
"116 578 LINE",
"63 578 LINE",
"130 59 LINE SMOOTH",
"134 31 OFFCURVE",
"139 -2 OFFCURVE",
"138 -21 CURVE",
"136 -73 OFFCURVE",
"120 -101 OFFCURVE",
"6 -101 CURVE",
"1 -144 LINE"
);
}
);
width = 375;
},
{
layerId = "BF03A18F-065F-4249-8E16-486B9CB494A0";
paths = (
{
closed = 1;
nodes = (
"55 -174 LINE",
"151 -175 OFFCURVE",
"250 -146 OFFCURVE",
"287 -32 CURVE SMOOTH",
"487 578 LINE",
"323 578 LINE",
"240 268 LINE",
"201 578 LINE",
"37 578 LINE",
"126 93 LINE SMOOTH",
"129 74 OFFCURVE",
"139 15 OFFCURVE",
"138 -1 CURVE",
"134 -48 OFFCURVE",
"100 -54 OFFCURVE",
"42 -54 CURVE",
"29 -174 LINE"
);
}
);
width = 461;
},
{
layerId = "43161617-4660-4075-B14A-1D8E25AEE542";
paths = (
{
closed = 1;
nodes = (
"20 -145 LINE",
"124 -145 OFFCURVE",
"186 -116 OFFCURVE",
"214 -33 CURVE SMOOTH",
"417 578 LINE",
"312 578 LINE",
"188 140 LINE",
"154 578 LINE",
"49 578 LINE",
"114 84 LINE SMOOTH",
"118 58 OFFCURVE",
"121 30 OFFCURVE",
"124 5 CURVE",
"130 -51 OFFCURVE",
"110 -66 OFFCURVE",
"14 -66 CURVE",
"6 -145 LINE"
);
}
);
width = 390;
}
);
unicode = 0079;
userData = {
com.fontlab.hintData = {
hhints = (
{
position = -294;
width = 56;
}
);
};
};
},
{
glyphname = z;
lastChange = "2016-08-02 10:36:59 +0000";
layers = (
{
layerId = "6D1B020D-7C4E-4885-9208-B35BA480FE8F";
paths = (
{
closed = 1;
nodes = (
"271 0 LINE",
"275 41 LINE",
"72 41 LINE",
"332 543 LINE",
"335 578 LINE",
"94 578 LINE",
"90 537 LINE",
"277 537 LINE",
"16 39 LINE",
"12 0 LINE"
);
}
);
width = 325;
},
{
layerId = "BF03A18F-065F-4249-8E16-486B9CB494A0";
paths = (
{
closed = 1;
nodes = (
"353 0 LINE",
"366 129 LINE",
"207 129 LINE",
"397 469 LINE",
"409 578 LINE",
"83 578 LINE",
"69 450 LINE",
"214 450 LINE",
"23 113 LINE",
"11 0 LINE"
);
}
);
width = 403;
},
{
layerId = "43161617-4660-4075-B14A-1D8E25AEE542";
paths = (
{
closed = 1;
nodes = (
"294 0 LINE",
"303 78 LINE",
"127 78 LINE",
"353 521 LINE",
"359 578 LINE",
"87 578 LINE",
"79 500 LINE",
"240 500 LINE",
"16 70 LINE",
"8 0 LINE"
);
}
);
width = 345;
}
);
unicode = 007A;
userData = {
com.fontlab.hintData = {
vhints = (
{
position = 6;
width = 676;
}
);
};
};
},
{
glyphname = f_f_i;
lastChange = "2016-08-02 10:42:05 +0000";
layers = (
{
layerId = "6D1B020D-7C4E-4885-9208-B35BA480FE8F";
paths = (
{
closed = 1;
nodes = (
"127 0 LINE",
"184 541 LINE",
"364 541 LINE",
"307 0 LINE",
"360 0 LINE",
"417 541 LINE",
"594 541 LINE",
"537 0 LINE",
"590 0 LINE",
"650 578 LINE",
"420 578 LINE",
"429 657 LINE SMOOTH",
"436 720 OFFCURVE",
"445 746 OFFCURVE",
"490 746 CURVE SMOOTH",
"503 746 OFFCURVE",
"519 742 OFFCURVE",
"532 740 CURVE",
"536 780 LINE",
"521 785 OFFCURVE",
"500 787 OFFCURVE",
"484 787 CURVE SMOOTH",
"396 787 OFFCURVE",
"384 729 OFFCURVE",
"376 656 CURVE",
"368 578 LINE",
"188 578 LINE",
"196 657 LINE SMOOTH",
"203 720 OFFCURVE",
"212 746 OFFCURVE",
"257 746 CURVE SMOOTH",
"270 746 OFFCURVE",
"286 742 OFFCURVE",
"299 740 CURVE",
"303 780 LINE",
"288 785 OFFCURVE",
"268 787 OFFCURVE",
"251 787 CURVE SMOOTH",
"163 787 OFFCURVE",
"151 729 OFFCURVE",
"143 656 CURVE",
"135 578 LINE",
"57 578 LINE",
"53 541 LINE",
"131 541 LINE",
"74 0 LINE"
);
},
{
closed = 1;
nodes = (
"659 654 LINE",
"668 746 LINE",
"615 746 LINE",
"605 654 LINE"
);
}
);
width = 682;
},
{
layerId = "BF03A18F-065F-4249-8E16-486B9CB494A0";
paths = (
{
closed = 1;
nodes = (
"212 0 LINE",
"261 462 LINE",
"356 462 LINE",
"307 0 LINE",
"483 0 LINE",
"532 462 LINE",
"625 462 LINE",
"577 0 LINE",
"753 0 LINE",
"813 578 LINE",
"544 578 LINE",
"549 624 LINE SMOOTH",
"552 652 OFFCURVE",
"566 661 OFFCURVE",
"583 661 CURVE SMOOTH",
"593 661 OFFCURVE",
"603 658 OFFCURVE",
"612 657 CURVE",
"625 788 LINE",
"595 791 OFFCURVE",
"581 792 OFFCURVE",
"558 792 CURVE SMOOTH",
"409 792 OFFCURVE",
"383 725 OFFCURVE",
"373 624 CURVE",
"368 578 LINE",
"273 578 LINE",
"278 624 LINE SMOOTH",
"281 652 OFFCURVE",
"293 661 OFFCURVE",
"310 661 CURVE SMOOTH",
"319 661 OFFCURVE",
"329 658 OFFCURVE",
"338 657 CURVE",
"352 788 LINE",
"321 791 OFFCURVE",
"310 792 OFFCURVE",
"286 792 CURVE SMOOTH",
"138 792 OFFCURVE",
"112 725 OFFCURVE",
"102 624 CURVE",
"97 578 LINE",
"45 578 LINE",
"33 462 LINE",
"84 462 LINE",
"36 0 LINE"
);
},
{
closed = 1;
nodes = (
"824 678 LINE",
"836 793 LINE",
"677 793 LINE",
"665 678 LINE"
);
}
);
width = 820;
},
{
layerId = "43161617-4660-4075-B14A-1D8E25AEE542";
paths = (
{
closed = 1;
nodes = (
"168 0 LINE",
"221 501 LINE",
"357 501 LINE",
"305 0 LINE",
"408 0 LINE",
"460 501 LINE",
"597 501 LINE",
"544 0 LINE",
"647 0 LINE",
"708 578 LINE",
"468 578 LINE",
"474 628 LINE SMOOTH",
"479 674 OFFCURVE",
"488 704 OFFCURVE",
"530 704 CURVE SMOOTH",
"542 704 OFFCURVE",
"558 700 OFFCURVE",
"569 699 CURVE",
"578 776 LINE",
"551 779 OFFCURVE",
"536 782 OFFCURVE",
"510 782 CURVE SMOOTH",
"402 782 OFFCURVE",
"380 716 OFFCURVE",
"369 611 CURVE",
"365 578 LINE",
"229 578 LINE",
"234 628 LINE SMOOTH",
"239 674 OFFCURVE",
"249 704 OFFCURVE",
"291 704 CURVE SMOOTH",
"302 704 OFFCURVE",
"318 700 OFFCURVE",
"330 699 CURVE",
"338 776 LINE",
"312 779 OFFCURVE",
"296 782 OFFCURVE",
"271 782 CURVE SMOOTH",
"163 782 OFFCURVE",
"140 716 OFFCURVE",
"129 611 CURVE",
"125 578 LINE",
"56 578 LINE",
"48 501 LINE",
"118 501 LINE",
"65 0 LINE"
);
},
{
closed = 1;
nodes = (
"718 663 LINE",
"729 774 LINE",
"625 774 LINE",
"614 663 LINE"
);
}
);
width = 732;
}
);
userData = {
com.fontlab.hintData = {
hhints = (
{
position = 1184;
width = 21;
},
{
position = 1552;
width = 50;
},
{
position = 1564;
width = 53;
}
);
};
};
},
{
glyphname = fi;
lastChange = "2016-08-02 10:42:05 +0000";
layers = (
{
layerId = "6D1B020D-7C4E-4885-9208-B35BA480FE8F";
paths = (
{
closed = 1;
nodes = (
"127 0 LINE",
"184 541 LINE",
"341 541 LINE",
"284 0 LINE",
"337 0 LINE",
"398 578 LINE",
"188 578 LINE",
"196 657 LINE SMOOTH",
"203 723 OFFCURVE",
"213 745 OFFCURVE",
"258 745 CURVE SMOOTH",
"270 745 OFFCURVE",
"286 743 OFFCURVE",
"299 740 CURVE",
"303 780 LINE",
"290 784 OFFCURVE",
"269 787 OFFCURVE",
"254 787 CURVE SMOOTH",
"167 787 OFFCURVE",
"151 731 OFFCURVE",
"143 656 CURVE",
"135 578 LINE",
"57 578 LINE",
"53 541 LINE",
"131 541 LINE",
"74 0 LINE"
);
},
{
closed = 1;
nodes = (
"406 654 LINE",
"416 746 LINE",
"366 746 LINE",
"356 654 LINE"
);
}
);
width = 429;
},
{
layerId = "BF03A18F-065F-4249-8E16-486B9CB494A0";
paths = (
{
closed = 1;
nodes = (
"217 0 LINE",
"266 461 LINE",
"367 461 LINE",
"318 0 LINE",
"493 0 LINE",
"554 578 LINE",
"277 578 LINE",
"283 627 LINE SMOOTH",
"286 662 OFFCURVE",
"303 670 OFFCURVE",
"322 670 CURVE SMOOTH",
"329 670 OFFCURVE",
"335 669 OFFCURVE",
"341 668 CURVE",
"354 788 LINE",
"328 792 OFFCURVE",
"304 793 OFFCURVE",
"282 793 CURVE SMOOTH",
"158 793 OFFCURVE",
"117 724 OFFCURVE",
"106 624 CURVE",
"101 578 LINE",
"49 578 LINE",
"38 461 LINE",
"89 461 LINE",
"41 0 LINE"
);
},
{
closed = 1;
nodes = (
"564 678 LINE",
"576 793 LINE",
"412 793 LINE",
"400 678 LINE"
);
}
);
width = 566;
},
{
layerId = "43161617-4660-4075-B14A-1D8E25AEE542";
paths = (
{
closed = 1;
nodes = (
"168 0 LINE",
"221 501 LINE",
"352 501 LINE",
"299 0 LINE",
"403 0 LINE",
"463 578 LINE",
"229 578 LINE",
"234 628 LINE SMOOTH",
"240 682 OFFCURVE",
"250 702 OFFCURVE",
"292 702 CURVE SMOOTH",
"303 702 OFFCURVE",
"316 701 OFFCURVE",
"330 699 CURVE",
"338 776 LINE",
"318 779 OFFCURVE",
"298 781 OFFCURVE",
"281 781 CURVE SMOOTH",
"177 781 OFFCURVE",
"141 723 OFFCURVE",
"129 611 CURVE",
"125 578 LINE",
"56 578 LINE",
"48 501 LINE",
"118 501 LINE",
"65 0 LINE"
);
},
{
closed = 1;
nodes = (
"473 663 LINE",
"484 774 LINE",
"390 774 LINE",
"378 663 LINE"
);
}
);
width = 487;
}
);
unicode = FB01;
userData = {
com.fontlab.hintData = {
hhints = (
{
position = 1564;
width = 53;
}
);
};
};
},
{
glyphname = fl;
lastChange = "2016-08-02 10:42:05 +0000";
layers = (
{
layerId = "6D1B020D-7C4E-4885-9208-B35BA480FE8F";
paths = (
{
closed = 1;
nodes = (
"127 0 LINE",
"184 541 LINE",
"281 541 LINE",
"284 578 LINE",
"188 578 LINE",
"188 578 OFFCURVE",
"196 652 OFFCURVE",
"196 653 CURVE SMOOTH",
"202 710 OFFCURVE",
"209 755 OFFCURVE",
"309 755 CURVE SMOOTH",
"330 755 OFFCURVE",
"354 753 OFFCURVE",
"383 750 CURVE",
"304 0 LINE",
"357 0 LINE",
"439 780 LINE",
"387 791 OFFCURVE",
"344 796 OFFCURVE",
"309 796 CURVE SMOOTH",
"167 796 OFFCURVE",
"150 721 OFFCURVE",
"143 656 CURVE",
"135 578 LINE",
"57 578 LINE",
"53 541 LINE",
"131 541 LINE",
"74 0 LINE"
);
}
);
width = 444;
},
{
layerId = "BF03A18F-065F-4249-8E16-486B9CB494A0";
paths = (
{
closed = 1;
nodes = (
"212 0 LINE",
"260 455 LINE",
"314 455 LINE",
"328 578 LINE",
"273 578 LINE",
"273 578 OFFCURVE",
"278 623 OFFCURVE",
"278 623 CURVE SMOOTH",
"282 661 OFFCURVE",
"291 692 OFFCURVE",
"363 692 CURVE SMOOTH",
"372 692 OFFCURVE",
"381 692 OFFCURVE",
"391 691 CURVE",
"319 0 LINE",
"495 0 LINE",
"578 788 LINE",
"491 802 OFFCURVE",
"420 809 OFFCURVE",
"362 809 CURVE SMOOTH",
"137 809 OFFCURVE",
"110 711 OFFCURVE",
"102 624 CURVE",
"97 578 LINE",
"45 578 LINE",
"32 455 LINE",
"84 455 LINE",
"36 0 LINE"
);
}
);
width = 561;
},
{
layerId = "43161617-4660-4075-B14A-1D8E25AEE542";
paths = (
{
closed = 1;
nodes = (
"168 0 LINE",
"221 501 LINE",
"310 501 LINE",
"317 578 LINE",
"229 578 LINE",
"229 578 OFFCURVE",
"232 612 OFFCURVE",
"232 613 CURVE SMOOTH",
"239 677 OFFCURVE",
"245 723 OFFCURVE",
"339 723 CURVE SMOOTH",
"356 723 OFFCURVE",
"376 722 OFFCURVE",
"400 719 CURVE",
"324 0 LINE",
"428 0 LINE",
"510 776 LINE",
"438 793 OFFCURVE",
"378 800 OFFCURVE",
"332 800 CURVE SMOOTH",
"153 800 OFFCURVE",
"138 695 OFFCURVE",
"129 611 CURVE",
"125 578 LINE",
"56 578 LINE",
"48 501 LINE",
"118 501 LINE",
"65 0 LINE"
);
}
);
width = 510;
}
);
unicode = FB02;
userData = {
com.fontlab.hintData = {
hhints = (
{
position = 1576;
width = 50;
}
);
};
};
},
{
glyphname = ordfeminine;
lastChange = "2016-08-02 10:36:59 +0000";
layers = (
{
layerId = "6D1B020D-7C4E-4885-9208-B35BA480FE8F";
paths = (
{
closed = 1;
nodes = (
"236 351 OFFCURVE",
"281 378 OFFCURVE",
"303 416 CURVE",
"301 358 LINE",
"341 358 LINE",
"372 655 LINE SMOOTH",
"384 770 OFFCURVE",
"363 820 OFFCURVE",
"275 820 CURVE SMOOTH",
"195 820 OFFCURVE",
"148 780 OFFCURVE",
"137 695 CURVE",
"181 694 LINE",
"189 768 OFFCURVE",
"230 785 OFFCURVE",
"271 785 CURVE SMOOTH",
"320 785 OFFCURVE",
"336 755 OFFCURVE",
"326 660 CURVE SMOOTH",
"322 622 LINE",
"145 553 OFFCURVE",
"105 526 OFFCURVE",
"97 450 CURVE SMOOTH",
"91 390 OFFCURVE",
"127 351 OFFCURVE",
"188 351 CURVE"
);
},
{
closed = 1;
nodes = (
"172 388 OFFCURVE",
"139 403 OFFCURVE",
"144 455 CURVE SMOOTH",
"151 522 OFFCURVE",
"188 538 OFFCURVE",
"319 595 CURVE",
"304 453 LINE",
"281 417 OFFCURVE",
"247 388 OFFCURVE",
"203 388 CURVE SMOOTH"
);
}
);
width = 392;
},
{
layerId = "BF03A18F-065F-4249-8E16-486B9CB494A0";
paths = (
{
closed = 1;
nodes = (
"246 312 OFFCURVE",
"285 347 OFFCURVE",
"303 388 CURVE",
"307 320 LINE",
"446 320 LINE",
"482 672 LINE SMOOTH",
"491 757 OFFCURVE",
"442 821 OFFCURVE",
"330 821 CURVE SMOOTH",
"207 821 OFFCURVE",
"124 771 OFFCURVE",
"110 644 CURVE",
"263 639 LINE",
"274 693 OFFCURVE",
"281 709 OFFCURVE",
"302 709 CURVE SMOOTH",
"322 709 OFFCURVE",
"327 693 OFFCURVE",
"325 676 CURVE SMOOTH",
"319 623 LINE",
"239 594 OFFCURVE",
"86 565 OFFCURVE",
"73 432 CURVE SMOOTH",
"66 375 OFFCURVE",
"104 313 OFFCURVE",
"191 312 CURVE"
);
},
{
closed = 1;
nodes = (
"237 410 OFFCURVE",
"221 428 OFFCURVE",
"224 459 CURVE SMOOTH",
"228 490 OFFCURVE",
"260 541 OFFCURVE",
"313 562 CURVE",
"299 430 LINE",
"288 417 OFFCURVE",
"272 410 OFFCURVE",
"260 410 CURVE SMOOTH"
);
}
);
width = 493;
},
{
layerId = "43161617-4660-4075-B14A-1D8E25AEE542";
paths = (
{
closed = 1;
nodes = (
"235 323 OFFCURVE",
"278 353 OFFCURVE",
"301 392 CURVE",
"295 329 LINE",
"378 329 LINE",
"410 630 LINE SMOOTH",
"423 752 OFFCURVE",
"404 822 OFFCURVE",
"295 822 CURVE SMOOTH",
"206 822 OFFCURVE",
"150 757 OFFCURVE",
"138 659 CURVE",
"223 659 LINE",
"229 710 OFFCURVE",
"247 747 OFFCURVE",
"286 747 CURVE SMOOTH",
"323 747 OFFCURVE",
"327 709 OFFCURVE",
"322 658 CURVE SMOOTH",
"316 606 LINE",
"211 570 OFFCURVE",
"110 543 OFFCURVE",
"98 433 CURVE SMOOTH",
"91 369 OFFCURVE",
"129 323 OFFCURVE",
"188 323 CURVE"
);
},
{
closed = 1;
nodes = (
"205 402 OFFCURVE",
"189 420 OFFCURVE",
"193 454 CURVE SMOOTH",
"198 509 OFFCURVE",
"250 535 OFFCURVE",
"312 565 CURVE",
"300 450 LINE",
"286 425 OFFCURVE",
"259 402 OFFCURVE",
"229 402 CURVE SMOOTH"
);
}
);
width = 440;
}
);
unicode = 00AA;
userData = {
com.fontlab.hintData = {
hhints = (
{
position = 744;
width = 38;
},
{
position = 1640;
width = 38;
}
);
vhints = (
{
position = 621;
width = 44;
}
);
};
};
},
{
glyphname = ordmasculine;
lastChange = "2016-08-02 10:36:59 +0000";
layers = (
{
layerId = "6D1B020D-7C4E-4885-9208-B35BA480FE8F";
paths = (
{
closed = 1;
nodes = (
"317 351 OFFCURVE",
"351 412 OFFCURVE",
"359 497 CURVE SMOOTH",
"378 674 LINE SMOOTH",
"387 760 OFFCURVE",
"362 820 OFFCURVE",
"261 820 CURVE SMOOTH",
"159 820 OFFCURVE",
"123 761 OFFCURVE",
"114 674 CURVE SMOOTH",
"95 497 LINE SMOOTH",
"86 410 OFFCURVE",
"106 351 OFFCURVE",
"212 351 CURVE SMOOTH"
);
},
{
closed = 1;
nodes = (
"143 384 OFFCURVE",
"130 432 OFFCURVE",
"137 498 CURVE SMOOTH",
"155 673 LINE SMOOTH",
"163 739 OFFCURVE",
"187 787 OFFCURVE",
"257 787 CURVE SMOOTH",
"329 787 OFFCURVE",
"342 739 OFFCURVE",
"335 673 CURVE SMOOTH",
"317 498 LINE SMOOTH",
"310 432 OFFCURVE",
"287 384 OFFCURVE",
"215 384 CURVE SMOOTH"
);
}
);
width = 392;
},
{
layerId = "BF03A18F-065F-4249-8E16-486B9CB494A0";
paths = (
{
closed = 1;
nodes = (
"354 312 OFFCURVE",
"437 360 OFFCURVE",
"448 462 CURVE SMOOTH",
"469 671 LINE SMOOTH",
"480 773 OFFCURVE",
"408 822 OFFCURVE",
"307 822 CURVE SMOOTH",
"207 822 OFFCURVE",
"126 773 OFFCURVE",
"115 671 CURVE SMOOTH",
"93 462 LINE SMOOTH",
"83 360 OFFCURVE",
"153 312 OFFCURVE",
"254 312 CURVE SMOOTH"
);
},
{
closed = 1;
nodes = (
"244 414 OFFCURVE",
"232 429 OFFCURVE",
"236 461 CURVE SMOOTH",
"258 672 LINE SMOOTH",
"261 705 OFFCURVE",
"276 719 OFFCURVE",
"296 719 CURVE SMOOTH",
"318 719 OFFCURVE",
"331 706 OFFCURVE",
"327 672 CURVE SMOOTH",
"305 461 LINE SMOOTH",
"302 428 OFFCURVE",
"286 414 OFFCURVE",
"265 414 CURVE SMOOTH"
);
}
);
width = 493;
},
{
layerId = "43161617-4660-4075-B14A-1D8E25AEE542";
paths = (
{
closed = 1;
nodes = (
"341 322 OFFCURVE",
"392 397 OFFCURVE",
"402 505 CURVE SMOOTH",
"417 639 LINE SMOOTH",
"428 747 OFFCURVE",
"393 822 OFFCURVE",
"283 822 CURVE SMOOTH",
"167 822 OFFCURVE",
"122 751 OFFCURVE",
"110 639 CURVE SMOOTH",
"96 505 LINE SMOOTH",
"84 393 OFFCURVE",
"114 322 OFFCURVE",
"230 322 CURVE SMOOTH"
);
},
{
closed = 1;
nodes = (
"175 398 OFFCURVE",
"177 453 OFFCURVE",
"183 516 CURVE SMOOTH",
"195 628 LINE SMOOTH",
"201 690 OFFCURVE",
"212 746 OFFCURVE",
"273 746 CURVE SMOOTH",
"335 746 OFFCURVE",
"331 691 OFFCURVE",
"325 628 CURVE SMOOTH",
"313 516 LINE SMOOTH",
"306 453 OFFCURVE",
"298 398 OFFCURVE",
"236 398 CURVE SMOOTH"
);
}
);
width = 440;
}
);
unicode = 00BA;
userData = {
com.fontlab.hintData = {
hhints = (
{
position = 743;
width = 32;
},
{
position = 1647;
width = 31;
}
);
};
};
},
{
glyphname = "Be-cy";
lastChange = "2016-08-02 10:42:05 +0000";
layers = (
{
layerId = "6D1B020D-7C4E-4885-9208-B35BA480FE8F";
paths = (
{
closed = 1;
nodes = (
"199 0 LINE SMOOTH",
"356 0 OFFCURVE",
"424 95 OFFCURVE",
"438 229 CURVE SMOOTH",
"455 388 OFFCURVE",
"396 468 OFFCURVE",
"246 468 CURVE SMOOTH",
"157 468 LINE",
"189 768 LINE",
"446 768 LINE",
"450 810 LINE",
"138 810 LINE",
"53 0 LINE"
);
},
{
closed = 1;
nodes = (
"153 424 LINE",
"245 424 LINE SMOOTH",
"363 424 OFFCURVE",
"396 351 OFFCURVE",
"383 230 CURVE SMOOTH",
"370 110 OFFCURVE",
"323 44 OFFCURVE",
"205 44 CURVE SMOOTH",
"113 44 LINE"
);
}
);
width = 470;
},
{
layerId = "BF03A18F-065F-4249-8E16-486B9CB494A0";
paths = (
{
closed = 1;
nodes = (
"253 0 LINE SMOOTH",
"388 0 OFFCURVE",
"512 30 OFFCURVE",
"534 234 CURVE SMOOTH",
"550 390 OFFCURVE",
"472 466 OFFCURVE",
"323 466 CURVE SMOOTH",
"283 466 LINE",
"303 661 LINE",
"523 661 LINE",
"539 810 LINE",
"124 810 LINE",
"39 0 LINE"
);
},
{
closed = 1;
nodes = (
"269 333 LINE",
"288 333 LINE SMOOTH",
"350 333 OFFCURVE",
"357 286 OFFCURVE",
"354 238 CURVE SMOOTH",
"350 167 OFFCURVE",
"327 127 OFFCURVE",
"268 127 CURVE SMOOTH",
"247 127 LINE"
);
}
);
width = 568;
},
{
layerId = "43161617-4660-4075-B14A-1D8E25AEE542";
paths = (
{
closed = 1;
nodes = (
"184 0 LINE SMOOTH",
"357 0 OFFCURVE",
"443 72 OFFCURVE",
"460 237 CURVE SMOOTH",
"480 420 OFFCURVE",
"402 472 OFFCURVE",
"229 472 CURVE SMOOTH",
"199 472 LINE",
"226 730 LINE",
"462 730 LINE",
"470 810 LINE",
"125 810 LINE",
"40 0 LINE"
);
},
{
closed = 1;
nodes = (
"191 394 LINE",
"224 394 LINE SMOOTH",
"337 394 OFFCURVE",
"369 348 OFFCURVE",
"357 238 CURVE SMOOTH",
"344 106 OFFCURVE",
"294 79 OFFCURVE",
"193 79 CURVE SMOOTH",
"158 79 LINE"
);
}
);
width = 493;
}
);
unicode = 0411;
userData = {
com.fontlab.hintData = {
hhints = (
{
position = 0;
width = 61;
},
{
position = 895;
width = 61;
}
);
};
};
},
{
glyphname = "Ve-cy";
lastChange = "2016-08-02 10:42:05 +0000";
layers = (
{
layerId = "6D1B020D-7C4E-4885-9208-B35BA480FE8F";
paths = (
{
closed = 1;
nodes = (
"246 0 LINE SMOOTH",
"401 0 OFFCURVE",
"438 114 OFFCURVE",
"451 236 CURVE SMOOTH",
"458 308 OFFCURVE",
"451 409 OFFCURVE",
"359 437 CURVE",
"439 456 OFFCURVE",
"465 543 OFFCURVE",
"472 608 CURVE SMOOTH",
"484 720 OFFCURVE",
"455 810 OFFCURVE",
"306 810 CURVE SMOOTH",
"139 810 LINE",
"54 0 LINE"
);
},
{
closed = 1;
nodes = (
"152 412 LINE",
"289 412 LINE SMOOTH",
"386 412 OFFCURVE",
"407 332 OFFCURVE",
"397 235 CURVE SMOOTH",
"384 104 OFFCURVE",
"350 43 OFFCURVE",
"243 43 CURVE SMOOTH",
"113 43 LINE"
);
},
{
closed = 1;
nodes = (
"189 766 LINE",
"289 766 LINE SMOOTH",
"416 766 OFFCURVE",
"431 698 OFFCURVE",
"422 608 CURVE SMOOTH",
"413 524 OFFCURVE",
"382 455 OFFCURVE",
"292 455 CURVE SMOOTH",
"156 455 LINE"
);
}
);
width = 488;
},
{
layerId = "BF03A18F-065F-4249-8E16-486B9CB494A0";
paths = (
{
closed = 1;
nodes = (
"296 0 LINE SMOOTH",
"454 0 OFFCURVE",
"560 68 OFFCURVE",
"575 243 CURVE SMOOTH",
"586 357 OFFCURVE",
"542 426 OFFCURVE",
"451 435 CURVE",
"524 449 OFFCURVE",
"574 498 OFFCURVE",
"586 595 CURVE SMOOTH",
"611 786 OFFCURVE",
"478 810 OFFCURVE",
"341 810 CURVE SMOOTH",
"124 810 LINE",
"39 0 LINE"
);
},
{
closed = 1;
nodes = (
"272 364 LINE",
"301 364 LINE SMOOTH",
"375 364 OFFCURVE",
"397 334 OFFCURVE",
"388 246 CURVE SMOOTH",
"380 174 OFFCURVE",
"352 136 OFFCURVE",
"277 136 CURVE SMOOTH",
"248 136 LINE"
);
},
{
closed = 1;
nodes = (
"305 681 LINE",
"337 681 LINE SMOOTH",
"393 681 OFFCURVE",
"421 643 OFFCURVE",
"416 590 CURVE SMOOTH",
"409 529 OFFCURVE",
"391 489 OFFCURVE",
"313 489 CURVE SMOOTH",
"285 489 LINE"
);
}
);
width = 605;
},
{
layerId = "43161617-4660-4075-B14A-1D8E25AEE542";
paths = (
{
closed = 1;
nodes = (
"254 0 LINE SMOOTH",
"400 0 OFFCURVE",
"470 93 OFFCURVE",
"485 232 CURVE SMOOTH",
"497 343 OFFCURVE",
"464 412 OFFCURVE",
"371 436 CURVE",
"450 447 OFFCURVE",
"493 510 OFFCURVE",
"503 607 CURVE SMOOTH",
"517 744 OFFCURVE",
"456 810 OFFCURVE",
"309 810 CURVE SMOOTH",
"125 810 LINE",
"40 0 LINE"
);
},
{
closed = 1;
nodes = (
"190 387 LINE",
"261 387 LINE SMOOTH",
"360 387 OFFCURVE",
"391 332 OFFCURVE",
"381 232 CURVE SMOOTH",
"370 125 OFFCURVE",
"338 79 OFFCURVE",
"238 79 CURVE SMOOTH",
"158 79 LINE"
);
},
{
closed = 1;
nodes = (
"226 729 LINE",
"257 729 LINE SMOOTH",
"373 729 OFFCURVE",
"419 717 OFFCURVE",
"408 607 CURVE SMOOTH",
"397 512 OFFCURVE",
"365 470 OFFCURVE",
"270 470 CURVE SMOOTH",
"199 470 LINE"
);
}
);
width = 521;
}
);
unicode = 0412;
userData = {
com.fontlab.hintData = {
hhints = (
{
position = 0;
width = 56;
},
{
position = 864;
width = 53;
},
{
position = 1602;
width = 56;
}
);
};
};
},
{
glyphname = "Ge-cy";
lastChange = "2016-08-02 10:42:05 +0000";
layers = (
{
layerId = "6D1B020D-7C4E-4885-9208-B35BA480FE8F";
paths = (
{
closed = 1;
nodes = (
"108 0 LINE",
"189 766 LINE",
"409 766 LINE",
"414 810 LINE",
"139 810 LINE",
"54 0 LINE"
);
}
);
width = 369;
},
{
layerId = "BF03A18F-065F-4249-8E16-486B9CB494A0";
paths = (
{
closed = 1;
nodes = (
"234 0 LINE",
"304 666 LINE",
"499 666 LINE",
"514 810 LINE",
"124 810 LINE",
"39 0 LINE"
);
}
);
width = 481;
},
{
layerId = "43161617-4660-4075-B14A-1D8E25AEE542";
paths = (
{
closed = 1;
nodes = (
"149 0 LINE",
"226 729 LINE",
"422 729 LINE",
"431 810 LINE",
"125 810 LINE",
"40 0 LINE"
);
}
);
width = 385;
}
);
unicode = 0413;
},
{
glyphname = "Gheupturn-cy";
lastChange = "2016-08-02 10:42:05 +0000";
layers = (
{
layerId = "6D1B020D-7C4E-4885-9208-B35BA480FE8F";
paths = (
{
closed = 1;
nodes = (
"108 0 LINE",
"189 768 LINE",
"415 768 LINE",
"429 897 LINE",
"392 897 LINE",
"383 810 LINE",
"138 810 LINE",
"53 0 LINE"
);
}
);
width = 373;
},
{
layerId = "BF03A18F-065F-4249-8E16-486B9CB494A0";
paths = (
{
closed = 1;
nodes = (
"234 0 LINE",
"304 666 LINE",
"499 666 LINE",
"528 947 LINE",
"415 947 LINE",
"401 810 LINE",
"124 810 LINE",
"39 0 LINE"
);
}
);
width = 480;
},
{
layerId = "43161617-4660-4075-B14A-1D8E25AEE542";
paths = (
{
closed = 1;
nodes = (
"149 0 LINE",
"226 729 LINE",
"423 729 LINE",
"443 917 LINE",
"374 917 LINE",
"363 810 LINE",
"125 810 LINE",
"40 0 LINE"
);
}
);
width = 376;
}
);
unicode = 0490;
},
{
glyphname = "De-cy";
lastChange = "2016-08-02 10:42:05 +0000";
layers = (
{
layerId = "6D1B020D-7C4E-4885-9208-B35BA480FE8F";
paths = (
{
closed = 1;
nodes = (
"18 -134 LINE",
"38 0 LINE",
"464 0 LINE",
"456 -134 LINE",
"500 -134 LINE",
"519 42 LINE",
"459 42 LINE",
"540 810 LINE",
"255 810 LINE",
"206 534 LINE SMOOTH",
"127 100 OFFCURVE",
"94 85 OFFCURVE",
"21 42 CURVE",
"-7 42 LINE",
"-26 -134 LINE"
);
},
{
closed = 1;
nodes = (
"142 79 OFFCURVE",
"177 92 OFFCURVE",
"256 524 CURVE",
"301 768 LINE",
"481 768 LINE",
"405 42 LINE",
"83 42 LINE"
);
}
);
width = 564;
},
{
layerId = "BF03A18F-065F-4249-8E16-486B9CB494A0";
paths = (
{
closed = 1;
nodes = (
"108 -182 LINE",
"138 0 LINE",
"532 0 LINE",
"523 -182 LINE",
"648 -182 LINE",
"683 139 LINE",
"587 139 LINE",
"657 810 LINE",
"272 810 LINE",
"218 517 LINE SMOOTH",
"172 266 OFFCURVE",
"112 158 OFFCURVE",
"30 139 CURVE",
"10 139 LINE",
"-24 -182 LINE"
);
},
{
closed = 1;
nodes = (
"268 182 OFFCURVE",
"328 231 OFFCURVE",
"375 501 CURVE",
"403 672 LINE",
"463 672 LINE",
"407 139 LINE",
"213 139 LINE"
);
}
);
width = 709;
},
{
layerId = "43161617-4660-4075-B14A-1D8E25AEE542";
paths = (
{
closed = 1;
nodes = (
"56 -146 LINE",
"81 0 LINE",
"483 0 LINE",
"477 -146 LINE",
"562 -146 LINE",
"585 79 LINE",
"509 79 LINE",
"585 810 LINE",
"249 810 LINE",
"211 568 LINE SMOOTH",
"152 193 OFFCURVE",
"95 126 OFFCURVE",
"32 79 CURVE",
"-5 79 LINE",
"-29 -146 LINE"
);
},
{
closed = 1;
nodes = (
"198 133 OFFCURVE",
"251 176 OFFCURVE",
"306 542 CURVE",
"334 729 LINE",
"468 729 LINE",
"399 79 LINE",
"134 79 LINE"
);
}
);
width = 623;
}
);
unicode = 0414;
userData = {
com.fontlab.hintData = {
hhints = (
{
position = 0;
width = 55;
}
);
};
};
},
{
glyphname = "Zhe-cy";
lastChange = "2016-08-02 10:42:05 +0000";
layers = (
{
layerId = "6D1B020D-7C4E-4885-9208-B35BA480FE8F";
paths = (
{
closed = 1;
nodes = (
"54 0 LINE",
"294 412 LINE",
"305 412 LINE",
"261 0 LINE",
"311 0 LINE",
"354 412 LINE",
"365 412 LINE",
"518 0 LINE",
"572 0 LINE",
"408 423 LINE",
"638 810 LINE",
"585 810 LINE",
"363 426 LINE",
"356 426 LINE",
"396 810 LINE",
"346 810 LINE",
"306 426 LINE",
"298 426 LINE",
"157 810 LINE",
"104 810 LINE",
"253 423 LINE",
"0 0 LINE"
);
}
);
width = 614;
},
{
layerId = "BF03A18F-065F-4249-8E16-486B9CB494A0";
paths = (
{
closed = 1;
nodes = (
"154 0 LINE",
"343 390 LINE",
"352 390 LINE",
"311 0 LINE",
"463 0 LINE",
"504 390 LINE",
"514 390 LINE",
"621 0 LINE",
"792 0 LINE",
"669 405 LINE",
"876 810 LINE",
"696 810 LINE",
"519 434 LINE",
"509 434 LINE",
"548 810 LINE",
"396 810 LINE",
"357 434 LINE",
"347 434 LINE",
"248 810 LINE",
"67 810 LINE",
"190 405 LINE",
"-19 0 LINE"
);
}
);
width = 823;
},
{
layerId = "43161617-4660-4075-B14A-1D8E25AEE542";
paths = (
{
closed = 1;
nodes = (
"88 0 LINE",
"301 406 LINE",
"309 406 LINE",
"266 0 LINE",
"359 0 LINE",
"401 406 LINE",
"409 406 LINE",
"537 0 LINE",
"644 0 LINE",
"498 415 LINE",
"710 810 LINE",
"604 810 LINE",
"410 420 LINE",
"403 420 LINE",
"444 810 LINE",
"351 810 LINE",
"310 420 LINE",
"304 420 LINE",
"191 810 LINE",
"85 810 LINE",
"214 415 LINE",
"-19 0 LINE"
);
}
);
width = 672;
}
);
unicode = 0416;
},
{
glyphname = "Ze-cy";
lastChange = "2016-08-02 10:42:05 +0000";
layers = (
{
layerId = "6D1B020D-7C4E-4885-9208-B35BA480FE8F";
paths = (
{
closed = 1;
nodes = (
"351 -11 OFFCURVE",
"414 83 OFFCURVE",
"428 216 CURVE SMOOTH",
"442 356 OFFCURVE",
"381 409 OFFCURVE",
"331 421 CURVE",
"398 434 OFFCURVE",
"457 497 OFFCURVE",
"470 619 CURVE SMOOTH",
"481 732 OFFCURVE",
"434 819 OFFCURVE",
"310 819 CURVE SMOOTH",
"175 819 OFFCURVE",
"119 743 OFFCURVE",
"106 630 CURVE SMOOTH",
"105 617 LINE",
"156 617 LINE",
"156 620 OFFCURVE",
"157 629 OFFCURVE",
"157 632 CURVE SMOOTH",
"170 738 OFFCURVE",
"221 776 OFFCURVE",
"307 776 CURVE SMOOTH",
"398 776 OFFCURVE",
"425 711 OFFCURVE",
"415 620 CURVE SMOOTH",
"403 500 OFFCURVE",
"358 443 OFFCURVE",
"255 441 CURVE SMOOTH",
"253 441 OFFCURVE",
"207 441 OFFCURVE",
"205 441 CURVE",
"201 401 LINE",
"203 401 OFFCURVE",
"249 401 OFFCURVE",
"251 401 CURVE SMOOTH",
"354 398 OFFCURVE",
"384 322 OFFCURVE",
"373 215 CURVE SMOOTH",
"357 71 OFFCURVE",
"295 32 OFFCURVE",
"220 32 CURVE SMOOTH",
"137 32 OFFCURVE",
"107 83 OFFCURVE",
"116 176 CURVE SMOOTH",
"116 179 OFFCURVE",
"117 192 OFFCURVE",
"118 195 CURVE",
"67 195 LINE",
"66 180 LINE",
"54 65 OFFCURVE",
"93 -11 OFFCURVE",
"215 -11 CURVE SMOOTH"
);
}
);
width = 460;
},
{
layerId = "BF03A18F-065F-4249-8E16-486B9CB494A0";
paths = (
{
closed = 1;
nodes = (
"413 -17 OFFCURVE",
"485 91 OFFCURVE",
"501 240 CURVE SMOOTH",
"513 357 OFFCURVE",
"475 402 OFFCURVE",
"425 423 CURVE",
"479 436 OFFCURVE",
"529 507 OFFCURVE",
"539 601 CURVE SMOOTH",
"554 749 OFFCURVE",
"473 824 OFFCURVE",
"331 824 CURVE SMOOTH",
"192 824 OFFCURVE",
"90 742 OFFCURVE",
"74 593 CURVE SMOOTH",
"69 538 LINE",
"250 538 LINE",
"250 539 OFFCURVE",
"255 587 OFFCURVE",
"256 587 CURVE SMOOTH",
"262 642 OFFCURVE",
"277 679 OFFCURVE",
"314 679 CURVE SMOOTH",
"352 679 OFFCURVE",
"365 648 OFFCURVE",
"358 587 CURVE SMOOTH",
"350 508 OFFCURVE",
"332 469 OFFCURVE",
"259 468 CURVE SMOOTH",
"259 468 OFFCURVE",
"215 468 OFFCURVE",
"215 468 CURVE",
"202 353 LINE",
"203 353 OFFCURVE",
"250 353 OFFCURVE",
"250 353 CURVE SMOOTH",
"320 352 OFFCURVE",
"330 313 OFFCURVE",
"321 234 CURVE SMOOTH",
"314 166 OFFCURVE",
"303 137 OFFCURVE",
"266 137 CURVE SMOOTH",
"227 137 OFFCURVE",
"218 163 OFFCURVE",
"227 246 CURVE SMOOTH",
"227 247 OFFCURVE",
"230 277 OFFCURVE",
"230 278 CURVE",
"48 278 LINE",
"45 249 LINE",
"29 92 OFFCURVE",
"67 -17 OFFCURVE",
"247 -17 CURVE SMOOTH"
);
}
);
width = 537;
},
{
layerId = "43161617-4660-4075-B14A-1D8E25AEE542";
paths = (
{
closed = 1;
nodes = (
"358 -9 OFFCURVE",
"424 84 OFFCURVE",
"439 228 CURVE SMOOTH",
"451 339 OFFCURVE",
"413 405 OFFCURVE",
"344 427 CURVE",
"416 447 OFFCURVE",
"469 509 OFFCURVE",
"479 608 CURVE SMOOTH",
"493 737 OFFCURVE",
"426 818 OFFCURVE",
"294 818 CURVE SMOOTH",
"162 818 OFFCURVE",
"81 739 OFFCURVE",
"68 611 CURVE SMOOTH",
"64 585 LINE",
"168 585 LINE",
"169 593 OFFCURVE",
"170 603 OFFCURVE",
"171 610 CURVE SMOOTH",
"184 685 OFFCURVE",
"217 733 OFFCURVE",
"290 733 CURVE SMOOTH",
"363 733 OFFCURVE",
"383 683 OFFCURVE",
"375 608 CURVE SMOOTH",
"366 521 OFFCURVE",
"328 472 OFFCURVE",
"225 466 CURVE SMOOTH",
"217 465 OFFCURVE",
"202 465 OFFCURVE",
"194 465 CURVE",
"186 382 LINE",
"194 382 OFFCURVE",
"210 382 OFFCURVE",
"217 381 CURVE SMOOTH",
"320 375 OFFCURVE",
"344 313 OFFCURVE",
"335 227 CURVE SMOOTH",
"325 135 OFFCURVE",
"302 77 OFFCURVE",
"224 77 CURVE SMOOTH",
"153 77 OFFCURVE",
"139 126 OFFCURVE",
"144 196 CURVE SMOOTH",
"145 205 OFFCURVE",
"146 215 OFFCURVE",
"146 224 CURVE",
"43 224 LINE",
"41 198 LINE",
"27 69 OFFCURVE",
"83 -9 OFFCURVE",
"215 -9 CURVE SMOOTH"
);
}
);
width = 479;
}
);
unicode = 0417;
userData = {
com.fontlab.hintData = {
hhints = (
{
position = -24;
width = 51;
},
{
position = 838;
width = 44;
},
{
position = 1628;
width = 50;
}
);
};
};
},
{
glyphname = "Ii-cy";
lastChange = "2016-08-02 10:42:05 +0000";
layers = (
{
layerId = "6D1B020D-7C4E-4885-9208-B35BA480FE8F";
paths = (
{
closed = 1;
nodes = (
"100 0 LINE",
"448 690 LINE",
"375 0 LINE",
"425 0 LINE",
"510 810 LINE",
"464 810 LINE",
"115 120 LINE",
"187 810 LINE",
"138 810 LINE",
"53 0 LINE"
);
}
);
width = 520;
},
{
layerId = "BF03A18F-065F-4249-8E16-486B9CB494A0";
paths = (
{
closed = 1;
nodes = (
"153 0 LINE",
"406 448 LINE",
"358 0 LINE",
"513 0 LINE",
"598 810 LINE",
"474 810 LINE",
"229 369 LINE",
"275 810 LINE",
"124 810 LINE",
"39 0 LINE"
);
}
);
width = 601;
},
{
layerId = "43161617-4660-4075-B14A-1D8E25AEE542";
paths = (
{
closed = 1;
nodes = (
"122 0 LINE",
"420 578 LINE",
"359 0 LINE",
"456 0 LINE",
"541 810 LINE",
"461 810 LINE",
"162 241 LINE",
"222 810 LINE",
"125 810 LINE",
"40 0 LINE"
);
}
);
width = 543;
}
);
unicode = 0418;
},
{
glyphname = "Ka-cy";
lastChange = "2016-08-02 10:42:05 +0000";
layers = (
{
layerId = "6D1B020D-7C4E-4885-9208-B35BA480FE8F";
paths = (
{
closed = 1;
nodes = (
"108 0 LINE",
"150 398 LINE",
"218 398 LINE",
"384 0 LINE",
"440 0 LINE",
"267 417 LINE",
"494 810 LINE",
"438 810 LINE",
"221 430 LINE",
"153 430 LINE",
"193 810 LINE",
"138 810 LINE",
"53 0 LINE"
);
}
);
width = 469;
},
{
layerId = "BF03A18F-065F-4249-8E16-486B9CB494A0";
paths = (
{
closed = 1;
nodes = (
"234 0 LINE",
"270 343 LINE",
"281 343 LINE",
"353 0 LINE",
"553 0 LINE",
"452 431 LINE",
"636 810 LINE",
"444 810 LINE",
"298 498 LINE",
"286 498 LINE",
"319 810 LINE",
"124 810 LINE",
"39 0 LINE"
);
}
);
width = 588;
},
{
layerId = "43161617-4660-4075-B14A-1D8E25AEE542";
paths = (
{
closed = 1;
nodes = (
"149 0 LINE",
"191 395 LINE",
"235 395 LINE",
"360 0 LINE",
"470 0 LINE",
"333 424 LINE",
"535 810 LINE",
"425 810 LINE",
"241 449 LINE",
"197 449 LINE",
"234 810 LINE",
"125 810 LINE",
"40 0 LINE"
);
}
);
width = 505;
}
);
unicode = 041A;
},
{
glyphname = "El-cy";
lastChange = "2016-08-02 10:42:05 +0000";
layers = (
{
layerId = "6D1B020D-7C4E-4885-9208-B35BA480FE8F";
paths = (
{
closed = 1;
nodes = (
"166 1 OFFCURVE",
"170 52 OFFCURVE",
"257 508 CURVE SMOOTH",
"304 768 LINE",
"488 768 LINE",
"407 0 LINE",
"462 0 LINE",
"547 810 LINE",
"258 810 LINE",
"204 508 LINE SMOOTH",
"119 52 OFFCURVE",
"116 47 OFFCURVE",
"8 41 CURVE",
"4 -2 LINE"
);
}
);
width = 557;
},
{
layerId = "BF03A18F-065F-4249-8E16-486B9CB494A0";
paths = (
{
closed = 1;
nodes = (
"279 -15 OFFCURVE",
"285 72 OFFCURVE",
"345 421 CURVE SMOOTH",
"386 661 LINE",
"460 661 LINE",
"391 0 LINE",
"586 0 LINE",
"671 810 LINE",
"224 810 LINE",
"162 463 LINE SMOOTH",
"107 158 OFFCURVE",
"118 135 OFFCURVE",
"-2 136 CURVE",
"-16 0 LINE"
);
}
);
width = 674;
},
{
layerId = "43161617-4660-4075-B14A-1D8E25AEE542";
paths = (
{
closed = 1;
nodes = (
"163 -13 OFFCURVE",
"209 115 OFFCURVE",
"255 387 CURVE SMOOTH",
"310 729 LINE",
"458 729 LINE",
"382 0 LINE",
"491 0 LINE",
"576 810 LINE",
"224 810 LINE",
"153 387 LINE SMOOTH",
"103 95 OFFCURVE",
"65 80 OFFCURVE",
"-11 82 CURVE",
"-21 0 LINE"
);
}
);
width = 579;
}
);
unicode = 041B;
userData = {
com.fontlab.hintData = {
hhints = (
{
position = -7;
width = 55;
}
);
};
};
},
{
glyphname = "Em-cy";
lastChange = "2016-08-02 10:42:05 +0000";
layers = (
{
layerId = "6D1B020D-7C4E-4885-9208-B35BA480FE8F";
paths = (
{
closed = 1;
nodes = (
"91 0 LINE",
"180 665 LINE",
"274 0 LINE",
"314 0 LINE",
"551 667 LINE",
"500 0 LINE",
"546 0 LINE",
"608 810 LINE",
"554 810 LINE",
"303 89 LINE",
"204 810 LINE",
"153 810 LINE",
"44 0 LINE"
);
}
);
width = 632;
},
{
layerId = "BF03A18F-065F-4249-8E16-486B9CB494A0";
paths = (
{
closed = 1;
nodes = (
"169 0 LINE",
"238 528 LINE",
"288 0 LINE",
"384 0 LINE",
"538 523 LINE",
"498 0 LINE",
"634 0 LINE",
"706 810 LINE",
"503 810 LINE",
"374 386 LINE",
"341 810 LINE",
"130 810 LINE",
"32 0 LINE"
);
}
);
width = 714;
},
{
layerId = "43161617-4660-4075-B14A-1D8E25AEE542";
paths = (
{
closed = 1;
nodes = (
"125 0 LINE",
"189 553 LINE",
"274 0 LINE",
"336 0 LINE",
"538 553 LINE",
"487 0 LINE",
"573 0 LINE",
"643 810 LINE",
"544 810 LINE",
"324 180 LINE",
"236 810 LINE",
"138 810 LINE",
"38 0 LINE"
);
}
);
width = 658;
}
);
unicode = 041C;
userData = {
com.fontlab.hintData = {
vhints = (
{
position = 36;
width = 290;
},
{
position = 63;
width = 291;
},
{
position = 962;
width = 291;
},
{
position = 994;
width = 286;
}
);
};
};
},
{
glyphname = "Pe-cy";
lastChange = "2016-08-02 10:42:05 +0000";
layers = (
{
layerId = "6D1B020D-7C4E-4885-9208-B35BA480FE8F";
paths = (
{
closed = 1;
nodes = (
"108 0 LINE",
"189 768 LINE",
"476 768 LINE",
"395 0 LINE",
"449 0 LINE",
"534 810 LINE",
"139 810 LINE",
"54 0 LINE"
);
}
);
width = 545;
},
{
layerId = "BF03A18F-065F-4249-8E16-486B9CB494A0";
paths = (
{
closed = 1;
nodes = (
"226 0 LINE",
"296 670 LINE",
"408 670 LINE",
"338 0 LINE",
"529 0 LINE",
"614 810 LINE",
"119 810 LINE",
"34 0 LINE"
);
}
);
width = 613;
},
{
layerId = "43161617-4660-4075-B14A-1D8E25AEE542";
paths = (
{
closed = 1;
nodes = (
"149 0 LINE",
"227 731 LINE",
"450 731 LINE",
"373 0 LINE",
"482 0 LINE",
"567 810 LINE",
"125 810 LINE",
"40 0 LINE"
);
}
);
width = 570;
}
);
unicode = 041F;
},
{
glyphname = "Er-cy";
lastChange = "2016-08-02 10:42:05 +0000";
layers = (
{
layerId = "6D1B020D-7C4E-4885-9208-B35BA480FE8F";
paths = (
{
closed = 1;
nodes = (
"108 0 LINE",
"149 387 LINE",
"286 387 LINE SMOOTH",
"430 387 OFFCURVE",
"484 493 OFFCURVE",
"496 601 CURVE SMOOTH",
"508 721 OFFCURVE",
"475 810 OFFCURVE",
"329 810 CURVE SMOOTH",
"139 810 LINE",
"54 0 LINE"
);
},
{
closed = 1;
nodes = (
"189 768 LINE",
"315 768 LINE SMOOTH",
"419 768 OFFCURVE",
"454 731 OFFCURVE",
"440 601 CURVE SMOOTH",
"427 475 OFFCURVE",
"376 429 OFFCURVE",
"278 429 CURVE SMOOTH",
"154 429 LINE"
);
}
);
width = 477;
},
{
layerId = "BF03A18F-065F-4249-8E16-486B9CB494A0";
paths = (
{
closed = 1;
nodes = (
"229 0 LINE",
"265 336 LINE",
"333 336 LINE SMOOTH",
"463 336 OFFCURVE",
"579 371 OFFCURVE",
"601 572 CURVE SMOOTH",
"617 725 OFFCURVE",
"554 810 OFFCURVE",
"408 810 CURVE SMOOTH",
"119 810 LINE",
"34 0 LINE"
);
},
{
closed = 1;
nodes = (
"300 673 LINE",
"360 673 LINE SMOOTH",
"423 673 OFFCURVE",
"423 625 OFFCURVE",
"418 576 CURVE SMOOTH",
"411 509 OFFCURVE",
"400 471 OFFCURVE",
"341 471 CURVE SMOOTH",
"279 471 LINE"
);
}
);
width = 589;
},
{
layerId = "43161617-4660-4075-B14A-1D8E25AEE542";
paths = (
{
closed = 1;
nodes = (
"149 0 LINE",
"189 377 LINE",
"281 377 LINE SMOOTH",
"414 377 OFFCURVE",
"488 459 OFFCURVE",
"502 587 CURVE SMOOTH",
"517 727 OFFCURVE",
"470 810 OFFCURVE",
"326 810 CURVE SMOOTH",
"125 810 LINE",
"40 0 LINE"
);
},
{
closed = 1;
nodes = (
"227 731 LINE",
"284 731 LINE SMOOTH",
"397 731 OFFCURVE",
"410 702 OFFCURVE",
"397 586 CURVE SMOOTH",
"387 484 OFFCURVE",
"351 456 OFFCURVE",
"253 456 CURVE SMOOTH",
"198 456 LINE"
);
}
);
width = 479;
}
);
unicode = 0420;
userData = {
com.fontlab.hintData = {
hhints = (
{
position = 800;
width = 55;
},
{
position = 1604;
width = 54;
}
);
};
};
},
{
glyphname = "U-cy";
lastChange = "2016-08-02 10:42:05 +0000";
layers = (
{
layerId = "6D1B020D-7C4E-4885-9208-B35BA480FE8F";
paths = (
{
closed = 1;
nodes = (
"200 -96 OFFCURVE",
"209 -54 OFFCURVE",
"260 104 CURVE SMOOTH",
"495 810 LINE",
"440 810 LINE",
"321 438 LINE",
"238 173 LINE",
"204 436 LINE",
"151 810 LINE",
"97 810 LINE",
"205 109 LINE SMOOTH",
"177 -23 OFFCURVE",
"167 -52 OFFCURVE",
"36 -50 CURVE",
"30 -93 LINE"
);
}
);
width = 452;
},
{
layerId = "BF03A18F-065F-4249-8E16-486B9CB494A0";
paths = (
{
closed = 1;
nodes = (
"227 -170 OFFCURVE",
"311 -139 OFFCURVE",
"374 48 CURVE SMOOTH",
"627 810 LINE",
"444 810 LINE",
"352 481 LINE",
"308 273 LINE",
"299 481 LINE",
"263 810 LINE",
"83 810 LINE",
"193 80 LINE SMOOTH",
"208 -18 OFFCURVE",
"132 -44 OFFCURVE",
"24 -43 CURVE",
"11 -169 LINE"
);
}
);
width = 578;
},
{
layerId = "43161617-4660-4075-B14A-1D8E25AEE542";
paths = (
{
closed = 1;
nodes = (
"236 -133 OFFCURVE",
"229 -75 OFFCURVE",
"279 89 CURVE SMOOTH",
"501 810 LINE",
"396 810 LINE",
"297 461 LINE",
"233 206 LINE",
"218 463 LINE",
"185 810 LINE",
"82 810 LINE",
"167 91 LINE SMOOTH",
"170 -11 OFFCURVE",
"163 -50 OFFCURVE",
"26 -37 CURVE",
"17 -121 LINE"
);
}
);
width = 452;
}
);
unicode = 0423;
userData = {
com.fontlab.hintData = {
hhints = (
{
position = -165;
width = 52;
}
);
};
};
},
{
glyphname = "Ef-cy";
lastChange = "2016-08-02 10:42:05 +0000";
layers = (
{
layerId = "6D1B020D-7C4E-4885-9208-B35BA480FE8F";
paths = (
{
closed = 1;
nodes = (
"296 -56 LINE",
"312 90 LINE",
"325 89 OFFCURVE",
"353 88 OFFCURVE",
"362 88 CURVE",
"469 84 OFFCURVE",
"531 151 OFFCURVE",
"545 291 CURVE SMOOTH",
"570 527 LINE SMOOTH",
"585 669 OFFCURVE",
"537 743 OFFCURVE",
"426 741 CURVE",
"418 741 OFFCURVE",
"393 740 OFFCURVE",
"380 739 CURVE",
"395 883 LINE",
"340 883 LINE",
"325 738 LINE",
"314 739 OFFCURVE",
"292 740 OFFCURVE",
"286 740 CURVE",
"172 742 OFFCURVE",
"107 669 OFFCURVE",
"92 527 CURVE SMOOTH",
"67 291 LINE SMOOTH",
"53 150 OFFCURVE",
"101 85 OFFCURVE",
"208 88 CURVE",
"217 88 OFFCURVE",
"243 89 OFFCURVE",
"256 90 CURVE",
"241 -56 LINE"
);
},
{
closed = 1;
nodes = (
"132 123 OFFCURVE",
"108 178 OFFCURVE",
"120 291 CURVE SMOOTH",
"145 527 LINE SMOOTH",
"156 641 OFFCURVE",
"194 705 OFFCURVE",
"285 703 CURVE SMOOTH",
"292 703 OFFCURVE",
"310 703 OFFCURVE",
"321 701 CURVE",
"261 127 LINE",
"247 125 OFFCURVE",
"228 125 OFFCURVE",
"220 125 CURVE SMOOTH"
);
},
{
closed = 1;
nodes = (
"350 125 OFFCURVE",
"328 125 OFFCURVE",
"315 127 CURVE",
"376 701 LINE",
"388 702 OFFCURVE",
"408 703 OFFCURVE",
"415 703 CURVE SMOOTH",
"506 705 OFFCURVE",
"530 641 OFFCURVE",
"519 527 CURVE SMOOTH",
"494 291 LINE SMOOTH",
"482 178 OFFCURVE",
"446 123 OFFCURVE",
"357 125 CURVE SMOOTH"
);
}
);
width = 593;
},
{
layerId = "BF03A18F-065F-4249-8E16-486B9CB494A0";
paths = (
{
closed = 1;
nodes = (
"439 -27 LINE",
"452 89 LINE",
"452 89 OFFCURVE",
"472 88 OFFCURVE",
"472 88 CURVE",
"615 76 OFFCURVE",
"729 168 OFFCURVE",
"741 282 CURVE SMOOTH",
"768 536 LINE SMOOTH",
"779 648 OFFCURVE",
"685 741 OFFCURVE",
"532 729 CURVE",
"519 729 LINE",
"532 852 LINE",
"380 852 LINE",
"367 729 LINE",
"347 729 LINE",
"205 741 OFFCURVE",
"90 649 OFFCURVE",
"79 536 CURVE SMOOTH",
"52 282 LINE SMOOTH",
"40 169 OFFCURVE",
"134 76 OFFCURVE",
"287 88 CURVE",
"300 88 LINE",
"288 -27 LINE"
);
},
{
closed = 1;
nodes = (
"239 209 OFFCURVE",
"219 247 OFFCURVE",
"222 279 CURVE SMOOTH",
"249 539 LINE SMOOTH",
"252 572 OFFCURVE",
"281 613 OFFCURVE",
"339 615 CURVE SMOOTH",
"344 616 OFFCURVE",
"350 615 OFFCURVE",
"355 615 CURVE",
"313 210 LINE",
"308 209 OFFCURVE",
"302 209 OFFCURVE",
"298 209 CURVE SMOOTH"
);
},
{
closed = 1;
nodes = (
"476 209 OFFCURVE",
"470 210 OFFCURVE",
"464 210 CURVE",
"507 615 LINE",
"521 615 LINE SMOOTH",
"581 612 OFFCURVE",
"601 571 OFFCURVE",
"597 538 CURVE SMOOTH",
"570 279 LINE SMOOTH",
"566 245 OFFCURVE",
"537 209 OFFCURVE",
"481 209 CURVE SMOOTH"
);
}
);
width = 782;
},
{
layerId = "43161617-4660-4075-B14A-1D8E25AEE542";
paths = (
{
closed = 1;
nodes = (
"354 -37 LINE",
"369 99 LINE",
"371 99 OFFCURVE",
"406 98 OFFCURVE",
"407 98 CURVE",
"528 87 OFFCURVE",
"601 149 OFFCURVE",
"618 310 CURVE SMOOTH",
"639 514 LINE SMOOTH",
"656 676 OFFCURVE",
"596 735 OFFCURVE",
"473 729 CURVE",
"472 729 OFFCURVE",
"437 728 OFFCURVE",
"435 728 CURVE",
"451 883 LINE",
"341 883 LINE",
"325 728 LINE",
"323 728 OFFCURVE",
"293 728 OFFCURVE",
"292 728 CURVE",
"169 735 OFFCURVE",
"96 675 OFFCURVE",
"79 514 CURVE SMOOTH",
"58 310 LINE SMOOTH",
"41 148 OFFCURVE",
"101 88 OFFCURVE",
"224 98 CURVE",
"225 98 OFFCURVE",
"256 99 OFFCURVE",
"259 99 CURVE",
"245 -37 LINE"
);
},
{
closed = 1;
nodes = (
"154 159 OFFCURVE",
"146 195 OFFCURVE",
"158 310 CURVE SMOOTH",
"179 514 LINE SMOOTH",
"191 629 OFFCURVE",
"208 667 OFFCURVE",
"301 662 CURVE SMOOTH",
"302 662 OFFCURVE",
"316 662 OFFCURVE",
"318 662 CURVE",
"266 165 LINE",
"263 165 OFFCURVE",
"249 164 OFFCURVE",
"248 164 CURVE SMOOTH"
);
},
{
closed = 1;
nodes = (
"396 164 OFFCURVE",
"377 165 OFFCURVE",
"375 165 CURVE",
"427 662 LINE",
"430 662 OFFCURVE",
"448 662 OFFCURVE",
"449 662 CURVE SMOOTH",
"543 667 OFFCURVE",
"552 629 OFFCURVE",
"540 514 CURVE SMOOTH",
"518 310 LINE SMOOTH",
"506 195 OFFCURVE",
"490 159 OFFCURVE",
"397 164 CURVE SMOOTH"
);
}
);
width = 658;
}
);
unicode = 0424;
userData = {
com.fontlab.hintData = {
hhints = (
{
position = 171;
width = 50;
},
{
position = 1476;
width = 52;
}
);
};
};
},
{
glyphname = "Che-cy";
lastChange = "2016-08-02 10:42:05 +0000";
layers = (
{
layerId = "6D1B020D-7C4E-4885-9208-B35BA480FE8F";
paths = (
{
closed = 1;
nodes = (
"409 0 LINE",
"494 810 LINE",
"439 810 LINE",
"398 417 LINE",
"368 406 OFFCURVE",
"327 398 OFFCURVE",
"285 398 CURVE SMOOTH",
"197 398 OFFCURVE",
"130 423 OFFCURVE",
"142 533 CURVE SMOOTH",
"171 810 LINE",
"119 810 LINE",
"90 533 LINE SMOOTH",
"77 406 OFFCURVE",
"150 358 OFFCURVE",
"273 358 CURVE SMOOTH",
"310 358 OFFCURVE",
"350 364 OFFCURVE",
"394 376 CURVE",
"354 0 LINE"
);
}
);
width = 505;
},
{
layerId = "BF03A18F-065F-4249-8E16-486B9CB494A0";
paths = (
{
closed = 1;
nodes = (
"535 0 LINE",
"620 810 LINE",
"425 810 LINE",
"386 439 LINE",
"374 438 OFFCURVE",
"361 437 OFFCURVE",
"350 437 CURVE SMOOTH",
"261 437 OFFCURVE",
"262 472 OFFCURVE",
"266 516 CURVE SMOOTH",
"297 810 LINE",
"103 810 LINE",
"72 516 LINE SMOOTH",
"59 389 OFFCURVE",
"165 318 OFFCURVE",
"287 318 CURVE SMOOTH",
"307 318 OFFCURVE",
"339 320 OFFCURVE",
"374 324 CURVE",
"340 0 LINE"
);
}
);
width = 623;
},
{
layerId = "43161617-4660-4075-B14A-1D8E25AEE542";
paths = (
{
closed = 1;
nodes = (
"448 0 LINE",
"533 810 LINE",
"424 810 LINE",
"385 443 LINE",
"348 435 OFFCURVE",
"314 431 OFFCURVE",
"286 431 CURVE SMOOTH",
"202 431 OFFCURVE",
"173 467 OFFCURVE",
"182 546 CURVE SMOOTH",
"209 810 LINE",
"110 810 LINE",
"83 546 LINE SMOOTH",
"70 420 OFFCURVE",
"130 359 OFFCURVE",
"257 359 CURVE SMOOTH",
"292 359 OFFCURVE",
"333 364 OFFCURVE",
"378 374 CURVE",
"339 0 LINE"
);
}
);
width = 536;
}
);
unicode = 0427;
userData = {
com.fontlab.hintData = {
hhints = (
{
position = 734;
width = 54;
}
);
};
};
},
{
glyphname = "Tse-cy";
lastChange = "2016-08-02 10:42:05 +0000";
layers = (
{
layerId = "6D1B020D-7C4E-4885-9208-B35BA480FE8F";
paths = (
{
closed = 1;
nodes = (
"493 -134 LINE",
"511 42 LINE",
"455 42 LINE",
"536 810 LINE",
"481 810 LINE",
"400 42 LINE",
"112 42 LINE",
"193 810 LINE",
"138 810 LINE",
"53 0 LINE",
"457 0 LINE",
"449 -134 LINE"
);
}
);
width = 555;
},
{
layerId = "BF03A18F-065F-4249-8E16-486B9CB494A0";
paths = (
{
closed = 1;
nodes = (
"641 -182 LINE",
"674 130 LINE",
"556 130 LINE",
"627 810 LINE",
"432 810 LINE",
"361 130 LINE",
"248 130 LINE",
"319 810 LINE",
"124 810 LINE",
"39 0 LINE",
"492 0 LINE",
"500 -182 LINE"
);
}
);
width = 701;
},
{
layerId = "43161617-4660-4075-B14A-1D8E25AEE542";
paths = (
{
closed = 1;
nodes = (
"553 -146 LINE",
"577 78 LINE",
"500 78 LINE",
"577 810 LINE",
"468 810 LINE",
"391 78 LINE",
"158 78 LINE",
"234 810 LINE",
"125 810 LINE",
"40 0 LINE",
"475 0 LINE",
"468 -146 LINE"
);
}
);
width = 617;
}
);
unicode = 0426;
userData = {
com.fontlab.hintData = {
vhints = (
{
position = 1036;
width = 298;
}
);
};
};
},
{
glyphname = "Sha-cy";
lastChange = "2016-08-02 10:42:05 +0000";
layers = (
{
layerId = "6D1B020D-7C4E-4885-9208-B35BA480FE8F";
paths = (
{
closed = 1;
nodes = (
"606 0 LINE",
"691 810 LINE",
"636 810 LINE",
"556 42 LINE",
"365 42 LINE",
"446 810 LINE",
"391 810 LINE",
"311 42 LINE",
"113 42 LINE",
"193 810 LINE",
"139 810 LINE",
"54 0 LINE"
);
}
);
width = 702;
},
{
layerId = "BF03A18F-065F-4249-8E16-486B9CB494A0";
paths = (
{
closed = 1;
nodes = (
"756 0 LINE",
"841 810 LINE",
"659 810 LINE",
"589 139 LINE",
"504 139 LINE",
"574 810 LINE",
"393 810 LINE",
"322 139 LINE",
"236 139 LINE",
"306 810 LINE",
"124 810 LINE",
"39 0 LINE"
);
}
);
width = 844;
},
{
layerId = "43161617-4660-4075-B14A-1D8E25AEE542";
paths = (
{
closed = 1;
nodes = (
"660 0 LINE",
"745 810 LINE",
"635 810 LINE",
"559 79 LINE",
"417 79 LINE",
"493 810 LINE",
"384 810 LINE",
"307 79 LINE",
"158 79 LINE",
"234 810 LINE",
"125 810 LINE",
"40 0 LINE"
);
}
);
width = 747;
}
);
unicode = 0428;
},
{
glyphname = "Shcha-cy";
lastChange = "2016-08-02 10:42:05 +0000";
layers = (
{
layerId = "6D1B020D-7C4E-4885-9208-B35BA480FE8F";
paths = (
{
closed = 1;
nodes = (
"649 -134 LINE",
"668 42 LINE",
"611 42 LINE",
"691 810 LINE",
"637 810 LINE",
"556 42 LINE",
"365 42 LINE",
"446 810 LINE",
"391 810 LINE",
"310 42 LINE",
"112 42 LINE",
"193 810 LINE",
"138 810 LINE",
"53 0 LINE",
"613 0 LINE",
"605 -134 LINE"
);
}
);
width = 712;
},
{
layerId = "BF03A18F-065F-4249-8E16-486B9CB494A0";
paths = (
{
closed = 1;
nodes = (
"855 -182 LINE",
"889 130 LINE",
"770 130 LINE",
"841 810 LINE",
"660 810 LINE",
"588 130 LINE",
"504 130 LINE",
"575 810 LINE",
"393 810 LINE",
"321 130 LINE",
"235 130 LINE",
"306 810 LINE",
"124 810 LINE",
"39 0 LINE",
"709 0 LINE",
"714 -182 LINE"
);
}
);
width = 947;
},
{
layerId = "43161617-4660-4075-B14A-1D8E25AEE542";
paths = (
{
closed = 1;
nodes = (
"721 -146 LINE",
"744 78 LINE",
"668 78 LINE",
"745 810 LINE",
"636 810 LINE",
"559 78 LINE",
"417 78 LINE",
"493 810 LINE",
"384 810 LINE",
"307 78 LINE",
"158 78 LINE",
"234 810 LINE",
"125 810 LINE",
"40 0 LINE",
"642 0 LINE",
"636 -146 LINE"
);
}
);
width = 785;
}
);
unicode = 0429;
userData = {
com.fontlab.hintData = {
vhints = (
{
position = 1553;
width = 298;
}
);
};
};
},
{
glyphname = "Dzhe-cy";
lastChange = "2016-08-02 10:42:05 +0000";
layers = (
{
layerId = "6D1B020D-7C4E-4885-9208-B35BA480FE8F";
paths = (
{
closed = 1;
nodes = (
"250 -134 LINE",
"270 0 LINE",
"416 0 LINE",
"500 810 LINE",
"446 810 LINE",
"365 42 LINE",
"113 42 LINE",
"193 810 LINE",
"139 810 LINE",
"54 0 LINE",
"216 0 LINE",
"208 -134 LINE"
);
}
);
width = 511;
},
{
layerId = "BF03A18F-065F-4249-8E16-486B9CB494A0";
paths = (
{
closed = 1;
nodes = (
"334 -182 LINE",
"360 0 LINE",
"528 0 LINE",
"613 810 LINE",
"418 810 LINE",
"349 149 LINE",
"245 149 LINE",
"314 810 LINE",
"119 810 LINE",
"34 0 LINE",
"207 0 LINE",
"195 -182 LINE"
);
}
);
width = 611;
},
{
layerId = "43161617-4660-4075-B14A-1D8E25AEE542";
paths = (
{
closed = 1;
nodes = (
"277 -146 LINE",
"299 0 LINE",
"457 0 LINE",
"542 810 LINE",
"432 810 LINE",
"355 78 LINE",
"158 78 LINE",
"234 810 LINE",
"125 810 LINE",
"40 0 LINE",
"203 0 LINE",
"195 -146 LINE"
);
}
);
width = 544;
}
);
unicode = 040F;
},
{
glyphname = "Softsign-cy";
lastChange = "2016-08-02 10:42:05 +0000";
layers = (
{
layerId = "6D1B020D-7C4E-4885-9208-B35BA480FE8F";
paths = (
{
closed = 1;
nodes = (
"201 0 LINE SMOOTH",
"358 0 OFFCURVE",
"426 95 OFFCURVE",
"440 229 CURVE SMOOTH",
"457 388 OFFCURVE",
"397 468 OFFCURVE",
"249 468 CURVE SMOOTH",
"158 468 LINE",
"193 810 LINE",
"139 810 LINE",
"54 0 LINE"
);
},
{
closed = 1;
nodes = (
"153 424 LINE",
"247 424 LINE SMOOTH",
"366 424 OFFCURVE",
"398 351 OFFCURVE",
"385 230 CURVE SMOOTH",
"373 110 OFFCURVE",
"326 44 OFFCURVE",
"207 44 CURVE SMOOTH",
"113 44 LINE"
);
}
);
width = 461;
},
{
layerId = "BF03A18F-065F-4249-8E16-486B9CB494A0";
paths = (
{
closed = 1;
nodes = (
"252 0 LINE SMOOTH",
"388 0 OFFCURVE",
"512 30 OFFCURVE",
"533 234 CURVE SMOOTH",
"550 390 OFFCURVE",
"471 466 OFFCURVE",
"323 466 CURVE SMOOTH",
"283 466 LINE",
"319 810 LINE",
"124 810 LINE",
"39 0 LINE"
);
},
{
closed = 1;
nodes = (
"269 333 LINE",
"287 333 LINE SMOOTH",
"350 333 OFFCURVE",
"357 286 OFFCURVE",
"354 238 CURVE SMOOTH",
"349 167 OFFCURVE",
"327 127 OFFCURVE",
"267 127 CURVE SMOOTH",
"247 127 LINE"
);
}
);
width = 570;
},
{
layerId = "43161617-4660-4075-B14A-1D8E25AEE542";
paths = (
{
closed = 1;
nodes = (
"190 0 LINE SMOOTH",
"363 0 OFFCURVE",
"449 72 OFFCURVE",
"466 237 CURVE SMOOTH",
"486 420 OFFCURVE",
"408 472 OFFCURVE",
"234 472 CURVE SMOOTH",
"199 472 LINE",
"234 810 LINE",
"125 810 LINE",
"40 0 LINE"
);
},
{
closed = 1;
nodes = (
"191 394 LINE",
"229 394 LINE SMOOTH",
"344 394 OFFCURVE",
"375 348 OFFCURVE",
"363 238 CURVE SMOOTH",
"350 106 OFFCURVE",
"300 79 OFFCURVE",
"199 79 CURVE SMOOTH",
"158 79 LINE"
);
}
);
width = 492;
}
);
unicode = 042C;
userData = {
com.fontlab.hintData = {
hhints = (
{
position = 0;
width = 61;
},
{
position = 895;
width = 61;
}
);
};
};
},
{
glyphname = "Hardsign-cy";
lastChange = "2016-08-02 10:42:05 +0000";
layers = (
{
layerId = "6D1B020D-7C4E-4885-9208-B35BA480FE8F";
paths = (
{
closed = 1;
nodes = (
"282 0 LINE SMOOTH",
"438 0 OFFCURVE",
"506 95 OFFCURVE",
"521 229 CURVE SMOOTH",
"538 388 OFFCURVE",
"478 468 OFFCURVE",
"329 468 CURVE SMOOTH",
"238 468 LINE",
"274 810 LINE",
"71 810 LINE",
"66 767 LINE",
"215 767 LINE",
"134 0 LINE"
);
},
{
closed = 1;
nodes = (
"233 424 LINE",
"327 424 LINE SMOOTH",
"446 424 OFFCURVE",
"478 351 OFFCURVE",
"466 230 CURVE SMOOTH",
"453 110 OFFCURVE",
"406 44 OFFCURVE",
"288 44 CURVE SMOOTH",
"194 44 LINE"
);
}
);
width = 542;
},
{
layerId = "BF03A18F-065F-4249-8E16-486B9CB494A0";
paths = (
{
closed = 1;
nodes = (
"332 0 LINE SMOOTH",
"467 0 OFFCURVE",
"591 30 OFFCURVE",
"612 234 CURVE SMOOTH",
"629 390 OFFCURVE",
"550 466 OFFCURVE",
"402 466 CURVE SMOOTH",
"353 466 LINE",
"389 810 LINE",
"45 810 LINE",
"31 679 LINE",
"180 679 LINE",
"109 0 LINE"
);
},
{
closed = 1;
nodes = (
"339 333 LINE",
"366 333 LINE SMOOTH",
"429 333 OFFCURVE",
"436 286 OFFCURVE",
"433 238 CURVE SMOOTH",
"428 167 OFFCURVE",
"406 127 OFFCURVE",
"346 127 CURVE SMOOTH",
"317 127 LINE"
);
}
);
width = 647;
},
{
layerId = "43161617-4660-4075-B14A-1D8E25AEE542";
paths = (
{
closed = 1;
nodes = (
"264 0 LINE SMOOTH",
"437 0 OFFCURVE",
"522 72 OFFCURVE",
"540 237 CURVE SMOOTH",
"560 420 OFFCURVE",
"481 472 OFFCURVE",
"308 472 CURVE SMOOTH",
"272 472 LINE",
"308 810 LINE",
"66 810 LINE",
"57 727 LINE",
"190 727 LINE",
"114 0 LINE"
);
},
{
closed = 1;
nodes = (
"264 394 LINE",
"303 394 LINE SMOOTH",
"417 394 OFFCURVE",
"448 348 OFFCURVE",
"437 238 CURVE SMOOTH",
"423 106 OFFCURVE",
"374 79 OFFCURVE",
"272 79 CURVE SMOOTH",
"231 79 LINE"
);
}
);
width = 566;
}
);
unicode = 042A;
userData = {
com.fontlab.hintData = {
hhints = (
{
position = 0;
width = 61;
},
{
position = 895;
width = 61;
}
);
};
};
},
{
glyphname = "Yeru-cy";
lastChange = "2016-08-02 10:42:05 +0000";
layers = (
{
layerId = "6D1B020D-7C4E-4885-9208-B35BA480FE8F";
paths = (
{
closed = 1;
nodes = (
"201 0 LINE SMOOTH",
"358 0 OFFCURVE",
"426 95 OFFCURVE",
"440 229 CURVE SMOOTH",
"457 388 OFFCURVE",
"397 468 OFFCURVE",
"248 468 CURVE SMOOTH",
"157 468 LINE",
"193 810 LINE",
"138 810 LINE",
"53 0 LINE"
);
},
{
closed = 1;
nodes = (
"153 424 LINE",
"246 424 LINE SMOOTH",
"365 424 OFFCURVE",
"397 351 OFFCURVE",
"385 230 CURVE SMOOTH",
"372 110 OFFCURVE",
"325 44 OFFCURVE",
"207 44 CURVE SMOOTH",
"113 44 LINE"
);
},
{
closed = 1;
nodes = (
"575 0 LINE",
"660 810 LINE",
"604 810 LINE",
"520 0 LINE"
);
}
);
width = 669;
},
{
layerId = "BF03A18F-065F-4249-8E16-486B9CB494A0";
paths = (
{
closed = 1;
nodes = (
"254 0 LINE SMOOTH",
"389 0 OFFCURVE",
"514 30 OFFCURVE",
"535 234 CURVE SMOOTH",
"551 390 OFFCURVE",
"473 466 OFFCURVE",
"324 466 CURVE SMOOTH",
"283 466 LINE",
"319 810 LINE",
"124 810 LINE",
"39 0 LINE"
);
},
{
closed = 1;
nodes = (
"269 333 LINE",
"289 333 LINE SMOOTH",
"351 333 OFFCURVE",
"358 286 OFFCURVE",
"355 238 CURVE SMOOTH",
"351 167 OFFCURVE",
"328 127 OFFCURVE",
"269 127 CURVE SMOOTH",
"247 127 LINE"
);
},
{
closed = 1;
nodes = (
"768 0 LINE",
"853 810 LINE",
"658 810 LINE",
"573 0 LINE"
);
}
);
width = 856;
},
{
layerId = "43161617-4660-4075-B14A-1D8E25AEE542";
paths = (
{
closed = 1;
nodes = (
"190 0 LINE SMOOTH",
"363 0 OFFCURVE",
"449 72 OFFCURVE",
"466 237 CURVE SMOOTH",
"486 420 OFFCURVE",
"408 472 OFFCURVE",
"234 472 CURVE SMOOTH",
"199 472 LINE",
"234 810 LINE",
"125 810 LINE",
"40 0 LINE"
);
},
{
closed = 1;
nodes = (
"191 394 LINE",
"229 394 LINE SMOOTH",
"343 394 OFFCURVE",
"375 348 OFFCURVE",
"363 238 CURVE SMOOTH",
"350 106 OFFCURVE",
"300 79 OFFCURVE",
"199 79 CURVE SMOOTH",
"158 79 LINE"
);
},
{
closed = 1;
nodes = (
"636 0 LINE",
"721 810 LINE",
"612 810 LINE",
"527 0 LINE"
);
}
);
width = 724;
}
);
unicode = 042B;
userData = {
com.fontlab.hintData = {
hhints = (
{
position = 0;
width = 61;
},
{
position = 895;
width = 61;
}
);
};
};
},
{
glyphname = "Lje-cy";
lastChange = "2016-08-02 10:42:05 +0000";
layers = (
{
layerId = "6D1B020D-7C4E-4885-9208-B35BA480FE8F";
paths = (
{
closed = 1;
nodes = (
"151 -4 OFFCURVE",
"174 90 OFFCURVE",
"222 348 CURVE SMOOTH",
"300 768 LINE",
"484 768 LINE",
"404 0 LINE",
"546 0 LINE SMOOTH",
"704 0 OFFCURVE",
"771 95 OFFCURVE",
"786 229 CURVE SMOOTH",
"802 388 OFFCURVE",
"743 468 OFFCURVE",
"594 468 CURVE SMOOTH",
"507 468 LINE",
"543 810 LINE",
"254 810 LINE",
"170 348 LINE SMOOTH",
"124 99 OFFCURVE",
"112 39 OFFCURVE",
"5 41 CURVE",
"0 -2 LINE",
"13 -3 LINE SMOOTH"
);
},
{
closed = 1;
nodes = (
"503 424 LINE",
"592 424 LINE SMOOTH",
"711 424 OFFCURVE",
"743 351 OFFCURVE",
"730 230 CURVE SMOOTH",
"718 110 OFFCURVE",
"671 44 OFFCURVE",
"553 44 CURVE SMOOTH",
"463 44 LINE"
);
}
);
width = 810;
},
{
layerId = "BF03A18F-065F-4249-8E16-486B9CB494A0";
paths = (
{
closed = 1;
nodes = (
"59 0 LINE SMOOTH",
"214 0 OFFCURVE",
"282 51 OFFCURVE",
"319 270 CURVE SMOOTH",
"386 661 LINE",
"461 661 LINE",
"392 0 LINE",
"602 0 LINE SMOOTH",
"736 0 OFFCURVE",
"861 30 OFFCURVE",
"882 234 CURVE SMOOTH",
"898 390 OFFCURVE",
"820 466 OFFCURVE",
"672 466 CURVE SMOOTH",
"636 466 LINE",
"672 810 LINE",
"225 810 LINE",
"129 273 LINE SMOOTH",
"107 147 OFFCURVE",
"83 135 OFFCURVE",
"0 136 CURVE",
"-15 0 LINE"
);
},
{
closed = 1;
nodes = (
"622 333 LINE",
"636 333 LINE SMOOTH",
"698 333 OFFCURVE",
"706 286 OFFCURVE",
"703 238 CURVE SMOOTH",
"698 167 OFFCURVE",
"676 127 OFFCURVE",
"616 127 CURVE SMOOTH",
"600 127 LINE"
);
}
);
width = 900;
},
{
layerId = "43161617-4660-4075-B14A-1D8E25AEE542";
paths = (
{
closed = 1;
nodes = (
"160 -6 OFFCURVE",
"218 108 OFFCURVE",
"259 356 CURVE SMOOTH",
"320 729 LINE",
"469 729 LINE",
"392 0 LINE",
"527 0 LINE SMOOTH",
"700 0 OFFCURVE",
"786 72 OFFCURVE",
"803 237 CURVE SMOOTH",
"822 420 OFFCURVE",
"744 472 OFFCURVE",
"571 472 CURVE SMOOTH",
"551 472 LINE",
"586 810 LINE",
"233 810 LINE",
"159 356 LINE SMOOTH",
"120 131 OFFCURVE",
"83 75 OFFCURVE",
"-1 82 CURVE",
"-10 0 LINE",
"12 -1 LINE SMOOTH"
);
},
{
closed = 1;
nodes = (
"542 394 LINE",
"566 394 LINE SMOOTH",
"680 394 OFFCURVE",
"711 348 OFFCURVE",
"700 238 CURVE SMOOTH",
"686 106 OFFCURVE",
"637 79 OFFCURVE",
"535 79 CURVE SMOOTH",
"510 79 LINE"
);
}
);
width = 834;
}
);
unicode = 0409;
userData = {
com.fontlab.hintData = {
hhints = (
{
position = 0;
width = 61;
},
{
position = 895;
width = 61;
}
);
};
};
},
